<?xml version="1.0" encoding="utf-8"?>
<!-- Generator: Adobe Illustrator 27.2.0, SVG Export Plug-In . SVG Version: 6.00 Build 0)  -->
<svg version="1.1" id="Camada_1" xmlns="http://www.w3.org/2000/svg" xmlns:xlink="http://www.w3.org/1999/xlink" x="0px" y="0px"
	 viewBox="0 0 1008.2 318.8" style="enable-background:new 0 0 1008.2 318.8;" xml:space="preserve">
<style type="text/css">
	.st0{fill:#07249C;}
	.st1{fill:#FFFFFF;}
	.st2{fill:#E96220;}
</style>
<g>
	<path class="st0" d="M292.4,292.4H126c-69.3,0-126-56.7-126-126V0h292.4V292.4z"/>
	<g>
		<path class="st1" d="M218.2,251.7C218.2,251.7,218.2,251.7,218.2,251.7c-23.4,0-42.5-19.1-42.5-42.7l0-92.7l-92.3,0
			c-23.4,0-42.5-19.1-42.5-42.7c0-23.5,19.1-42.7,42.5-42.7c0,0,0,0,0,0l134.8,0c0,0,0,0,0,0c11.3,0,22,4.4,30,12.5
			c8,8.1,12.4,18.8,12.4,30.2l0,135.3c0,11.4-4.4,22.1-12.4,30.2C240.2,247.3,229.5,251.7,218.2,251.7z M177.8,114.3l0,94.8
			c0,22.3,18.1,40.5,40.4,40.5c0,0,0,0,0,0c10.8,0,20.9-4.2,28.5-11.9c7.6-7.7,11.8-17.8,11.8-28.7l0-135.3c0-10.8-4.2-21-11.8-28.7
			c-7.6-7.6-17.8-11.9-28.5-11.9c0,0,0,0,0,0l-134.8,0c0,0,0,0,0,0C61.1,33.2,43,51.4,43,73.8c0,22.3,18.1,40.5,40.4,40.5
			L177.8,114.3z"/>
	</g>
	<path class="st2" d="M246.5,86.9c0-23-18.5-41.6-41.4-41.6l-134.8,0c-22.9,0-41.4,18.6-41.4,41.6c0,23,18.5,41.6,41.4,41.6l66.2,0
		c15,0,27.1,12.1,27.1,27.1l0,66.6c0,23,18.6,41.6,41.4,41.6c22.9,0,41.4-18.6,41.4-41.6L246.5,86.9z"/>
	<circle class="st2" cx="128.1" cy="164.1" r="27.8"/>
	<g>
		<path d="M359.9,19.2h22.9l27.7,110.4h-24.2l-3.2-15.8h-24.1l-3.4,15.8H332L359.9,19.2z M378.3,90.2l-6.8-34h-0.2l-7.3,34H378.3z"
			/>
		<path d="M417.8,19.6c14.3,0,28.6,0,42.9,0c5.3,0,10,0.9,14,2.7c4,1.8,7.1,4.2,9.5,7.1c2.4,2.9,4.2,6.1,5.3,9.6
			c1.1,3.4,1.7,6.8,1.7,10.1c0,0,0,31-0.1,32.1c-0.8,12.7-8.8,20.6-8.8,20.6c-8.8,8.4-21.8,7.7-23.7,7.8h-17.8V130
			c-7.6,0-15.3,0-22.9,0C417.8,98.3,417.8,51.4,417.8,19.6z M440.7,89.1h11c1.8,0,3.3-0.1,4.6-0.2c1.3-0.2,2.5-0.5,3.7-1.2
			c1.1-0.6,2-1.5,2.6-2.8c0.8-1.6,0.9-3.1,0.9-4.1c0-0.1,0-30.2,0-30.7c0-1.2,0-2.9-0.8-4.5c-0.5-1.2-1.3-2-2.3-2.5
			c-1-0.5-2-0.9-3.2-1c-1.2-0.2-2.6-0.2-4.3-0.2h-12.3V89.1z"/>
		<path d="M579.1,26.9h66.7v22.6h-41.2v49.4h33.1v22h-33.1v20.3h76v22.6H579.1V26.9z"/>
		<path d="M658.4,26.9c7.3,0,14.7,0,22,0c9.8,17.1,19.6,34.2,29.3,51.3c0-12.2,0-24.4,0-36.7c7.3,0,14.7,0.1,22,0.1v80.5
			c-7.3,0-14.7,0-22,0c-9.8-19.6-19.6-39.1-29.3-58.7c0,9.8,0,58.4,0,68.2c-7.3,0-14.7,0-22,0C658.4,109.8,658.4,48.9,658.4,26.9z"
			/>
		<path d="M739.7,19.6h61.8c6.1,0,11.3,1.2,15.7,3.5c4.4,2.3,8,5.5,10.7,9.6c2.7,4.1,4.7,8.6,6,13.7c1.2,5.1,1.9,10.4,1.9,16.1
			c0,0,0,33.3,0,33.9c-0.4,19.6-9.7,30.4-9.7,30.4c-10.6,12.3-26.7,11.5-29.1,11.4h-57.2V19.6z M763.1,116.2h32.5
			c3.5,0,6.3-0.7,8.6-2c2.2-1.4,3.9-3.1,5.1-5.3c1.2-2.2,2-4.5,2.4-6.9c0.1-0.5,0.5-2.5,0.6-5.4c0-0.4,0-33.6,0-34.4
			c0-1-0.1-3.4-0.6-6.1c-0.4-2.2-1.2-4.4-2.4-6.6c-1.2-2.2-3.1-4.1-5.6-5.5c-3.4-2-6.8-2.1-8.6-2.2c-0.5,0-30.9,0-31.2,0
			c-0.3,0-0.5,0-0.8,0V116.2z"/>
		<path d="M872.4,100.3c22-14.7,44-29.3,66-44c-17.1,0-48.9,0-66,0v-22c29.3,0,73.3,0,102.7,0c0,7.3,0,14.7,0,22
			c-19.6,14.7-39.1,29.3-58.7,44c19.6,0,68.4,0,88,0c0,7.3,0,14.7,0,22c-34.2,0-97.8,0-132,0C872.4,114.9,872.4,107.6,872.4,100.3z"
			/>
		<rect x="843.1" y="63.6" width="22" height="73.3"/>
		<rect x="843.1" y="34.3" width="22" height="22"/>
		<rect x="530.1" y="169.1" width="24.5" height="20.4"/>
		<path d="M570,157.4c-0.4-1.8-0.7-3.2-0.8-4c-1.8-10.3-1.5-53.9-2.8-56.8c-1.1-2.3-3.2-5.3-8.1-7.8c3.9-1.6,6.9-4.4,9-8.6
			c0.8-1.5,1.2-2.8,1.5-3.7c0.3-0.8,0.8-2.4,1.1-4.5c0.1-0.8,0.4-24.4,0.4-26.9c0-8-2.5-14.2-7.5-18.5c-5-4.4-11.3-6.6-18.7-6.6
			h-45.6v109.5h23.1V98.9h13.2c2.3,0,4.2,0.5,5.6,1.4c1.4,0.9,2.5,2.2,3.3,3.8c1.1,2.3,1.5,4.6,1.5,5c0.2,1.6,0.4,44.2,0.4,44.4
			c0.2,2,0.5,5.2,1.3,10.2c8.3,0,16.5,0,24.8,0C571.3,162.3,570.6,160.1,570,157.4z M545.5,71.3c0,1.9-0.3,3.4-1,4.6
			c-0.7,1.2-1.5,2.1-2.6,2.6c-1.1,0.6-2.2,1-3.4,1.2c-1.2,0.2-2.5,0.3-3.9,0.3h-13V41c3.9,0,7.7,0,11.6,0c4.3-0.2,6.9,0.7,8.2,1.4
			c0.6,0.3,1,0.5,1.3,0.8c2.3,1.9,2.7,5,2.7,5.8C545.5,49.3,545.5,71.1,545.5,71.3z"/>
		<path d="M419.2,218.1c0,37.7-14.4,55.7-43.9,55.7c-29.4,0-44-18.1-44-55.7v-83.3H361v74c0,13.9,0,31.2,14.4,31.2
			c14,0,14-17.3,14-31.2v-74h29.7V218.1z"/>
		<path d="M426.6,142.2h32.9l30.4,51.6h0.3v-51.6h30.4v96.4h-31.3l-32-52.6h-0.3l-0.1,83.8h-30.4L426.6,142.2z"/>
		<path d="M530.1,192.7h24.4l0.1,78.1h-24.4V192.7z"/>
		<path d="M561.2,172l37.9,0.2l28.1,51.6h0.3v-51.6h28.1v96.4h-28.9l-29.6-52.6h-0.3l-0.1,54.9h-35.5V172z"/>
		<path d="M709.5,159.9c30.3,0,50.6,22.7,50.6,54.4s-20.3,54.4-50.6,54.4c-30.3,0-50.6-22.7-50.6-54.4S679.2,159.9,709.5,159.9z
			 M709.5,242.8c7.8,0,19.8-5.4,19.8-28.5s-12-28.5-19.8-28.5c-7.8,0-19.8,5.4-19.8,28.5S701.7,242.8,709.5,242.8z"/>
		<path d="M766,142.9h56.6c16.9,0,31.5,9.3,31.5,27.5c0,10-4.6,20.5-14.4,24.2c8.1,3.1,13.1,12,14.2,24c0.4,4.7,0.5,16.2,3.2,20.7
			h-29.7c-1.5-4.9-2-9.9-2.4-14.8c-0.8-9.2-1.6-18.8-13.4-18.8h-15.8l-0.1,65.1H766L766,142.9z M795.7,185.1h15.5
			c5.5,0,13.1-0.9,13.1-9.6c0-6.1-3.4-9.6-14.7-9.6h-13.9V185.1z"/>
		<path d="M884.3,166.9h-27v-24.7H941v24.7h-27l0.1,104h-29.6L884.3,166.9z"/>
		<path d="M923,174.4l59.5-0.2l0.4,24.8l-30.2,0.1v12l16.5,0.1v23l-16.5-0.1v12h51.6v24.7H923V174.4z"/>
	</g>
</g>
</svg>
