<svg version="1.1" id="Camada_1" xmlns="http://www.w3.org/2000/svg" x="0" y="0" viewBox="0 0 1008.4 311.8" style="enable-background:new 0 0 1008.4 311.8" xml:space="preserve"><style>.st2{fill:#e96220}</style><path d="M292.4 292.4H126c-69.3 0-126-56.7-126-126V0h292.4v292.4z" style="fill:#07249c"/><path d="M218.2 251.7c-23.4 0-42.5-19.1-42.5-42.7v-92.7H83.4c-23.4 0-42.5-19.1-42.5-42.7 0-23.5 19.1-42.7 42.5-42.7h134.8c11.3 0 22 4.4 30 12.5s12.4 18.8 12.4 30.2v135.3c0 11.4-4.4 22.1-12.4 30.2-8 8.2-18.7 12.6-30 12.6zm-40.4-137.4v94.8c0 22.3 18.1 40.5 40.4 40.5 10.8 0 20.9-4.2 28.5-11.9 7.6-7.7 11.8-17.8 11.8-28.7V73.7c0-10.8-4.2-21-11.8-28.7-7.6-7.6-17.8-11.9-28.5-11.9H83.4C61.1 33.2 43 51.4 43 73.8c0 22.3 18.1 40.5 40.4 40.5h94.4z" style="fill:#fff"/><path class="st2" d="M246.5 86.9c0-23-18.5-41.6-41.4-41.6H70.3c-22.9 0-41.4 18.6-41.4 41.6s18.5 41.6 41.4 41.6h66.2c15 0 27.1 12.1 27.1 27.1v66.6c0 23 18.6 41.6 41.4 41.6 22.9 0 41.4-18.6 41.4-41.6l.1-135.3z"/><circle class="st2" cx="128.1" cy="164.1" r="27.8"/><path d="M359.9 19.2h22.9l27.7 110.4h-24.2l-3.2-15.8H359l-3.4 15.8H332l27.9-110.4zm18.4 71-6.8-34h-.2l-7.3 34h14.3zM417.8 19.6h42.9c5.3 0 10 .9 14 2.7 4 1.8 7.1 4.2 9.5 7.1 2.4 2.9 4.2 6.1 5.3 9.6 1.1 3.4 1.7 6.8 1.7 10.1 0 0 0 31-.1 32.1-.8 12.7-8.8 20.6-8.8 20.6-8.8 8.4-21.8 7.7-23.7 7.8h-17.8V130h-22.9c-.1-31.7-.1-78.6-.1-110.4zm22.9 69.5h11c1.8 0 3.3-.1 4.6-.2 1.3-.2 2.5-.5 3.7-1.2 1.1-.6 2-1.5 2.6-2.8.8-1.6.9-3.1.9-4.1V50.1c0-1.2 0-2.9-.8-4.5-.5-1.2-1.3-2-2.3-2.5-1-.5-2-.9-3.2-1-1.2-.2-2.6-.2-4.3-.2h-12.3v47.2zM579.1 26.9h66.7v22.6h-41.2v49.4h33.1v22h-33.1v20.3h76v22.6H579.1V26.9z"/><path d="M658.4 26.9h22c9.8 17.1 19.6 34.2 29.3 51.3V41.5c7.3 0 14.7.1 22 .1v80.5h-22c-9.8-19.6-19.6-39.1-29.3-58.7v68.2h-22V26.9zM739.7 19.6h61.8c6.1 0 11.3 1.2 15.7 3.5 4.4 2.3 8 5.5 10.7 9.6 2.7 4.1 4.7 8.6 6 13.7 1.2 5.1 1.9 10.4 1.9 16.1v33.9c-.4 19.6-9.7 30.4-9.7 30.4-10.6 12.3-26.7 11.5-29.1 11.4h-57.2V19.6zm23.4 96.6h32.5c3.5 0 6.3-.7 8.6-2 2.2-1.4 3.9-3.1 5.1-5.3 1.2-2.2 2-4.5 2.4-6.9.1-.5.5-2.5.6-5.4V62.2c0-1-.1-3.4-.6-6.1-.4-2.2-1.2-4.4-2.4-6.6-1.2-2.2-3.1-4.1-5.6-5.5-3.4-2-6.8-2.1-8.6-2.2h-32v74.4zM872.4 100.3c22-14.7 44-29.3 66-44h-66v-22h102.7v22c-19.6 14.7-39.1 29.3-58.7 44h88v22h-132v-22zM843.1 63.6h22v73.3h-22zM843.1 34.3h22v22h-22zM530.1 169.1h24.5v20.4h-24.5zM570 157.4c-.4-1.8-.7-3.2-.8-4-1.8-10.3-1.5-53.9-2.8-56.8-1.1-2.3-3.2-5.3-8.1-7.8 3.9-1.6 6.9-4.4 9-8.6.8-1.5 1.2-2.8 1.5-3.7.3-.8.8-2.4 1.1-4.5.1-.8.4-24.4.4-26.9 0-8-2.5-14.2-7.5-18.5-5-4.4-11.3-6.6-18.7-6.6h-45.6v109.5h23.1V98.9h13.2c2.3 0 4.2.5 5.6 1.4 1.4.9 2.5 2.2 3.3 3.8 1.1 2.3 1.5 4.6 1.5 5 .2 1.6.4 44.2.4 44.4.2 2 .5 5.2 1.3 10.2h24.8c-.4-1.4-1.1-3.6-1.7-6.3zm-24.5-86.1c0 1.9-.3 3.4-1 4.6-.7 1.2-1.5 2.1-2.6 2.6-1.1.6-2.2 1-3.4 1.2-1.2.2-2.5.3-3.9.3h-13V41h11.6c4.3-.2 6.9.7 8.2 1.4.6.3 1 .5 1.3.8 2.3 1.9 2.7 5 2.7 5.8.1.3.1 22.1.1 22.3zM419.2 218.1c0 37.7-14.4 55.7-43.9 55.7-29.4 0-44-18.1-44-55.7v-83.3H361v74c0 13.9 0 31.2 14.4 31.2 14 0 14-17.3 14-31.2v-74h29.7v83.3z"/><path d="M426.6 142.2h32.9l30.4 51.6h.3v-51.6h30.4v96.4h-31.3l-32-52.6h-.3l-.1 83.8h-30.4l.1-127.6zM530.1 192.7h24.4l.1 78.1h-24.4v-78.1zM561.2 172l37.9.2 28.1 51.6h.3v-51.6h28.1v96.4h-28.9L597.1 216h-.3l-.1 54.9h-35.5V172zM709.5 159.9c30.3 0 50.6 22.7 50.6 54.4s-20.3 54.4-50.6 54.4-50.6-22.7-50.6-54.4 20.3-54.4 50.6-54.4zm0 82.9c7.8 0 19.8-5.4 19.8-28.5s-12-28.5-19.8-28.5c-7.8 0-19.8 5.4-19.8 28.5s12 28.5 19.8 28.5zM766 142.9h56.6c16.9 0 31.5 9.3 31.5 27.5 0 10-4.6 20.5-14.4 24.2 8.1 3.1 13.1 12 14.2 24 .4 4.7.5 16.2 3.2 20.7h-29.7c-1.5-4.9-2-9.9-2.4-14.8-.8-9.2-1.6-18.8-13.4-18.8h-15.8l-.1 65.1H766V142.9zm29.7 42.2h15.5c5.5 0 13.1-.9 13.1-9.6 0-6.1-3.4-9.6-14.7-9.6h-13.9v19.2zM884.3 166.9h-27v-24.7H941v24.7h-27l.1 104h-29.6l-.2-104z"/><path d="m923 174.4 59.5-.2.4 24.8-30.2.1v12l16.5.1v23l-16.5-.1v12h51.6v24.7H923v-96.4z"/></svg>