<svg version="1.1" id="Camada_1" xmlns="http://www.w3.org/2000/svg" x="0" y="0" viewBox="0 0 152 36.7" style="enable-background:new 0 0 152 36.7" xml:space="preserve"><style>.st0{fill:#fff}.st3{fill:#07249b}</style><path class="st0" d="M44.1 22.8c-1.3 1.2-2.8 1.7-4.7 1.7-1.8 0-3.4-.6-4.7-1.7-1.3-1.2-1.9-2.7-1.9-4.5V9h3.3v9.1c0 1 .3 1.8 1 2.4s1.4 1 2.4 1c.9 0 1.7-.3 2.3-1 .6-.6.9-1.5.9-2.4V9H46v9.3c0 1.9-.7 3.4-1.9 4.5zM49 24.3V9h3.6l4 6c.3.5.7 1.1 1.1 1.7.4.7.8 1.2 1.1 1.6l.4.7V9h3.3v15.3H59l-3.8-5.7c-.4-.6-.9-1.3-1.4-2-.5-.7-.9-1.3-1.2-1.7l-.4-.6v10.1H49zM65.9 24.3V9h3.3v15.3h-3.3zM72.5 24.3V9h3.6l4 6c.3.5.7 1.1 1.1 1.7.4.7.8 1.2 1.1 1.6l.4.7V9H86v15.3h-3.5l-3.8-5.7c-.4-.6-.9-1.3-1.4-2-.5-.7-.9-1.3-1.2-1.7l-.4-.6v10.1h-3.2zM88.7 16.7c0-2.2.8-4.1 2.3-5.6 1.5-1.5 3.5-2.3 5.8-2.3s4.3.8 5.8 2.3c1.5 1.5 2.3 3.4 2.3 5.6 0 2.2-.8 4.1-2.3 5.6-1.5 1.5-3.5 2.3-5.8 2.3s-4.3-.8-5.8-2.3c-1.6-1.5-2.3-3.4-2.3-5.6zm3.4 0c0 1.4.4 2.5 1.3 3.5s2 1.4 3.3 1.4c1.3 0 2.4-.5 3.3-1.4.9-1 1.3-2.1 1.3-3.5 0-1.3-.4-2.5-1.3-3.5s-2-1.4-3.3-1.4c-1.3 0-2.5.5-3.3 1.4-.8 1-1.3 2.2-1.3 3.5zM107.5 24.3V9h6.5c2.2 0 3.9.6 5.1 1.7 1.2 1.1 1.8 2.5 1.8 4.2 0 1-.3 2-.8 2.9-.5.9-1.2 1.6-2.1 2.1l3.2 4.4h-4l-2.4-3.5h-4v3.5h-3.3zm3.3-6.3h3.4c1 0 1.8-.3 2.4-.9.6-.6.9-1.3.9-2.2 0-.9-.3-1.6-.9-2.2-.6-.6-1.4-.9-2.4-.9h-3.4V18zM127.4 24.3V11.9h-5.2V9h13.7v2.8h-5.2v12.5h-3.3zM138.1 24.3V9h12.1v2.8h-8.8V15h8.3v2.8h-8.3v3.7h9.1v2.8h-12.4z"/><path d="M1.1 6.8v18.5c0 .7.1 1.4.4 2 .8 1.7 3.2 2.9 5.1 3.3 3.8.7 5.5 1.3 6.2 2.3.7-1.1 2.5-1.6 6.2-2.3 1.9-.4 4.3-1.5 5.1-3.3.3-.6.4-1.3.4-2V6.8H1.1z" style="fill:#e86220"/><path class="st0" d="M25 .7V25.3c0 .7-.2 1.5-.5 2.1-.4.9-1.2 1.7-2.3 2.3-.9.5-2 1-3.1 1.2-3.9.7-5.4 1.3-6 2.2l-.3.4-.3-.4c-.6-.9-2.1-1.4-6-2.2-1-.2-2.2-.6-3.1-1.2-1.1-.7-1.9-1.5-2.3-2.3-.3-.7-.5-1.4-.5-2.1V.7h6.6v1.1h2.3V.7h6.6v1.1h2.3V.7H25m.7-.7h-8v1.1h-.8V0h-8v1.1H8V0H0V25.3c0 .8.2 1.7.5 2.4.4 1 1.3 1.9 2.6 2.7 1 .6 2.2 1 3.3 1.2 3.6.7 5.1 1.2 5.5 1.9l.3.4.6.9.6-.9.3-.4c.5-.7 2-1.2 5.5-1.9 1.1-.2 2.3-.7 3.3-1.2 1.3-.7 2.1-1.6 2.6-2.7.3-.8.5-1.6.5-2.4V0h.1z"/><path style="fill:#ed8453" d="M18.8 1.1v1.1h-3V1.1H10v1.1H6.9V1.1H1.1v5.4h23.5V1.1z"/><path class="st0" d="m3 5.5-.8-2.1h.4l.5 1.2.2.5c.1-.2.1-.4.2-.5L4 3.4h.4l-1 2.1H3zM5.9 5.5V3.4h1.6v.3H6.3v.5h1.2v.3H6.3v.6h1.3v.3H5.9zM9.3 5.5V3.4h.9c.3 0 .5.1.7.2.2.2.2.3.2.6 0 .1 0 .3-.1.4l-.3.3.5.6h-.5l-.3-.5h-.7v.5h-.4zm.4-.8h.5c.2 0 .3 0 .4-.1.1-.1.1-.2.1-.3 0-.1 0-.3-.1-.3-.1-.1-.2-.1-.4-.1h-.5v.8zM12.9 5.5V3.4h.4v2.1h-.4zM15.7 5.5V3.7H15v-.3h1.9v.3h-.7v1.8h-.5zM18.1 5.5l1-2.1h.4l1 2.1h-.4l-.2-.4h-1.2l-.2.4h-.4zm.6-.7h.9l-.2-.5c0-.1-.1-.1-.1-.2s-.1-.2-.1-.2v-.1c-.1.2-.1.4-.2.5l-.3.5zM21.9 5.2l.1-.3c.2.2.4.2.7.2.1 0 .2 0 .3-.1.1-.1.1-.1.1-.2s0-.1-.1-.2l-.1-.1c-.1 0-.1 0-.2-.1-.1 0-.2 0-.2-.1-.1 0-.1 0-.2-.1s-.1-.1-.2-.1c0 0-.1-.1-.1-.2v-.2c0-.2.1-.3.2-.4.2-.1.3-.2.5-.2.3 0 .5.1.8.2l-.1.3c-.2-.1-.4-.2-.6-.2h-.2c-.1 0-.1 0-.2.1l-.1.1c0 .1 0 .1.1.2.1 0 .2.1.3.1.1 0 .2.1.3.1.1 0 .2.1.2.1.1 0 .1.1.2.2 0 .1.1.2.1.3 0 .2-.1.4-.3.5-.2.1-.4.2-.6.2-.2.2-.5.1-.7-.1zM15.7 10.9c-1.4.4-2.4 1.4-2.8 2.8-.4-1.4-1.4-2.4-2.8-2.8 1.4-.4 2.4-1.4 2.8-2.8.4 1.3 1.4 2.4 2.8 2.8z"/><path class="st3" d="M11.6 27V15.7l-4.8-2.5V27c1.7 1.4 3.7 2.2 5.8 2.2v-1.3c-.6.1-1-.4-1-.9zM14.1 15.7V27c0 .6-.4 1-.9 1.1v1.3c2.1-.1 4.1-.8 5.8-2.2V13.4l-4.9 2.3z"/></svg>