<?xml version="1.0" encoding="utf-8"?>
<!-- Generator: Adobe Illustrator 27.2.0, SVG Export Plug-In . SVG Version: 6.00 Build 0)  -->
<svg version="1.1" id="Camada_1" xmlns="http://www.w3.org/2000/svg" xmlns:xlink="http://www.w3.org/1999/xlink" x="0px" y="0px"
	 viewBox="0 0 159.3 36.7" style="enable-background:new 0 0 159.3 36.7;" xml:space="preserve">
<style type="text/css">
	.st0{fill:#E86220;}
	.st1{fill:#ED8453;}
	.st2{fill:#FFFFFF;}
	.st3{fill:#07249B;}
</style>
<g>
	<g>
		<g>
			<path d="M46.5,24.1c-1.3,1.2-3,1.8-4.9,1.8c-1.9,0-3.6-0.6-4.9-1.8c-1.3-1.2-2-2.8-2-4.8V9.5h3.4v9.6c0,1,0.3,1.9,1,2.6
				c0.7,0.7,1.5,1,2.5,1c1,0,1.8-0.3,2.5-1c0.7-0.7,1-1.5,1-2.6V9.5h3.5v9.8C48.5,21.3,47.8,22.9,46.5,24.1z"/>
			<path d="M51.7,25.7V9.5h3.8l4.2,6.4c0.3,0.5,0.7,1.1,1.2,1.8c0.5,0.7,0.8,1.2,1.1,1.7l0.5,0.7V9.5H66v16.1h-3.7l-4-6
				c-0.4-0.6-0.9-1.4-1.4-2.1c-0.5-0.8-0.9-1.4-1.2-1.8L55.2,15v10.7H51.7z"/>
			<path d="M69.5,25.7V9.5H73v16.1H69.5z"/>
			<path d="M76.5,25.7V9.5h3.8l4.2,6.4c0.3,0.5,0.7,1.1,1.2,1.8c0.5,0.7,0.8,1.2,1.1,1.7l0.5,0.7V9.5h3.5v16.1h-3.7l-4-6
				c-0.4-0.6-0.9-1.4-1.4-2.1c-0.5-0.8-0.9-1.4-1.2-1.8L80,15v10.7H76.5z"/>
			<path d="M93.5,17.6c0-2.3,0.8-4.3,2.4-5.9c1.6-1.6,3.7-2.4,6.1-2.4c2.5,0,4.5,0.8,6.1,2.4c1.6,1.6,2.4,3.6,2.4,5.9
				c0,2.3-0.8,4.3-2.4,5.9c-1.6,1.6-3.7,2.4-6.1,2.4c-2.5,0-4.5-0.8-6.1-2.4C94.3,21.9,93.5,19.9,93.5,17.6z M97.1,17.6
				c0,1.4,0.5,2.7,1.4,3.7c0.9,1,2.1,1.5,3.5,1.5c1.4,0,2.6-0.5,3.5-1.5c0.9-1,1.4-2.2,1.4-3.7c0-1.4-0.5-2.6-1.4-3.6
				c-0.9-1-2.1-1.5-3.5-1.5c-1.4,0-2.6,0.5-3.5,1.5C97.6,15,97.1,16.2,97.1,17.6z"/>
			<path d="M113.3,25.7V9.5h6.9c2.3,0,4.1,0.6,5.3,1.8c1.3,1.2,1.9,2.7,1.9,4.5c0,1.1-0.3,2.1-0.8,3c-0.5,0.9-1.3,1.7-2.2,2.2
				l3.4,4.7h-4.3l-2.5-3.7c-0.5,0-1.3,0-2.3,0h-1.9v3.7H113.3z M116.8,19h3.6c1,0,1.9-0.3,2.5-0.9c0.6-0.6,0.9-1.4,0.9-2.3
				c0-0.9-0.3-1.7-0.9-2.3c-0.6-0.6-1.4-0.9-2.5-0.9h-3.6V19z"/>
			<path d="M134.4,25.7V12.5h-5.5v-3h14.5v3h-5.5v13.2H134.4z"/>
			<path d="M145.6,25.7V9.5h12.7v3h-9.2v3.3h8.8v3h-8.8v3.9h9.6v3H145.6z"/>
		</g>
	</g>
	<g>
		<path class="st0" d="M1.2,7.2v19.5c0,0.7,0.2,1.4,0.4,2.1v0C2.4,30.6,5,31.8,7,32.2c4,0.8,5.8,1.4,6.6,2.5
			c0.8-1.1,2.6-1.7,6.6-2.5c2-0.4,4.6-1.6,5.4-3.4v0c0.3-0.7,0.4-1.4,0.4-2.1V7.2c0,0-11.1,0-12.4,0C12.3,7.2,1.2,7.2,1.2,7.2z"/>
		<path class="st0" d="M26.4,0.8v6v0.5v19.4c0,0.8-0.2,1.5-0.5,2.3c-0.4,0.9-1.2,1.8-2.4,2.4c-1,0.6-2.1,1-3.3,1.2
			c-4.1,0.8-5.7,1.4-6.3,2.3l-0.3,0.5l-0.3-0.5c-0.6-0.9-2.2-1.5-6.3-2.3c-1.1-0.2-2.3-0.7-3.3-1.2c-1.2-0.7-2-1.5-2.4-2.4
			c-0.3-0.7-0.5-1.5-0.5-2.3V7.3V6.8v-6h6.9V2h2.4V0.8H17V2h2.4V0.8H26.4 M27.1,0h-0.8h-6.9h-0.8v0.8v0.4h-0.9V0.8V0H17h-6.9H9.3
			v0.8v0.4H8.5V0.8V0H7.7H0.8H0v0.8v6v0.5v19.4c0,0.9,0.2,1.7,0.5,2.6C1,30.3,2,31.3,3.3,32c1,0.6,2.3,1.1,3.5,1.3
			c3.8,0.7,5.3,1.3,5.8,2l0.3,0.5l0.6,0.9l0.6-0.9l0.3-0.5c0.5-0.7,2.1-1.3,5.8-2c1.2-0.2,2.5-0.7,3.5-1.3c1.3-0.8,2.3-1.7,2.7-2.8
			c0.4-0.8,0.5-1.7,0.5-2.6V7.3V6.8v-6V0L27.1,0z"/>
		<polygon class="st1" points="19.8,1.2 19.8,2.4 16.6,2.4 16.6,1.2 10.5,1.2 10.5,2.4 7.3,2.4 7.3,1.2 1.2,1.2 1.2,2.4 1.2,6.9 
			26,6.9 26,2.4 26,1.2 		"/>
		<g>
			<path class="st2" d="M3.2,5.8L2.3,3.6h0.4l0.5,1.3l0.2,0.5C3.5,5.1,3.5,5,3.6,4.8l0.5-1.3h0.4L3.6,5.8H3.2z"/>
			<path class="st2" d="M6.3,5.8V3.6H8v0.3H6.7v0.5h1.3v0.3H6.7v0.7H8v0.3H6.3z"/>
			<path class="st2" d="M9.9,5.8V3.6h0.9c0.3,0,0.6,0.1,0.7,0.2c0.2,0.2,0.3,0.4,0.3,0.6c0,0.2,0,0.3-0.1,0.4
				c-0.1,0.1-0.2,0.2-0.3,0.3l0.5,0.7h-0.5l-0.4-0.5c-0.1,0-0.2,0-0.4,0h-0.3v0.5H9.9z M10.3,4.9h0.6c0.2,0,0.3,0,0.4-0.1
				c0.1-0.1,0.1-0.2,0.1-0.4c0-0.1,0-0.3-0.1-0.4C11.1,4,11,3.9,10.8,3.9h-0.6V4.9z"/>
			<path class="st2" d="M13.6,5.8V3.6H14v2.2H13.6z"/>
			<path class="st2" d="M16.6,5.8V3.9h-0.8V3.6h2v0.3H17v1.9H16.6z"/>
			<path class="st2" d="M19,5.8l1-2.2h0.4l1,2.2H21l-0.2-0.4h-1.2l-0.2,0.4H19z M19.8,5.1h0.9l-0.3-0.6c0-0.1-0.1-0.1-0.1-0.2
				c0-0.1-0.1-0.2-0.1-0.2l0-0.1c-0.1,0.2-0.1,0.4-0.2,0.5L19.8,5.1z"/>
			<path class="st2" d="M23.1,5.5l0.2-0.3c0.2,0.2,0.5,0.3,0.7,0.3c0.1,0,0.2,0,0.3-0.1c0.1-0.1,0.1-0.1,0.1-0.2
				c0-0.1,0-0.1-0.1-0.2c-0.1,0-0.1-0.1-0.2-0.1c-0.1,0-0.1,0-0.2-0.1s-0.2-0.1-0.2-0.1c-0.1,0-0.1,0-0.2-0.1
				c-0.1,0-0.1-0.1-0.2-0.1c0,0-0.1-0.1-0.1-0.2c0-0.1-0.1-0.1-0.1-0.2c0-0.2,0.1-0.4,0.2-0.5c0.2-0.1,0.3-0.2,0.6-0.2
				c0.3,0,0.6,0.1,0.8,0.2l-0.2,0.3C24.4,4,24.2,3.9,24,3.9c-0.1,0-0.1,0-0.2,0c-0.1,0-0.1,0-0.2,0.1c0,0-0.1,0.1-0.1,0.2
				c0,0.1,0,0.1,0.1,0.2c0.1,0,0.2,0.1,0.4,0.1c0.1,0,0.2,0.1,0.3,0.1c0.1,0,0.2,0.1,0.3,0.1c0.1,0.1,0.2,0.1,0.2,0.2
				c0,0.1,0.1,0.2,0.1,0.3c0,0.2-0.1,0.4-0.3,0.5c-0.2,0.1-0.4,0.2-0.6,0.2C23.6,5.8,23.3,5.7,23.1,5.5z"/>
		</g>
		<g>
			<path class="st2" d="M16.5,11.5L16.5,11.5L16.5,11.5c-1.4,0.4-2.6,1.5-3,3l0,0v0c-0.4-1.4-1.5-2.6-3-3l0,0l0,0
				c1.4-0.4,2.6-1.5,3-3v0l0,0C14,9.9,15.1,11.1,16.5,11.5z"/>
		</g>
		<g>
			<path class="st3" d="M12.2,28.4V16.6L7.1,14c0,0,0,9.7,0,14.6c1.8,1.5,3.9,2.3,6.1,2.4c0-0.4,0-0.8,0-1.3
				C12.6,29.5,12.2,29,12.2,28.4z"/>
			<path class="st3" d="M14.9,16.6v11.9c0,0.6-0.4,1.1-1,1.2c0,0.5,0,0.9,0,1.3c2.2-0.1,4.3-0.9,6.1-2.4c0-4.9,0-14.6,0-14.6
				L14.9,16.6z"/>
		</g>
	</g>
</g>
</svg>
