<svg version="1.1" id="Camada_1" xmlns="http://www.w3.org/2000/svg" x="0" y="0" viewBox="0 0 159.3 36.7" style="enable-background:new 0 0 159.3 36.7" xml:space="preserve"><style>.st0{fill:#e86220}.st2{fill:#fff}.st3{fill:#07249b}</style><path d="M46.5 24.1c-1.3 1.2-3 1.8-4.9 1.8-1.9 0-3.6-.6-4.9-1.8-1.3-1.2-2-2.8-2-4.8V9.5h3.4v9.6c0 1 .3 1.9 1 2.6.7.7 1.5 1 2.5 1s1.8-.3 2.5-1 1-1.5 1-2.6V9.5h3.5v9.8c-.1 2-.8 3.6-2.1 4.8zM51.7 25.7V9.5h3.8l4.2 6.4c.3.5.7 1.1 1.2 1.8s.8 1.2 1.1 1.7l.5.7V9.5H66v16.1h-3.7l-4-6c-.4-.6-.9-1.4-1.4-2.1-.5-.8-.9-1.4-1.2-1.8l-.5-.7v10.7h-3.5zM69.5 25.7V9.5H73v16.1h-3.5zM76.5 25.7V9.5h3.8l4.2 6.4c.3.5.7 1.1 1.2 1.8s.8 1.2 1.1 1.7l.5.7V9.5h3.5v16.1h-3.7l-4-6c-.4-.6-.9-1.4-1.4-2.1-.5-.8-.9-1.4-1.2-1.8L80 15v10.7h-3.5zM93.5 17.6c0-2.3.8-4.3 2.4-5.9 1.6-1.6 3.7-2.4 6.1-2.4 2.5 0 4.5.8 6.1 2.4 1.6 1.6 2.4 3.6 2.4 5.9 0 2.3-.8 4.3-2.4 5.9-1.6 1.6-3.7 2.4-6.1 2.4-2.5 0-4.5-.8-6.1-2.4-1.6-1.6-2.4-3.6-2.4-5.9zm3.6 0c0 1.4.5 2.7 1.4 3.7.9 1 2.1 1.5 3.5 1.5s2.6-.5 3.5-1.5c.9-1 1.4-2.2 1.4-3.7 0-1.4-.5-2.6-1.4-3.6-.9-1-2.1-1.5-3.5-1.5s-2.6.5-3.5 1.5c-.9 1-1.4 2.2-1.4 3.6zM113.3 25.7V9.5h6.9c2.3 0 4.1.6 5.3 1.8 1.3 1.2 1.9 2.7 1.9 4.5 0 1.1-.3 2.1-.8 3-.5.9-1.3 1.7-2.2 2.2l3.4 4.7h-4.3L121 22H116.8v3.7h-3.5zm3.5-6.7h3.6c1 0 1.9-.3 2.5-.9.6-.6.9-1.4.9-2.3 0-.9-.3-1.7-.9-2.3-.6-.6-1.4-.9-2.5-.9h-3.6V19zM134.4 25.7V12.5h-5.5v-3h14.5v3h-5.5v13.2h-3.5zM145.6 25.7V9.5h12.7v3h-9.2v3.3h8.8v3h-8.8v3.9h9.6v3h-13.1z"/><path class="st0" d="M1.2 7.2v19.5c0 .7.2 1.4.4 2.1.8 1.8 3.4 3 5.4 3.4 4 .8 5.8 1.4 6.6 2.5.8-1.1 2.6-1.7 6.6-2.5 2-.4 4.6-1.6 5.4-3.4.3-.7.4-1.4.4-2.1V7.2H1.2z"/><path class="st0" d="M26.4.8v25.9c0 .8-.2 1.5-.5 2.3-.4.9-1.2 1.8-2.4 2.4-1 .6-2.1 1-3.3 1.2-4.1.8-5.7 1.4-6.3 2.3l-.3.5-.3-.5c-.6-.9-2.2-1.5-6.3-2.3-1.1-.2-2.3-.7-3.3-1.2-1.2-.7-2-1.5-2.4-2.4-.3-.7-.5-1.5-.5-2.3V.8h6.9V2h2.4V.8H17V2h2.4V.8h7m.7-.8h-8.5V1.2h-.9V0H9.3V1.2h-.8V0H0v26.7c0 .9.2 1.7.5 2.6.5 1 1.5 2 2.8 2.7 1 .6 2.3 1.1 3.5 1.3 3.8.7 5.3 1.3 5.8 2l.3.5.6.9.6-.9.3-.5c.5-.7 2.1-1.3 5.8-2 1.2-.2 2.5-.7 3.5-1.3 1.3-.8 2.3-1.7 2.7-2.8.4-.8.5-1.7.5-2.6V0h.2z"/><path style="fill:#ed8453" d="M19.8 1.2v1.2h-3.2V1.2h-6.1v1.2H7.3V1.2H1.2v5.7H26V1.2z"/><path class="st2" d="m3.2 5.8-.9-2.2h.4l.5 1.3.2.5c.1-.3.1-.4.2-.6l.5-1.3h.4l-.9 2.3h-.4zM6.3 5.8V3.6H8v.3H6.7v.5H8v.3H6.7v.7H8v.3H6.3zM9.9 5.8V3.6h.9c.3 0 .6.1.7.2.2.2.3.4.3.6 0 .2 0 .3-.1.4l-.3.3.5.7h-.5l-.4-.5h-.7v.5h-.4zm.4-.9h.6c.2 0 .3 0 .4-.1.1-.1.1-.2.1-.4 0-.1 0-.3-.1-.4-.2 0-.3-.1-.5-.1h-.6v1zM13.6 5.8V3.6h.4v2.2h-.4zM16.6 5.8V3.9h-.8v-.3h2v.3H17v1.9h-.4zM19 5.8l1-2.2h.4l1 2.2H21l-.2-.4h-1.2l-.2.4H19zm.8-.7h.9l-.3-.6c0-.1-.1-.1-.1-.2s-.1-.2-.1-.2V4c-.1.2-.1.4-.2.5l-.2.6zM23.1 5.5l.2-.3c.2.2.5.3.7.3.1 0 .2 0 .3-.1.1-.1.1-.1.1-.2s0-.1-.1-.2c-.1 0-.1-.1-.2-.1s-.1 0-.2-.1-.2-.1-.2-.1c-.1 0-.1 0-.2-.1-.1 0-.1-.1-.2-.1 0 0-.1-.1-.1-.2s-.1-.1-.1-.2c0-.2.1-.4.2-.5.2-.1.3-.2.6-.2s.6.1.8.2l-.2.3c-.1.1-.3 0-.5 0h-.2c-.1 0-.1 0-.2.1 0 0-.1.1-.1.2s0 .1.1.2c.1 0 .2.1.4.1.1 0 .2.1.3.1.1 0 .2.1.3.1.1.1.2.1.2.2s.1.2.1.3c0 .2-.1.4-.3.5-.2.1-.4.2-.6.2-.4-.1-.7-.2-.9-.4zM16.5 11.5c-1.4.4-2.6 1.5-3 3-.4-1.4-1.5-2.6-3-3 1.4-.4 2.6-1.5 3-3 .5 1.4 1.6 2.6 3 3z"/><path class="st3" d="M12.2 28.4V16.6L7.1 14v14.6c1.8 1.5 3.9 2.3 6.1 2.4v-1.3c-.6-.2-1-.7-1-1.3zM14.9 16.6v11.9c0 .6-.4 1.1-1 1.2V31c2.2-.1 4.3-.9 6.1-2.4V14l-5.1 2.6z"/></svg>