<?xml version="1.0" encoding="utf-8"?>
<!-- Generator: Adobe Illustrator 27.2.0, SVG Export Plug-In . SVG Version: 6.00 Build 0)  -->
<svg version="1.1" id="Camada_1" xmlns="http://www.w3.org/2000/svg" xmlns:xlink="http://www.w3.org/1999/xlink" x="0px" y="0px"
	 viewBox="0 0 152 36.7" style="enable-background:new 0 0 152 36.7;" xml:space="preserve">
<style type="text/css">
	.st0{fill:#FFFFFF;}
	.st1{fill:#E86220;}
	.st2{fill:#ED8453;}
	.st3{fill:#07249B;}
</style>
<g>
	<g>
		<g>
			<path class="st0" d="M44.1,22.8c-1.3,1.2-2.8,1.7-4.7,1.7c-1.8,0-3.4-0.6-4.7-1.7c-1.3-1.2-1.9-2.7-1.9-4.5V9h3.3v9.1
				c0,1,0.3,1.8,1,2.4s1.4,1,2.4,1c0.9,0,1.7-0.3,2.3-1c0.6-0.6,0.9-1.5,0.9-2.4V9H46v9.3C46,20.2,45.3,21.7,44.1,22.8z"/>
			<path class="st0" d="M49,24.3V9h3.6l4,6c0.3,0.5,0.7,1.1,1.1,1.7c0.4,0.7,0.8,1.2,1.1,1.6l0.4,0.7V9h3.3v15.3h-3.5l-3.8-5.7
				c-0.4-0.6-0.9-1.3-1.4-2c-0.5-0.7-0.9-1.3-1.2-1.7l-0.4-0.6v10.1H49z"/>
			<path class="st0" d="M65.9,24.3V9h3.3v15.3H65.9z"/>
			<path class="st0" d="M72.5,24.3V9h3.6l4,6c0.3,0.5,0.7,1.1,1.1,1.7c0.4,0.7,0.8,1.2,1.1,1.6l0.4,0.7V9h3.3v15.3h-3.5l-3.8-5.7
				c-0.4-0.6-0.9-1.3-1.4-2c-0.5-0.7-0.9-1.3-1.2-1.7l-0.4-0.6v10.1H72.5z"/>
			<path class="st0" d="M88.7,16.7c0-2.2,0.8-4.1,2.3-5.6c1.5-1.5,3.5-2.3,5.8-2.3c2.3,0,4.3,0.8,5.8,2.3c1.5,1.5,2.3,3.4,2.3,5.6
				c0,2.2-0.8,4.1-2.3,5.6c-1.5,1.5-3.5,2.3-5.8,2.3c-2.3,0-4.3-0.8-5.8-2.3C89.4,20.8,88.7,18.9,88.7,16.7z M92.1,16.7
				c0,1.4,0.4,2.5,1.3,3.5c0.9,1,2,1.4,3.3,1.4c1.3,0,2.4-0.5,3.3-1.4c0.9-1,1.3-2.1,1.3-3.5c0-1.3-0.4-2.5-1.3-3.5
				c-0.9-1-2-1.4-3.3-1.4c-1.3,0-2.5,0.5-3.3,1.4C92.6,14.2,92.1,15.4,92.1,16.7z"/>
			<path class="st0" d="M107.5,24.3V9h6.5c2.2,0,3.9,0.6,5.1,1.7c1.2,1.1,1.8,2.5,1.8,4.2c0,1-0.3,2-0.8,2.9
				c-0.5,0.9-1.2,1.6-2.1,2.1l3.2,4.4h-4l-2.4-3.5c-0.5,0-1.3,0-2.2,0h-1.8v3.5H107.5z M110.8,18h3.4c1,0,1.8-0.3,2.4-0.9
				c0.6-0.6,0.9-1.3,0.9-2.2c0-0.9-0.3-1.6-0.9-2.2c-0.6-0.6-1.4-0.9-2.4-0.9h-3.4V18z"/>
			<path class="st0" d="M127.4,24.3V11.9h-5.2V9h13.7v2.8h-5.2v12.5H127.4z"/>
			<path class="st0" d="M138.1,24.3V9h12.1v2.8h-8.8V15h8.3v2.8h-8.3v3.7h9.1v2.8H138.1z"/>
		</g>
	</g>
	<g>
		<path class="st1" d="M1.1,6.8v18.5c0,0.7,0.1,1.4,0.4,2v0c0.8,1.7,3.2,2.9,5.1,3.3c3.8,0.7,5.5,1.3,6.2,2.3
			c0.7-1.1,2.5-1.6,6.2-2.3c1.9-0.4,4.3-1.5,5.1-3.3v0c0.3-0.6,0.4-1.3,0.4-2V6.8c0,0-10.6,0-11.8,0C11.7,6.8,1.1,6.8,1.1,6.8z"/>
		<path class="st0" d="M25,0.7v5.7v0.5v18.4c0,0.7-0.2,1.5-0.5,2.1c-0.4,0.9-1.2,1.7-2.3,2.3c-0.9,0.5-2,1-3.1,1.2
			c-3.9,0.7-5.4,1.3-6,2.2l-0.3,0.4l-0.3-0.4c-0.6-0.9-2.1-1.4-6-2.2c-1-0.2-2.2-0.6-3.1-1.2c-1.1-0.7-1.9-1.5-2.3-2.3
			c-0.3-0.7-0.5-1.4-0.5-2.1V6.9V6.4V0.7h6.6v1.1h2.3V0.7h6.6v1.1h2.3V0.7H25 M25.7,0H25h-6.6h-0.7v0.7v0.4h-0.8V0.7V0h-0.7H9.6H8.9
			v0.7v0.4H8V0.7V0H7.3H0.7H0v0.7v5.7v0.5v18.4c0,0.8,0.2,1.7,0.5,2.4c0.4,1,1.3,1.9,2.6,2.7c1,0.6,2.2,1,3.3,1.2
			c3.6,0.7,5.1,1.2,5.5,1.9l0.3,0.4l0.6,0.9l0.6-0.9l0.3-0.4c0.5-0.7,2-1.2,5.5-1.9c1.1-0.2,2.3-0.7,3.3-1.2
			c1.3-0.7,2.1-1.6,2.6-2.7c0.3-0.8,0.5-1.6,0.5-2.4V6.9V6.4V0.7V0L25.7,0z"/>
		<polygon class="st2" points="18.8,1.1 18.8,2.2 15.8,2.2 15.8,1.1 10,1.1 10,2.2 6.9,2.2 6.9,1.1 1.1,1.1 1.1,2.2 1.1,6.5 
			24.6,6.5 24.6,2.2 24.6,1.1 		"/>
		<g>
			<path class="st0" d="M3,5.5L2.2,3.4h0.4l0.5,1.2l0.2,0.5c0.1-0.2,0.1-0.4,0.2-0.5l0.5-1.2h0.4L3.4,5.5H3z"/>
			<path class="st0" d="M5.9,5.5V3.4h1.6v0.3H6.3v0.5h1.2v0.3H6.3v0.6h1.3v0.3H5.9z"/>
			<path class="st0" d="M9.3,5.5V3.4h0.9c0.3,0,0.5,0.1,0.7,0.2c0.2,0.2,0.2,0.3,0.2,0.6c0,0.1,0,0.3-0.1,0.4
				c-0.1,0.1-0.2,0.2-0.3,0.3l0.5,0.6h-0.5L10.4,5c-0.1,0-0.2,0-0.3,0H9.7v0.5H9.3z M9.7,4.7h0.5c0.2,0,0.3,0,0.4-0.1
				c0.1-0.1,0.1-0.2,0.1-0.3c0-0.1,0-0.3-0.1-0.3c-0.1-0.1-0.2-0.1-0.4-0.1H9.7V4.7z"/>
			<path class="st0" d="M12.9,5.5V3.4h0.4v2.1H12.9z"/>
			<path class="st0" d="M15.7,5.5V3.7H15V3.4h1.9v0.3h-0.7v1.8H15.7z"/>
			<path class="st0" d="M18.1,5.5l1-2.1h0.4l1,2.1h-0.4l-0.2-0.4h-1.2l-0.2,0.4H18.1z M18.7,4.8h0.9l-0.2-0.5c0-0.1-0.1-0.1-0.1-0.2
				c0-0.1-0.1-0.2-0.1-0.2l0-0.1C19.1,4,19.1,4.2,19,4.3L18.7,4.8z"/>
			<path class="st0" d="M21.9,5.2L22,4.9c0.2,0.2,0.4,0.2,0.7,0.2c0.1,0,0.2,0,0.3-0.1c0.1-0.1,0.1-0.1,0.1-0.2c0-0.1,0-0.1-0.1-0.2
				c0,0-0.1-0.1-0.1-0.1c-0.1,0-0.1,0-0.2-0.1c-0.1,0-0.2,0-0.2-0.1c-0.1,0-0.1,0-0.2-0.1s-0.1-0.1-0.2-0.1c0,0-0.1-0.1-0.1-0.2
				c0-0.1,0-0.1,0-0.2c0-0.2,0.1-0.3,0.2-0.4c0.2-0.1,0.3-0.2,0.5-0.2c0.3,0,0.5,0.1,0.8,0.2l-0.1,0.3c-0.2-0.1-0.4-0.2-0.6-0.2
				c-0.1,0-0.1,0-0.2,0c-0.1,0-0.1,0-0.2,0.1c0,0-0.1,0.1-0.1,0.1c0,0.1,0,0.1,0.1,0.2c0.1,0,0.2,0.1,0.3,0.1c0.1,0,0.2,0.1,0.3,0.1
				c0.1,0,0.2,0.1,0.2,0.1c0.1,0,0.1,0.1,0.2,0.2c0,0.1,0.1,0.2,0.1,0.3c0,0.2-0.1,0.4-0.3,0.5c-0.2,0.1-0.4,0.2-0.6,0.2
				C22.4,5.5,22.1,5.4,21.9,5.2z"/>
		</g>
		<g>
			<path class="st0" d="M15.7,10.9L15.7,10.9L15.7,10.9c-1.4,0.4-2.4,1.4-2.8,2.8l0,0l0,0c-0.4-1.4-1.4-2.4-2.8-2.8l0,0l0,0
				c1.4-0.4,2.4-1.4,2.8-2.8l0,0l0,0C13.3,9.4,14.3,10.5,15.7,10.9z"/>
		</g>
		<g>
			<path class="st3" d="M11.6,27V15.7l-4.8-2.5c0,0,0,9.2,0,13.8c1.7,1.4,3.7,2.2,5.8,2.2c0-0.4,0-0.8,0-1.3
				C12,28,11.6,27.5,11.6,27z"/>
			<path class="st3" d="M14.1,15.7V27c0,0.6-0.4,1-0.9,1.1c0,0.5,0,0.9,0,1.3c2.1-0.1,4.1-0.8,5.8-2.2c0-4.6,0-13.8,0-13.8
				L14.1,15.7z"/>
		</g>
	</g>
</g>
</svg>
