<?xml version="1.0" encoding="utf-8"?>
<!-- Generator: Adobe Illustrator 26.1.0, SVG Export Plug-In . SVG Version: 6.00 Build 0)  -->
<svg version="1.1" id="Modo_de_isolamento" xmlns="http://www.w3.org/2000/svg" xmlns:xlink="http://www.w3.org/1999/xlink" x="0px"
	 y="0px" viewBox="0 0 283.4 613.7" style="enable-background:new 0 0 283.4 613.7;" xml:space="preserve">
<style type="text/css">
	.st0{fill:#F0DA00;}
</style>
<g>
	<path class="st0" d="M108.6,166.2c15.4,15.4,40.3,15.4,55.6,0.1l90.3-90.3c15.3-15.3,15.3-40.2-0.1-55.6
		C239,5.1,214.1,5,198.7,20.3l-44.4,44.4c-10,10-26.3,10-36.3,0L73.4,20.1C58,4.7,33.1,4.6,17.8,20C2.5,35.3,2.5,60.2,17.9,75.6
		L108.6,166.2z"/>
	<path class="st0" d="M108.6,305.2c15.4,15.4,40.3,15.4,55.6,0.1l90.3-90.3c15.3-15.3,15.3-40.2-0.1-55.6
		c-15.4-15.4-40.3-15.4-55.6-0.1l-44.4,44.4c-10,10-26.3,10-36.3,0l-44.6-44.6C58,143.7,33.1,143.6,17.8,159
		c-15.3,15.3-15.3,40.2,0.1,55.6L108.6,305.2z"/>
	<path class="st0" d="M108.6,449.4c15.4,15.4,40.3,15.4,55.6,0.1l90.3-90.3c15.3-15.3,15.3-40.2-0.1-55.6
		c-15.4-15.4-40.3-15.4-55.6-0.1l-44.4,44.4c-10,10-26.3,10-36.3,0l-44.6-44.6c-15.4-15.4-40.3-15.4-55.6-0.1
		c-15.3,15.3-15.3,40.2,0.1,55.6L108.6,449.4z"/>
	<path class="st0" d="M108.6,588.4c15.4,15.4,40.3,15.4,55.6,0.1l90.3-90.3c15.3-15.3,15.3-40.2-0.1-55.6
		c-15.4-15.4-40.3-15.4-55.6-0.1l-44.4,44.4c-10,10-26.3,10-36.3,0l-44.6-44.6c-15.4-15.4-40.3-15.4-55.6-0.1
		c-15.3,15.3-15.3,40.2,0.1,55.6L108.6,588.4z"/>
	<circle class="st0" cx="136.2" cy="35.3" r="26.4"/>
</g>
</svg>
