<svg version="1.1" id="Modo_de_isolamento" xmlns="http://www.w3.org/2000/svg" x="0" y="0" viewBox="0 0 283.4 613.7" style="enable-background:new 0 0 283.4 613.7" xml:space="preserve"><style>.st0{fill:#f0da00}</style><path class="st0" d="M108.6 166.2c15.4 15.4 40.3 15.4 55.6.1L254.5 76c15.3-15.3 15.3-40.2-.1-55.6C239 5.1 214.1 5 198.7 20.3l-44.4 44.4c-10 10-26.3 10-36.3 0L73.4 20.1C58 4.7 33.1 4.6 17.8 20c-15.3 15.3-15.3 40.2.1 55.6l90.7 90.6z"/><path class="st0" d="M108.6 305.2c15.4 15.4 40.3 15.4 55.6.1l90.3-90.3c15.3-15.3 15.3-40.2-.1-55.6-15.4-15.4-40.3-15.4-55.6-.1l-44.4 44.4c-10 10-26.3 10-36.3 0l-44.6-44.6c-15.5-15.4-40.4-15.5-55.7-.1-15.3 15.3-15.3 40.2.1 55.6l90.7 90.6z"/><path class="st0" d="M108.6 449.4c15.4 15.4 40.3 15.4 55.6.1l90.3-90.3c15.3-15.3 15.3-40.2-.1-55.6-15.4-15.4-40.3-15.4-55.6-.1l-44.4 44.4c-10 10-26.3 10-36.3 0l-44.6-44.6c-15.4-15.4-40.3-15.4-55.6-.1-15.3 15.3-15.3 40.2.1 55.6l90.6 90.6z"/><path class="st0" d="M108.6 588.4c15.4 15.4 40.3 15.4 55.6.1l90.3-90.3c15.3-15.3 15.3-40.2-.1-55.6-15.4-15.4-40.3-15.4-55.6-.1l-44.4 44.4c-10 10-26.3 10-36.3 0l-44.6-44.6c-15.4-15.4-40.3-15.4-55.6-.1-15.3 15.3-15.3 40.2.1 55.6l90.6 90.6z"/><circle class="st0" cx="136.2" cy="35.3" r="26.4"/></svg>