<svg xmlns="http://www.w3.org/2000/svg" width="650.6" height="152.275" viewBox="0 0 650.6 152.275">
  <g id="Grupo_183" data-name="Grupo 183" transform="translate(20.287 100.104)">
    <path id="Caminho_618" data-name="Caminho 618" d="M45.545-100.1h15.3l18.5,63.012H63.118l-2.134-9H44.834l-2.277,9H26.835ZM57.857-59.6,53.3-79.011H53.16L48.251-59.6Z" transform="translate(125.648 0)" fill="#fff"/>
    <path id="Caminho_619" data-name="Caminho 619" d="M42.588-100.1H73.28a23.717,23.717,0,0,1,9.991,1.951A18.7,18.7,0,0,1,90.1-93.035a21.268,21.268,0,0,1,3.787,6.853,23.137,23.137,0,0,1,1.21,7.241s.007,11.355-.04,12.191A24.153,24.153,0,0,1,88.767-52c-6.31,6.013-15.645,5.551-16.987,5.6H59.025v14.567H42.588ZM59.025-61.152h7.868a27.254,27.254,0,0,0,3.311-.176,7.311,7.311,0,0,0,2.622-.821,4.589,4.589,0,0,0,1.892-2,7.071,7.071,0,0,0,.675-2.944c0-.088.018-10.831.015-11.153a7.57,7.57,0,0,0-.583-3.256,3.783,3.783,0,0,0-1.635-1.819A6.838,6.838,0,0,0,70.9-84.06a22.925,22.925,0,0,0-3.058-.172H59.025Z" transform="translate(167.653 0)" fill="#fff"/>
    <path id="Caminho_620" data-name="Caminho 620" d="M74.095-98.672h57.761V-82.5H92.376v15.333h23.729v15.751H92.376v4.832h65.736V-30.41H74.095Z" transform="translate(251.665 3.818)" fill="#fff"/>
    <path id="Caminho_621" data-name="Caminho 621" d="M91.281-98.672h15.755l21,36.756V-88.171l15.755.1V-30.41H128.037l-21-42.006v21H91.281Z" transform="translate(297.49 3.818)" fill="#fff"/>
    <path id="Caminho_622" data-name="Caminho 622" d="M107.035-100.1h38.494A23.751,23.751,0,0,1,156.8-97.6a20.852,20.852,0,0,1,7.652,6.864,30.289,30.289,0,0,1,4.264,9.793,48.523,48.523,0,0,1,1.335,11.568s0,12.327-.011,12.778c-.257,14.039-6.955,21.786-6.955,21.786-7.623,8.814-19.121,8.264-20.825,8.154h-35.22Zm16.748,57.651h17.559a11.572,11.572,0,0,0,6.127-1.467,9.966,9.966,0,0,0,3.655-3.8,16.2,16.2,0,0,0,1.712-4.92,28.471,28.471,0,0,0,.429-3.835c.011-.286.033-12.58.029-13.166a28.055,28.055,0,0,0-.418-4.359,15.08,15.08,0,0,0-1.753-4.748,10.75,10.75,0,0,0-4.033-3.967,12.6,12.6,0,0,0-6.134-1.58c-.348-.018-16.389-.018-16.587-.018h-.587Z" transform="translate(339.497 0.016)" fill="#fff"/>
    <path id="Caminho_623" data-name="Caminho 623" d="M131.381-49.98l47.26-31.506h-47.26V-97.222c21.005-.007,52.511-.011,73.512-.018v15.755L162.887-49.98H225.9v15.751H131.381Z" transform="translate(404.415 7.637)" fill="#fff"/>
    <path id="Caminho_624" data-name="Caminho 624" d="M79.342-31.75q0,23.638-27.069,23.638c-18.1,0-25.438-10.5-25.438-23.638V-81.489H45.156v41.9c0,2.046.07,7.626.209,8.972a13.661,13.661,0,0,0,1,3.912,6.872,6.872,0,0,0,.686,1.239,7.491,7.491,0,0,0,5.305,3,8.336,8.336,0,0,0,4.913-1.17A6.593,6.593,0,0,0,59.9-26.709a13.012,13.012,0,0,0,.957-3.912c.11-1.346.165-6.926.165-8.972v-41.9H79.342Z" transform="translate(125.648 49.636)" fill="#fff"/>
    <path id="Caminho_625" data-name="Caminho 625" d="M42.588-63.349H58.343l21,31.506V-84.35H95.1V-.337H79.344L58.977-33.694h-.158V10.164H42.588Z" transform="translate(167.653 42.007)" fill="#fff"/>
    <g id="Grupo_179" data-name="Grupo 179" transform="translate(514.793 -89.602)">
      <rect id="Ret창ngulo_145" data-name="Ret창ngulo 145" width="15.753" height="52.509" transform="translate(0 21.004)" fill="#fff"/>
      <rect id="Ret창ngulo_146" data-name="Ret창ngulo 146" width="15.753" height="15.753" fill="#fff"/>
    </g>
    <path id="Caminho_626" data-name="Caminho 626" d="M109.548-31.263c-1.687-7.256-.693-10.229-2.6-13.9a13.635,13.635,0,0,0-5.811-5.6,12.084,12.084,0,0,0,6.416-6.134,20.675,20.675,0,0,0,1.093-2.625,21.034,21.034,0,0,0,.81-3.223c.1-.539.315-17.485.315-19.274q0-8.563-5.4-13.284a19.653,19.653,0,0,0-13.4-4.719H58.342v62.718H74.907v-6.222h9.441a7.191,7.191,0,0,1,4.037,1.016,6.607,6.607,0,0,1,2.339,2.691,12.808,12.808,0,0,1,1.089,3.575c.308,2.2.763,5.43,1.236,9.441H110.8C110.479-27.769,110-29.32,109.548-31.263ZM92.015-63.3a6.671,6.671,0,0,1-.726,3.311,4.763,4.763,0,0,1-1.855,1.9,7.686,7.686,0,0,1-2.42.84,16.884,16.884,0,0,1-2.827.22h-9.28V-85.025h8.312a11.8,11.8,0,0,1,5.877.972,4.565,4.565,0,0,1,.942.576A6,6,0,0,1,92-79.312C92.018-79.07,92.015-63.433,92.015-63.3Z" transform="translate(209.66 0.213)" fill="#fff"/>
    <g id="Grupo_182" data-name="Grupo 182" transform="translate(-20.287 -100.104)">
      <path id="Caminho_627" data-name="Caminho 627" d="M122.242,42.422H41.148A61.614,61.614,0,0,1-20.287-19.01V-100.1H122.242Z" transform="translate(20.287 100.104)" fill="#002b52"/>
      <g id="Grupo_181" data-name="Grupo 181" transform="translate(14.053 15.153)">
        <g id="Grupo_180" data-name="Grupo 180" transform="translate(5.877)">
          <path id="Caminho_628" data-name="Caminho 628" d="M71.567,11.581h0a20.785,20.785,0,0,1-20.719-20.8l0-45.163H5.868a20.785,20.785,0,0,1-20.719-20.8,20.779,20.779,0,0,1,20.715-20.8H71.571a20.533,20.533,0,0,1,14.644,6.09,20.7,20.7,0,0,1,6.064,14.706V-9.216a20.692,20.692,0,0,1-6.064,14.7A20.53,20.53,0,0,1,71.567,11.581Zm-19.674-67,0,46.2A19.736,19.736,0,0,0,71.563,10.536h0A19.5,19.5,0,0,0,85.474,4.754,19.664,19.664,0,0,0,91.238-9.216l0-65.959a19.645,19.645,0,0,0-5.76-13.969,19.5,19.5,0,0,0-13.9-5.782h-.007l-65.7,0h0a19.736,19.736,0,0,0-19.67,19.755A19.741,19.741,0,0,0,5.868-55.42Z" transform="translate(14.851 95.971)" fill="#fff"/>
        </g>
        <path id="Caminho_629" data-name="Caminho 629" d="M89.631-73.8A20.225,20.225,0,0,0,69.44-94.078H3.741A20.238,20.238,0,0,0-16.454-73.8,20.24,20.24,0,0,0,3.741-53.527h32.29a13.21,13.21,0,0,1,13.214,13.21l0,32.474a20.236,20.236,0,0,0,20.2,20.272A20.23,20.23,0,0,0,89.635-7.843Z" transform="translate(16.454 101.019)" fill="#45b2b7"/>
        <circle id="Elipse_1" data-name="Elipse 1" cx="13.563" cy="13.563" r="13.563" transform="translate(34.841 51.248)" fill="#45b2b7"/>
      </g>
    </g>
    <path id="Caminho_630" data-name="Caminho 630" d="M115.285-64.724V-78.851H80.516a21.441,21.441,0,0,0-10.174,2.262,18.793,18.793,0,0,0-6.911,6.2,27.353,27.353,0,0,0-3.85,8.847A43.722,43.722,0,0,0,58.374-51.1s0,11.135.007,11.538c.235,12.682,6.284,19.678,6.284,19.678,6.886,7.96,17.269,7.465,18.809,7.366h31.81V-44.309H100.157V-26.78H84.3a10.464,10.464,0,0,1-5.536-1.327,8.984,8.984,0,0,1-3.3-3.428,14.731,14.731,0,0,1-1.547-4.444,25.873,25.873,0,0,1-.385-3.461C73.52-39.7,73.5-50.8,73.5-51.334a25.522,25.522,0,0,1,.381-3.938,13.507,13.507,0,0,1,1.58-4.286,9.7,9.7,0,0,1,3.644-3.586,11.373,11.373,0,0,1,5.536-1.426c.158-.007,3.916-.15,7.63-.154Z" transform="translate(209.745 56.67)" fill="#fff"/>
  </g>
</svg>
