<svg version="1.1" id="Camada_1" xmlns="http://www.w3.org/2000/svg" x="0" y="0" viewBox="0 0 146.6 50" style="enable-background:new 0 0 146.6 50" xml:space="preserve"><style>.st0{fill:#fff}.st2{fill:#0e6a9a}.st3{fill:#1a5980}.st4{fill:#058bac}.st5{fill:#cddff0}.st6{fill:#116d9a}</style><path class="st0" d="M79.1 32.7c-1.8 1.6-4 2.5-6.6 2.5-2.6 0-4.8-.8-6.6-2.4-1.8-1.6-2.7-3.8-2.7-6.4V13.3h4.6v12.9c0 1.4.4 2.5 1.3 3.4.9.9 2 1.3 3.3 1.3 1.3 0 2.4-.4 3.3-1.3.9-.9 1.3-2 1.3-3.4V13.3h4.6v13.1c.2 2.5-.7 4.7-2.5 6.3zM86.1 34.8V13.3h5.1l5.6 8.5c.5.7 1 1.5 1.6 2.4s1.1 1.7 1.5 2.2l.6.9v-14h4.7v21.6h-4.9l-5.4-8.1c-.6-.9-1.2-1.8-1.9-2.8-.7-1-1.2-1.9-1.6-2.5l-.5-.9v14.3h-4.8zM108.8 24c0-3.1 1.1-5.7 3.2-7.9 2.2-2.2 4.9-3.2 8.2-3.2 2.7 0 5.2.8 7.3 2.4l-2.7 3.2c-1.2-.9-2.7-1.4-4.5-1.4-1.9 0-3.5.7-4.7 2-1.3 1.4-1.9 3-1.9 4.9 0 1.9.6 3.5 1.9 4.9 1.3 1.3 2.8 2 4.7 2 1.9 0 3.5-.7 4.8-2.1v-3.2h-3.4v-3.9h7.9v8.9c-1 1.4-2.3 2.5-3.9 3.3-1.6.8-3.4 1.2-5.4 1.2-3.3 0-6-1.1-8.2-3.2-2.2-2.1-3.3-4.7-3.3-7.9z"/><path d="M18.6 10.1v26c0 1 .2 1.9.6 2.8 1.1 2.5 4.6 4.1 7.2 4.6 5.3 1 7.8 1.8 8.8 3.3 1-1.5 3.5-2.3 8.8-3.3 2.6-.5 6.1-2.1 7.2-4.6.4-.9.6-1.8.6-2.8v-26H18.6z" style="fill:#86b7bc"/><path class="st0" d="M52.2 1.5V36.1c0 1-.2 2.1-.6 3-.5 1.2-1.7 2.3-3.2 3.3-1.3.7-2.9 1.3-4.3 1.6-5.5 1.1-7.6 1.8-8.5 3.1l-.4.6-.4-.6c-.9-1.3-3-2-8.5-3.1-1.5-.3-3.1-.9-4.3-1.6-1.6-.9-2.7-2-3.2-3.3-.4-1-.6-2-.6-3V1.6h9.2v1.6h3.2V1.5h9.2v1.6H43V1.5h9.2m1.1-1H42v1.6h-1.2V.5H29.6v1.6h-1.2V.5H17.2V36.1c0 1.2.2 2.3.7 3.4.6 1.4 1.9 2.7 3.7 3.7 1.4.8 3.1 1.4 4.7 1.7 5 1 7.1 1.7 7.8 2.7l.4.6.8 1.2.8-1.2.4-.6c.7-1 2.8-1.7 7.8-2.7 1.6-.3 3.3-.9 4.7-1.7 1.8-1 3-2.3 3.7-3.7.5-1.1.7-2.2.7-3.4V.5h-.1z"/><path class="st2" d="M43.5 2.1v1.6h-4.2V2.1h-8.2v1.6h-4.3V2.1h-8.2v7.6h33.1V2.1z"/><path class="st0" d="m21.3 8.3-1.2-3h.5l.8 1.7.2.7c.1-.3.2-.5.2-.7l.7-1.7h.5l-1.2 3h-.5zM25.4 8.3v-3h2.3v.5h-1.8v.7h1.7V7h-1.7v.9h1.8v.5h-2.3zM30.2 8.3v-3h1.3c.4 0 .7.1 1 .3.2.2.3.5.3.8 0 .2-.1.4-.2.6-.1.2-.3.3-.5.4l.7.9h-.7l-.5-.7h-.9v.7h-.5zm.5-1.2h.8c.2 0 .4-.1.5-.2s.2-.3.2-.5-.1-.4-.2-.5c-.1-.1-.3-.2-.5-.2h-.8v1.4zM35.2 8.3v-3h.5v3h-.5zM39.2 8.3V5.7h-1.1v-.4h2.6v.5h-1.1v2.5h-.4zM42.5 8.3l1.3-3h.5l1.3 3h-.5l-.2-.5h-1.6l-.3.5h-.5zm.9-1h1.3l-.3-.8c0-.1-.1-.2-.1-.3-.1-.1-.1-.2-.1-.3v-.1c-.1.3-.2.5-.3.7l-.5.8zM47.8 7.9l.2-.4c.3.2.6.4 1 .4.2 0 .3 0 .5-.1.1-.1.2-.2.2-.3 0-.1 0-.2-.1-.2-.1-.1-.1-.1-.2-.1s-.2 0-.3-.1c-.1 0-.2-.1-.3-.1-.1 0-.2-.1-.3-.1-.1-.1-.2-.1-.3-.2-.1-.1-.2-.2-.2-.3 0-.1-.1-.2-.1-.3 0-.3.1-.5.3-.6.2-.1.5-.2.8-.2.4 0 .7.1 1.1.3l-.2.4c-.3-.2-.5-.2-.9-.2h-.2c-.1 0-.1.1-.2.1-.1.1-.1.1-.1.2s0 .2.1.2c.1.1.3.1.5.2s.3.1.4.1c.1 0 .2.1.3.2.2.1.3.1.3.2.1.1.1.2.1.4 0 .3-.1.5-.4.7-.2.2-.5.2-.8.2-.5 0-.9-.1-1.2-.4z"/><path class="st3" d="m39.2 20.3 4.1 2.4 4-2.3-4-2.6z"/><path class="st2" d="M43.3 22.7v4.7l4-2.3v-4.7z"/><path class="st4" d="m31.1 20.2-4 2.4-4.1-2.3 4-2.5z"/><path class="st3" d="M27.1 22.6v4.8L23 25v-4.7zM35.1 27.4l4.1 2.4 4.1-2.4-4.1-2.4z"/><path class="st2" d="M39.2 29.8v4.7l4.1-2.4v-4.7z"/><path class="st5" d="m35.1 27.4 4.1 2.4v4.7l-4.1-2.3zM35.1 36.8v4.7l4.1-2.3v-4.7z"/><path class="st6" d="m31.1 34.4 4 2.4v4.7l-4-2.2zM35.1 17.8v-4.7l4.1 2.4v4.8z"/><path style="fill:#2b7b9a" d="m31.1 20.2 4-2.4v-4.7l-4 2.3z"/><path class="st3" d="m27.1 27.4 4 2.4 4-2.4-4-2.4z"/><path class="st2" d="M31.1 29.8v4.6l4-2.2v-4.8z"/><path class="st5" d="m27.1 27.4 4 2.4v4.6l-4-2.3z"/><path class="st3" d="m31.1 20.2 4 2.4 4.1-2.3-4.1-2.5z"/><path class="st2" d="M35.1 22.6v4.8l4.1-2.4v-4.7z"/><path class="st5" d="m31.1 20.2 4 2.4v4.8l-4-2.4z"/><path style="fill:#1c5a80" d="M43.3 27.4v4.7l4.2 2.6V30z"/><path class="st4" d="M47.5 34.7 43.2 37l-4-2.5 4.1-2.4z"/><path style="fill:#175980" d="M27.1 27.4v4.7l-4.3 2.5v-4.7z"/><path style="fill:#2f4767" d="m22.8 34.6 4.3 2.4 4-2.6-4-2.3z"/></svg>