<?xml version="1.0" encoding="utf-8"?>
<!-- Generator: Adobe Illustrator 26.5.0, SVG Export Plug-In . SVG Version: 6.00 Build 0)  -->
<svg version="1.1" id="Camada_1" xmlns="http://www.w3.org/2000/svg" xmlns:xlink="http://www.w3.org/1999/xlink" x="0px" y="0px"
	 viewBox="0 0 146.6 50" style="enable-background:new 0 0 146.6 50;" xml:space="preserve">
<style type="text/css">
	.st0{fill:#FFFFFF;}
	.st1{fill:#86B7BC;}
	.st2{fill:#0E6A9A;}
	.st3{fill:#1A5980;}
	.st4{fill:#058BAC;}
	.st5{fill:#CDDFF0;}
	.st6{fill:#116D9A;}
	.st7{fill:#2B7B9A;}
	.st8{fill:#1C5A80;}
	.st9{fill:#175980;}
	.st10{fill:#2F4767;}
</style>
<g>
	<g>
		<g>
			<path class="st0" d="M79.1,32.7c-1.8,1.6-4,2.5-6.6,2.5c-2.6,0-4.8-0.8-6.6-2.4c-1.8-1.6-2.7-3.8-2.7-6.4V13.3h4.6v12.9
				c0,1.4,0.4,2.5,1.3,3.4c0.9,0.9,2,1.3,3.3,1.3c1.3,0,2.4-0.4,3.3-1.3c0.9-0.9,1.3-2,1.3-3.4V13.3h4.6v13.1
				C81.8,28.9,80.9,31.1,79.1,32.7z"/>
			<path class="st0" d="M86.1,34.8V13.3h5.1l5.6,8.5c0.5,0.7,1,1.5,1.6,2.4s1.1,1.7,1.5,2.2l0.6,0.9v-14h4.7v21.6h-4.9l-5.4-8.1
				c-0.6-0.9-1.2-1.8-1.9-2.8c-0.7-1-1.2-1.9-1.6-2.5l-0.5-0.9v14.3H86.1z"/>
			<path class="st0" d="M108.8,24c0-3.1,1.1-5.7,3.2-7.9c2.2-2.2,4.9-3.2,8.2-3.2c2.7,0,5.2,0.8,7.3,2.4l-2.7,3.2
				c-1.2-0.9-2.7-1.4-4.5-1.4c-1.9,0-3.5,0.7-4.7,2c-1.3,1.4-1.9,3-1.9,4.9c0,1.9,0.6,3.5,1.9,4.9c1.3,1.3,2.8,2,4.7,2
				c1.9,0,3.5-0.7,4.8-2.1v-3.2h-3.4v-3.9h7.9v8.9c-1,1.4-2.3,2.5-3.9,3.3c-1.6,0.8-3.4,1.2-5.4,1.2c-3.3,0-6-1.1-8.2-3.2
				C109.9,29.8,108.8,27.2,108.8,24z"/>
		</g>
	</g>
	<g>
		<path class="st1" d="M18.6,10.1v26c0,1,0.2,1.9,0.6,2.8v0c1.1,2.5,4.6,4.1,7.2,4.6c5.3,1,7.8,1.8,8.8,3.3c1-1.5,3.5-2.3,8.8-3.3
			c2.6-0.5,6.1-2.1,7.2-4.6v0c0.4-0.9,0.6-1.8,0.6-2.8v-26c0,0-14.9,0-16.6,0C33.4,10.1,18.6,10.1,18.6,10.1z"/>
		<path class="st0" d="M52.2,1.5v8v0.7v25.9c0,1-0.2,2.1-0.6,3c-0.5,1.2-1.7,2.3-3.2,3.3c-1.3,0.7-2.9,1.3-4.3,1.6
			c-5.5,1.1-7.6,1.8-8.5,3.1l-0.4,0.6l-0.4-0.6c-0.9-1.3-3-2-8.5-3.1c-1.5-0.3-3.1-0.9-4.3-1.6c-1.6-0.9-2.7-2-3.2-3.3
			c-0.4-1-0.6-2-0.6-3V10.2V9.6v-8h9.2v1.6h3.2V1.5h9.2v1.6H43V1.5H52.2 M53.3,0.5h-1H43h-1v1v0.6h-1.2V1.5v-1h-1h-9.2h-1v1v0.6
			h-1.2V1.5v-1h-1h-9.2h-1v1v8v0.7v25.9c0,1.2,0.2,2.3,0.7,3.4c0.6,1.4,1.9,2.7,3.7,3.7c1.4,0.8,3.1,1.4,4.7,1.7
			c5,1,7.1,1.7,7.8,2.7l0.4,0.6l0.8,1.2l0.8-1.2l0.4-0.6c0.7-1,2.8-1.7,7.8-2.7c1.6-0.3,3.3-0.9,4.7-1.7c1.8-1,3-2.3,3.7-3.7
			c0.5-1.1,0.7-2.2,0.7-3.4V10.2V9.6v-8V0.5L53.3,0.5z"/>
		<polygon class="st2" points="43.5,2.1 43.5,3.7 39.3,3.7 39.3,2.1 31.1,2.1 31.1,3.7 26.8,3.7 26.8,2.1 18.6,2.1 18.6,3.7 
			18.6,9.7 51.7,9.7 51.7,3.7 51.7,2.1 		"/>
		<g>
			<path class="st0" d="M21.3,8.3l-1.2-3h0.5L21.4,7l0.2,0.7c0.1-0.3,0.2-0.5,0.2-0.7l0.7-1.7h0.5l-1.2,3H21.3z"/>
			<path class="st0" d="M25.4,8.3v-3h2.3v0.5h-1.8v0.7h1.7v0.5h-1.7v0.9h1.8v0.5H25.4z"/>
			<path class="st0" d="M30.2,8.3v-3h1.3c0.4,0,0.7,0.1,1,0.3c0.2,0.2,0.3,0.5,0.3,0.8c0,0.2-0.1,0.4-0.2,0.6
				c-0.1,0.2-0.3,0.3-0.5,0.4l0.7,0.9h-0.7l-0.5-0.7c-0.1,0-0.2,0-0.5,0h-0.4v0.7H30.2z M30.7,7.1h0.8c0.2,0,0.4-0.1,0.5-0.2
				s0.2-0.3,0.2-0.5c0-0.2-0.1-0.4-0.2-0.5c-0.1-0.1-0.3-0.2-0.5-0.2h-0.8V7.1z"/>
			<path class="st0" d="M35.2,8.3v-3h0.5v3H35.2z"/>
			<path class="st0" d="M39.2,8.3V5.7h-1.1V5.3h2.6v0.5h-1.1v2.5H39.2z"/>
			<path class="st0" d="M42.5,8.3l1.3-3h0.5l1.3,3h-0.5l-0.2-0.5h-1.6L43,8.3H42.5z M43.4,7.3h1.3l-0.3-0.8c0-0.1-0.1-0.2-0.1-0.3
				c-0.1-0.1-0.1-0.2-0.1-0.3l0-0.1c-0.1,0.3-0.2,0.5-0.3,0.7L43.4,7.3z"/>
			<path class="st0" d="M47.8,7.9L48,7.5c0.3,0.2,0.6,0.4,1,0.4c0.2,0,0.3,0,0.5-0.1c0.1-0.1,0.2-0.2,0.2-0.3c0-0.1,0-0.2-0.1-0.2
				c-0.1-0.1-0.1-0.1-0.2-0.1c-0.1,0-0.2,0-0.3-0.1c-0.1,0-0.2-0.1-0.3-0.1c-0.1,0-0.2-0.1-0.3-0.1c-0.1-0.1-0.2-0.1-0.3-0.2
				C48.1,6.6,48,6.5,48,6.4c0-0.1-0.1-0.2-0.1-0.3c0-0.3,0.1-0.5,0.3-0.6c0.2-0.1,0.5-0.2,0.8-0.2c0.4,0,0.7,0.1,1.1,0.3L49.9,6
				c-0.3-0.2-0.5-0.2-0.9-0.2c-0.1,0-0.2,0-0.2,0c-0.1,0-0.1,0.1-0.2,0.1c-0.1,0.1-0.1,0.1-0.1,0.2c0,0.1,0,0.2,0.1,0.2
				c0.1,0.1,0.3,0.1,0.5,0.2c0.2,0.1,0.3,0.1,0.4,0.1c0.1,0,0.2,0.1,0.3,0.2C50,6.9,50.1,6.9,50.1,7c0.1,0.1,0.1,0.2,0.1,0.4
				c0,0.3-0.1,0.5-0.4,0.7c-0.2,0.2-0.5,0.2-0.8,0.2C48.5,8.3,48.1,8.2,47.8,7.9z"/>
		</g>
		<g>
			<g>
				<polygon class="st3" points="39.2,20.3 43.3,22.7 47.3,20.4 43.3,17.8 				"/>
				<polygon class="st2" points="43.3,22.7 43.3,27.4 47.3,25.1 47.3,20.4 				"/>
			</g>
			<g>
				<polygon class="st4" points="31.1,20.2 27.1,22.6 23,20.3 27,17.8 				"/>
				<polygon class="st3" points="27.1,22.6 27.1,27.4 23,25 23,20.3 				"/>
			</g>
			<g>
				<polygon class="st3" points="35.1,27.4 39.2,29.8 43.3,27.4 39.2,25 				"/>
				<polygon class="st2" points="39.2,29.8 39.2,34.5 43.3,32.1 43.3,27.4 				"/>
				<polygon class="st5" points="35.1,27.4 39.2,29.8 39.2,34.5 35.1,32.2 				"/>
			</g>
			<g>
				<polygon class="st5" points="35.1,36.8 35.1,41.5 39.2,39.2 39.2,34.5 				"/>
				<polygon class="st6" points="31.1,34.4 35.1,36.8 35.1,41.5 31.1,39.3 				"/>
			</g>
			<g>
				<polygon class="st6" points="35.1,17.8 35.1,13.1 39.2,15.5 39.2,20.3 				"/>
				<polygon class="st7" points="31.1,20.2 35.1,17.8 35.1,13.1 31.1,15.4 				"/>
			</g>
			<g>
				<polygon class="st3" points="27.1,27.4 31.1,29.8 35.1,27.4 31.1,25 				"/>
				<polygon class="st2" points="31.1,29.8 31.1,34.4 35.1,32.2 35.1,27.4 				"/>
				<polygon class="st5" points="27.1,27.4 31.1,29.8 31.1,34.4 27.1,32.1 				"/>
			</g>
			<g>
				<polygon class="st3" points="31.1,20.2 35.1,22.6 39.2,20.3 35.1,17.8 				"/>
				<polygon class="st2" points="35.1,22.6 35.1,27.4 39.2,25 39.2,20.3 				"/>
				<polygon class="st5" points="31.1,20.2 35.1,22.6 35.1,27.4 31.1,25 				"/>
			</g>
			<polygon class="st8" points="43.3,27.4 43.3,32.1 47.5,34.7 47.5,30 			"/>
			<polygon class="st4" points="47.5,34.7 43.2,37 39.2,34.5 43.3,32.1 			"/>
			<polygon class="st9" points="27.1,27.4 27.1,32.1 22.8,34.6 22.8,29.9 			"/>
			<polygon class="st10" points="22.8,34.6 27.1,37 31.1,34.4 27.1,32.1 			"/>
		</g>
	</g>
</g>
</svg>
