<?xml version="1.0" encoding="utf-8"?>
<!-- Generator: Adobe Illustrator 26.5.0, SVG Export Plug-In . SVG Version: 6.00 Build 0)  -->
<svg version="1.1" id="Modo_de_isolamento" xmlns="http://www.w3.org/2000/svg" xmlns:xlink="http://www.w3.org/1999/xlink" x="0px"
	 y="0px" viewBox="0 0 469 137" style="enable-background:new 0 0 469 137;" xml:space="preserve">
<style type="text/css">
	.st0{fill:#FFFFFF;}
	.st1{fill:#04753E;}
	.st2{fill:url(#SVGID_1_);}
</style>
<g>
	<g>
		<g>
			<path class="st0" d="M177.8,89.9c-5,4.6-11.1,6.9-18.4,6.9c-7.3,0-13.4-2.3-18.4-6.8c-5-4.6-7.5-10.5-7.5-17.8V35.6h12.8v36
				c0,3.9,1.3,7.1,3.8,9.6s5.6,3.8,9.3,3.8c3.7,0,6.7-1.3,9.2-3.8c2.5-2.5,3.7-5.7,3.7-9.6v-36h12.9v36.6
				C185.3,79.4,182.8,85.3,177.8,89.9z"/>
			<path class="st0" d="M197.3,95.9V35.6h14.2l15.7,23.7c1.3,1.9,2.8,4.2,4.5,6.7c1.7,2.6,3.1,4.7,4.2,6.3l1.7,2.6V35.6h13v60.3
				h-13.8l-15.1-22.6c-1.6-2.4-3.4-5.1-5.3-8c-1.9-2.9-3.5-5.2-4.6-6.9l-1.5-2.5v39.9H197.3z"/>
			<path class="st0" d="M257.6,95.9l26.1-60.3h13.1l25.4,60.3h-12.5l-4-9.6h-30.6l-4.1,9.6H257.6z M279.6,76.1h21.9l-4.7-11.3
				l-6.4-15.5c-2.1,6.2-4.1,11.4-6,15.6L279.6,76.1z"/>
			<path class="st0" d="M330,95.9V35.6h11.3l9.1,12.9l11.3,16l11.1-16l9.2-12.8h11.3v60.3h-13v-38c-1,2-2.9,5.1-5.8,9.2l-12.8,18.7
				l-13-18.8l-5.5-8.6v37.5H330z"/>
			<path class="st0" d="M400.2,95.9l26.1-60.3h13.1l25.4,60.3h-12.5l-4-9.6h-30.6l-4.1,9.6H400.2z M422.1,76.1H444l-4.7-11.3
				l-6.4-15.5c-2.1,6.2-4.1,11.4-6,15.6L422.1,76.1z"/>
		</g>
	</g>
	<g>
		<path class="st1" d="M8.6,26.7v72.8c0,2.7,0.6,5.4,1.6,7.8v0c3,6.9,12.7,11.4,20.1,12.8c14.9,2.9,21.7,5.1,24.6,9.2
			c2.9-4.2,9.7-6.4,24.6-9.2c7.4-1.4,17.1-5.9,20.1-12.8v0c1.1-2.5,1.6-5.1,1.6-7.8V26.7c0,0-41.6,0-46.3,0
			C50.1,26.7,8.6,26.7,8.6,26.7z"/>
		<path class="st0" d="M102.7,2.9v22.4v1.9v72.3c0,2.9-0.6,5.7-1.8,8.4c-1.5,3.4-4.6,6.6-9,9.1c-3.6,2.1-8,3.7-12.1,4.5
			c-15.3,2.9-21.2,5.1-23.7,8.6l-1.2,1.7l-1.2-1.7c-2.4-3.5-8.4-5.7-23.7-8.6c-4.1-0.8-8.5-2.4-12.1-4.5c-4.4-2.6-7.5-5.7-9-9.1
			c-1.2-2.7-1.8-5.5-1.8-8.4V27.2v-1.9V2.9h25.8v4.5H42V2.9h25.8v4.5h9.1V2.9H102.7 M105.6,0h-2.9H76.9H74v2.9v1.6h-3.3V2.9V0h-2.9
			H42h-2.9v2.9v1.6h-3.3V2.9V0h-2.9H7.1H4.3v2.9v22.4v1.9v72.3c0,3.3,0.7,6.5,2,9.6c1.7,4,5.3,7.6,10.2,10.4c3.9,2.2,8.6,4,13,4.9
			c14,2.7,20,4.7,21.8,7.4l1.2,1.7l2.4,3.4l2.4-3.4l1.2-1.7c1.9-2.7,7.8-4.7,21.8-7.4c4.4-0.9,9.2-2.6,13-4.9
			c4.9-2.9,8.5-6.5,10.2-10.4c1.3-3,2-6.2,2-9.6V27.2v-1.9V2.9V0L105.6,0z"/>
		<polygon class="st1" points="78.3,4.3 78.3,8.8 66.4,8.8 66.4,4.3 43.5,4.3 43.5,8.8 31.5,8.8 31.5,4.3 8.6,4.3 8.6,8.8 8.6,25.7 
			101.3,25.7 101.3,8.8 101.3,4.3 		"/>
		<g>
			<path class="st0" d="M16.3,21.7l-3.5-8.4h1.5l2,4.8L17,20c0.3-0.8,0.5-1.5,0.7-1.9l2-4.8h1.5l-3.5,8.4H16.3z"/>
			<path class="st0" d="M27.6,21.7v-8.3h6.5v1.3h-5v2h4.7v1.3h-4.7v2.5h5.2v1.3H27.6z"/>
			<path class="st0" d="M41,21.7v-8.3h3.5c1.2,0,2.1,0.3,2.7,0.9c0.6,0.6,1,1.4,1,2.3c0,0.6-0.2,1.1-0.5,1.6
				c-0.3,0.5-0.7,0.9-1.3,1.1l1.8,2.4h-1.8l-1.4-2c-0.3,0-0.7,0-1.3,0h-1.2v2H41z M42.5,18.4h2.1c0.6,0,1.1-0.2,1.5-0.5
				s0.6-0.8,0.6-1.4c0-0.5-0.2-1-0.6-1.4c-0.4-0.4-0.9-0.5-1.5-0.5h-2.1V18.4z"/>
			<path class="st0" d="M55.2,21.7v-8.3h1.5v8.3H55.2z"/>
			<path class="st0" d="M66.2,21.7v-7.1h-2.9v-1.3h7.4v1.3h-2.9v7.1H66.2z"/>
			<path class="st0" d="M75.3,21.7l3.8-8.3h1.4l3.8,8.3h-1.5l-0.6-1.4h-4.6l-0.7,1.4H75.3z M78.1,19h3.5l-0.9-2.1
				c-0.1-0.2-0.2-0.5-0.4-0.9c-0.1-0.3-0.3-0.6-0.3-0.8l-0.1-0.3c-0.3,0.8-0.5,1.4-0.8,2L78.1,19z"/>
			<path class="st0" d="M90.3,20.6l0.6-1.1c0.8,0.7,1.7,1,2.8,1c0.5,0,0.9-0.1,1.3-0.3c0.4-0.2,0.5-0.5,0.5-0.9
				c0-0.2-0.1-0.4-0.3-0.6c-0.2-0.2-0.4-0.3-0.6-0.3c-0.2-0.1-0.5-0.1-0.9-0.2s-0.7-0.2-0.9-0.3c-0.2-0.1-0.5-0.2-0.8-0.3
				c-0.3-0.1-0.5-0.3-0.7-0.5c-0.2-0.2-0.3-0.4-0.5-0.6c-0.1-0.3-0.2-0.5-0.2-0.9c0-0.7,0.3-1.3,0.9-1.7c0.6-0.4,1.3-0.6,2.1-0.6
				c1.1,0,2.1,0.3,3,0.9L96,15.2c-0.7-0.5-1.5-0.7-2.4-0.7c-0.2,0-0.4,0-0.6,0.1c-0.2,0.1-0.4,0.2-0.6,0.3c-0.2,0.2-0.3,0.4-0.3,0.6
				c0,0.3,0.1,0.5,0.4,0.7c0.3,0.2,0.7,0.3,1.3,0.5c0.4,0.1,0.8,0.3,1.2,0.4c0.3,0.1,0.7,0.3,1,0.5c0.3,0.2,0.6,0.4,0.7,0.7
				c0.2,0.3,0.3,0.6,0.3,1c0,0.8-0.3,1.4-1,1.9c-0.7,0.4-1.5,0.7-2.4,0.7C92.3,21.8,91.2,21.4,90.3,20.6z"/>
		</g>
		<linearGradient id="SVGID_1_" gradientUnits="userSpaceOnUse" x1="55.6102" y1="23.4691" x2="53.166" y2="186.9189">
			<stop  offset="0" style="stop-color:#FFFFFF"/>
			<stop  offset="1" style="stop-color:#3DB33E"/>
		</linearGradient>
		<path class="st2" d="M90.5,69.1l-7.4-4.3l5.6-3.3c1-0.6,1.3-1.8,0.7-2.8c-0.6-1-1.8-1.3-2.8-0.7L63.5,71.8l-4.4-2.5l4.5-2.6
			c0.2-0.1,0.3-0.2,0.5-0.3l21.2-12.3c1-0.6,1.3-1.8,0.7-2.7c-0.6-1-1.8-1.3-2.7-0.7L64.8,61.3v-5.2l15-8.6c1-0.6,1.3-1.8,0.7-2.7
			c-0.6-1-1.8-1.3-2.7-0.7l-13,7.5v-4.9l7.8-4.3c1-0.5,1.3-1.8,0.8-2.7c-0.5-1-1.8-1.3-2.7-0.8L64.8,42v-4.9c0-1.1-0.9-2-2-2
			c-1.1,0-2,0.9-2,2v26.5l-3.9,2.2V36.2c0-1.1-0.9-2-2-2s-2,0.9-2,2v20.1l-4.2-2.5V37.4c0-1.1-0.9-2-2-2c-1.1,0-2,0.9-2,2v14
			l-4.3-2.5v-8.5c0-1.1-0.9-2-2-2s-2,0.9-2,2v6.2L32,44c-1-0.6-2.2-0.2-2.7,0.7S29,46.9,30,47.5l7.1,4.2c0.2,0.1,0.3,0.2,0.5,0.3
			l7.8,4.6c0.1,0.1,0.3,0.2,0.5,0.3l7,4.1v4.8L26.7,50.6c-1-0.6-2.2-0.2-2.7,0.7c-0.6,1-0.2,2.2,0.7,2.7l18,10.4L38.3,67l-15.1-9.2
			c-0.9-0.6-2.2-0.3-2.8,0.7c-0.6,0.9-0.3,2.2,0.7,2.8l13.3,8.1l-4.9,2.9l-8.1-5.1c-0.9-0.6-2.2-0.3-2.8,0.6
			c-0.6,0.9-0.3,2.2,0.6,2.8l6.3,4l-5.2,3.1c-1,0.6-1.3,1.8-0.7,2.8c0.4,0.6,1,1,1.7,1c0.3,0,0.7-0.1,1-0.3l24.3-14.3l4.3,2.5
			L23.4,85.4c-1,0.6-1.3,1.8-0.7,2.7c0.4,0.6,1,1,1.7,1c0.3,0,0.7-0.1,1-0.3l19.3-11.2v32.8c0,1.1,0.9,2,2,2c1.1,0,2-0.9,2-2V75.3
			l4.2-2.4v42.6c0,1.1,0.9,2,2,2s2-0.9,2-2V72.7l4.5,2.6v35.1c0,1.1,0.9,2,2,2c1.1,0,2-0.9,2-2V77.7l18.7,10.8
			c0.3,0.2,0.7,0.3,1,0.3c0.7,0,1.4-0.4,1.7-1c0.6-1,0.2-2.2-0.7-2.7L67.4,74.1l4.1-2.4l16,9.1c0.3,0.2,0.7,0.3,1,0.3
			c0.7,0,1.4-0.4,1.7-1c0.6-1,0.2-2.2-0.7-2.7l-14-8l3.7-2.2l9.3,5.4c0.3,0.2,0.7,0.3,1,0.3c0.7,0,1.4-0.4,1.7-1
			C91.8,70.8,91.5,69.6,90.5,69.1z"/>
	</g>
</g>
</svg>
