<svg version="1.1" id="Modo_de_isolamento" xmlns="http://www.w3.org/2000/svg" x="0" y="0" viewBox="0 0 1226.6 335.4" style="enable-background:new 0 0 1226.6 335.4" xml:space="preserve"><style>.st2{fill:#239b49}</style><path d="M298.5 298.5H128.6C57.9 298.5 0 240.6 0 169.8V0h298.5v298.5z" style="fill:#30583a"/><path d="M222.7 257c-23.9 0-43.4-19.5-43.4-43.5v-94.6H85.1c-23.9 0-43.4-19.5-43.4-43.6 0-24 19.5-43.5 43.4-43.5h137.6c11.6 0 22.5 4.5 30.7 12.8 8.2 8.2 12.7 19.2 12.7 30.8v138.1c0 11.6-4.5 22.6-12.7 30.8-8.2 8.1-19.1 12.7-30.7 12.7zm-41.2-140.4v96.8c0 22.8 18.5 41.4 41.2 41.4 11 0 21.3-4.3 29.1-12.1 7.8-7.8 12.1-18.2 12.1-29.2V75.4c0-11.1-4.3-21.4-12.1-29.3C244 38.3 233.7 34 222.7 34H85.1c-22.7 0-41.2 18.6-41.2 41.4 0 22.8 18.5 41.4 41.2 41.4l96.4-.2z" style="fill:#fff"/><path class="st2" d="M251.6 88.7c0-23.5-18.9-42.5-42.3-42.5H71.7c-23.4 0-42.3 19-42.3 42.5 0 23.4 18.9 42.5 42.3 42.5h67.6c15.3 0 27.7 12.4 27.7 27.7v68c0 23.5 18.9 42.5 42.3 42.5s42.3-19 42.3-42.5V88.7z"/><circle class="st2" cx="130.8" cy="167.5" r="28.4"/><path d="M384.4 0h26.8l32.5 110.6h-28.5l-3.7-15.8h-28.3l-4 15.8h-27.6L384.4 0zM406 71.1 398 37h-.2l-8.6 34.1H406zM452.9 0h53.9c6.7 0 12.6 1.1 17.5 3.4 5 2.3 9 5.3 12 9s5.2 7.7 6.6 12c1.4 4.3 2.1 8.5 2.1 12.7 0 0 0 19.9-.1 21.4-1 16-11 25.9-11 25.9-11.1 10.5-27.5 9.7-29.8 9.8h-22.4V139h-28.8V0zm28.8 68.4h13.8c2.2 0 4.1-.1 5.8-.3 1.7-.2 3.2-.7 4.6-1.4 1.4-.8 2.5-1.9 3.3-3.5 1-2 1.1-3.9 1.2-5.2V38.4c0-1.5 0-3.6-1-5.7-.7-1.5-1.6-2.5-2.9-3.2-1.2-.7-2.6-1.1-4-1.3-1.4-.2-3.2-.3-5.4-.3h-15.5v40.5zM655.6 9.2H757v28.4h-69.3v26.9h41.6v27.6h-41.6v8.5H803V129H655.6V9.2zm110.6 0h27.6l36.9 64.5V27.6c9.2.1 18.4.1 27.6.2V129h-27.6c-12.3-24.6-24.6-49.1-36.9-73.7v36.9h-27.6v-83zM867.5 0H935c7.7 0 14.2 1.5 19.8 4.4 5.5 2.9 10 6.9 13.4 12 3.4 5.1 5.9 10.8 7.5 17.2 1.6 6.4 2.3 13.1 2.3 20.3v22.4c-.5 24.6-12.2 38.2-12.2 38.2-13.4 15.5-33.5 14.5-36.5 14.3h-61.8V0zm29.4 101.2h30.8c4.4 0 7.9-.9 10.8-2.6 2.8-1.7 4.9-3.9 6.4-6.7s2.5-5.6 3-8.6c.1-.6.6-3.1.7-6.7 0-.5.1-22.1.1-23.1 0-1.2-.1-4.3-.7-7.6-.5-2.8-1.5-5.6-3.1-8.3-1.6-2.8-3.9-5.1-7.1-7-4.3-2.5-8.6-2.7-10.8-2.8h-30.1v73.4zm127.3.2c27.6-18.4 55.3-36.9 82.9-55.3h-82.9V18.5h129v27.6c-24.6 18.4-49.1 36.9-73.7 55.3h110.6V129h-165.9v-27.6zm-36.9 46h27.6V55.3h-27.6v92.1zm0-129V46h27.6V18.4h-27.6zM644.1 121.2c-3-12.7-1.2-18-4.6-24.4-1.4-2.8-4.2-6.5-10.2-9.8 4.9-2 8.7-5.5 11.3-10.8 1-1.9 1.6-3.5 1.9-4.6.3-.9 1-3 1.4-5.7.2-.9.6-30.7.6-33.8 0-10-3.2-17.8-9.5-23.3S620.8.5 611.5.5h-57.2v153.3h29.1V99.7H600c2.9 0 5.3.6 7.1 1.8 1.8 1.2 3.2 2.8 4.1 4.7 1.4 2.9 1.8 5.7 1.9 6.3.5 3.9 1.3 9.5 2.2 16.6h31.2c-.8-1.8-1.6-4.5-2.4-7.9zM613.3 65c0 2.4-.4 4.3-1.3 5.8-.8 1.5-1.9 2.6-3.3 3.3-1.3.7-2.7 1.2-4.2 1.5-1.5.3-3.2.4-5 .4h-16.3V26.8h14.6c5.4-.3 8.7.9 10.3 1.7.8.4 1.3.7 1.7 1 2.9 2.3 3.4 6.2 3.4 7.3.1.5.1 27.9.1 28.2zm-119.2 88.8v78.8c0 23.7-5.8 41.3-17.5 52.7-11.7 11.5-29.6 17.2-53.7 17.2s-42-5.7-53.8-17.2c-11.8-11.5-17.6-29-17.6-52.7V128.1h48.2v92.8c0 4.8 0 8.4.1 10.9s.5 5.8 1.3 10 2 7.4 3.5 9.7c1.5 2.2 3.9 4.2 7 6 3.1 1.8 7 2.6 11.5 2.6 4.4 0 8.1-.9 11.1-2.6 3-1.7 5.3-3.7 6.8-6 1.5-2.2 2.7-5.4 3.5-9.5.8-4.1 1.2-7.5 1.3-10 .1-2.5.1-6.2.1-11v-67.1h48.2zM511.8 317V167.2h49.3l45.6 52.1h.4v-77h45.6v156.2h-46.9l-48-63.2h-.4V317h-45.6zm151.7-18.5 57.6-156.2h47.1L824.7 317h-45.9l-10.1-42.9H719l-7 24.3h-48.5zm66-60.9H759l-14-52.5h-.4l-15.1 52.5zm151.7-29.2v90.1h-45.6V142.3h68.5l22.3 86h.4l22.3-67.4h68.5v156H972v-108h-.4l-27.2 89.5h-35.9l-27.3-90zm147.2 90.1 57.6-156.2h47.1l56.9 156.2h-49.9l-6.6-24.3h-49.7l-7 24.3h-48.4zm65.9-60.9h29.6l-14-52.5h-.4l-15.2 52.5z"/></svg>