<?xml version="1.0" encoding="utf-8"?>
<!-- Generator: Adobe Illustrator 26.3.1, SVG Export Plug-In . SVG Version: 6.00 Build 0)  -->
<svg version="1.1" id="Modo_de_isolamento" xmlns="http://www.w3.org/2000/svg" xmlns:xlink="http://www.w3.org/1999/xlink" x="0px"
	 y="0px" viewBox="0 0 1226.6 335.4" style="enable-background:new 0 0 1226.6 335.4;" xml:space="preserve">
<style type="text/css">
	.st0{fill:#30583A;}
	.st1{fill:#FFFFFF;}
	.st2{fill:#239B49;}
</style>
<g>
	<g>
		<path class="st0" d="M298.5,298.5H128.6C57.9,298.5,0,240.6,0,169.8V0h298.5V298.5z"/>
		<g>
			<g>
				<path class="st1" d="M222.7,257C222.7,257,222.7,257,222.7,257c-23.9,0-43.4-19.5-43.4-43.5l0-94.6l-94.2,0
					c-23.9,0-43.4-19.5-43.4-43.6c0-24,19.5-43.5,43.4-43.5c0,0,0,0,0,0l137.6,0c0,0,0,0,0,0c11.6,0,22.5,4.5,30.7,12.8
					c8.2,8.2,12.7,19.2,12.7,30.8l0,138.1c0,11.6-4.5,22.6-12.7,30.8C245.2,252.4,234.3,257,222.7,257z M181.5,116.6l0,96.8
					c0,22.8,18.5,41.4,41.2,41.4c0,0,0,0,0,0c11,0,21.3-4.3,29.1-12.1c7.8-7.8,12.1-18.2,12.1-29.2l0-138.1
					c0-11.1-4.3-21.4-12.1-29.3c-7.8-7.8-18.1-12.1-29.1-12.1c0,0,0,0,0,0l-137.6,0c0,0,0,0,0,0c-22.7,0-41.2,18.6-41.2,41.4
					c0,22.8,18.5,41.4,41.2,41.4L181.5,116.6z"/>
			</g>
			<path class="st2" d="M251.6,88.7c0-23.5-18.9-42.5-42.3-42.5l-137.6,0c-23.4,0-42.3,19-42.3,42.5c0,23.4,18.9,42.5,42.3,42.5
				l67.6,0c15.3,0,27.7,12.4,27.7,27.7l0,68c0,23.5,18.9,42.5,42.3,42.5c23.4,0,42.3-19,42.3-42.5L251.6,88.7z"/>
			<circle class="st2" cx="130.8" cy="167.5" r="28.4"/>
		</g>
	</g>
	<path d="M384.4,0h26.8l32.5,110.6h-28.5l-3.7-15.8h-28.3l-4,15.8h-27.6L384.4,0z M406,71.1L398,37h-0.2l-8.6,34.1H406z M452.9,0
		c18,0,35.9,0,53.9,0c6.7,0,12.6,1.1,17.5,3.4c5,2.3,9,5.3,12,9c3,3.7,5.2,7.7,6.6,12c1.4,4.3,2.1,8.5,2.1,12.7c0,0,0,19.9-0.1,21.4
		c-1,16-11,25.9-11,25.9c-11.1,10.5-27.5,9.7-29.8,9.8h-22.4v44.8c-9.6,0-19.2,0-28.8,0C452.9,99.1,452.9,39.9,452.9,0z M481.7,68.4
		h13.8c2.2,0,4.1-0.1,5.8-0.3c1.7-0.2,3.2-0.7,4.6-1.4c1.4-0.8,2.5-1.9,3.3-3.5c1-2,1.1-3.9,1.2-5.2c0-0.2,0-19,0-19.6
		c0-1.5,0-3.6-1-5.7c-0.7-1.5-1.6-2.5-2.9-3.2c-1.2-0.7-2.6-1.1-4-1.3c-1.4-0.2-3.2-0.3-5.4-0.3h-15.5V68.4z M655.6,9.2h101.4v28.4
		h-69.3v26.9h41.6v27.6h-41.6v8.5H803V129H655.6V9.2z M766.2,9.2c9.2,0,18.4,0,27.6,0c12.3,21.5,24.6,43,36.9,64.5
		c0-15.4,0-30.7,0-46.1c9.2,0.1,18.4,0.1,27.6,0.2V129c-9.2,0-18.4,0-27.6,0c-12.3-24.6-24.6-49.1-36.9-73.7c0,12.3,0,24.6,0,36.9
		c-9.2,0-18.4,0-27.6,0C766.2,64.5,766.2,36.9,766.2,9.2z M867.5,0h67.5c7.7,0,14.2,1.5,19.8,4.4c5.5,2.9,10,6.9,13.4,12
		c3.4,5.1,5.9,10.8,7.5,17.2c1.6,6.4,2.3,13.1,2.3,20.3c0,0,0,21.6,0,22.4c-0.5,24.6-12.2,38.2-12.2,38.2
		c-13.4,15.5-33.5,14.5-36.5,14.3h-61.8V0z M896.9,101.2h30.8c4.4,0,7.9-0.9,10.8-2.6c2.8-1.7,4.9-3.9,6.4-6.7s2.5-5.6,3-8.6
		c0.1-0.6,0.6-3.1,0.7-6.7c0-0.5,0.1-22.1,0.1-23.1c0-1.2-0.1-4.3-0.7-7.6c-0.5-2.8-1.5-5.6-3.1-8.3c-1.6-2.8-3.9-5.1-7.1-7
		c-4.3-2.5-8.6-2.7-10.8-2.8c-0.6,0-28.8,0-29.1,0c-0.3,0-0.7,0-1,0V101.2z M1024.2,101.4c27.6-18.4,55.3-36.9,82.9-55.3
		c-21.5,0-61.4,0-82.9,0V18.5c36.9,0,92.1,0,129,0c0,9.2,0,18.4,0,27.6c-24.6,18.4-49.1,36.9-73.7,55.3c24.6,0,86,0,110.6,0
		c0,9.2,0,18.4,0,27.6c-43,0-122.9,0-165.9,0C1024.2,119.8,1024.2,110.6,1024.2,101.4z M987.3,147.4h27.6V55.3h-27.6V147.4z
		 M987.3,18.4v27.6h27.6V18.4H987.3z M644.1,121.2c-3-12.7-1.2-18-4.6-24.4c-1.4-2.8-4.2-6.5-10.2-9.8c4.9-2,8.7-5.5,11.3-10.8
		c1-1.9,1.6-3.5,1.9-4.6c0.3-0.9,1-3,1.4-5.7c0.2-0.9,0.6-30.7,0.6-33.8c0-10-3.2-17.8-9.5-23.3c-6.3-5.5-14.2-8.3-23.5-8.3h-57.2
		v153.3h29.1V99.7h16.6c2.9,0,5.3,0.6,7.1,1.8c1.8,1.2,3.2,2.8,4.1,4.7c1.4,2.9,1.8,5.7,1.9,6.3c0.5,3.9,1.3,9.5,2.2,16.6h31.2
		C645.7,127.3,644.9,124.6,644.1,121.2z M613.3,65c0,2.4-0.4,4.3-1.3,5.8c-0.8,1.5-1.9,2.6-3.3,3.3c-1.3,0.7-2.7,1.2-4.2,1.5
		c-1.5,0.3-3.2,0.4-5,0.4h-16.3V26.8c4.9,0,9.7,0,14.6,0c5.4-0.3,8.7,0.9,10.3,1.7c0.8,0.4,1.3,0.7,1.7,1c2.9,2.3,3.4,6.2,3.4,7.3
		C613.3,37.3,613.3,64.7,613.3,65z M494.1,153.8v78.8c0,23.7-5.8,41.3-17.5,52.7c-11.7,11.5-29.6,17.2-53.7,17.2
		c-24.1,0-42-5.7-53.8-17.2c-11.8-11.5-17.6-29-17.6-52.7V128.1h48.2v92.8c0,4.8,0,8.4,0.1,10.9c0.1,2.5,0.5,5.8,1.3,10
		c0.8,4.2,2,7.4,3.5,9.7c1.5,2.2,3.9,4.2,7,6c3.1,1.8,7,2.6,11.5,2.6c4.4,0,8.1-0.9,11.1-2.6c3-1.7,5.3-3.7,6.8-6
		c1.5-2.2,2.7-5.4,3.5-9.5c0.8-4.1,1.2-7.5,1.3-10c0.1-2.5,0.1-6.2,0.1-11v-67.1H494.1z M511.8,317V167.2h49.3l45.6,52.1h0.4v-77
		h45.6v156.2h-46.9l-48-63.2h-0.4V317H511.8z M663.5,298.5l57.6-156.2h47.1L824.7,317h-45.9l-10.1-42.9h-49.7l-7,24.3H663.5z
		 M729.5,237.6H759l-14-52.5h-0.4L729.5,237.6z M881.2,208.4v90.1h-45.6V142.3h68.5l22.3,86h0.4l22.3-67.4h68.5v156h-45.6v-108h-0.4
		l-27.2,89.5h-35.9L881.2,208.4z M1028.4,298.5l57.6-156.2h47.1l56.9,156.2h-49.9l-6.6-24.3h-49.7l-7,24.3H1028.4z M1094.3,237.6
		h29.6l-14-52.5h-0.4L1094.3,237.6z"/>
</g>
</svg>
