<svg version="1.1" id="Modo_de_isolamento" xmlns="http://www.w3.org/2000/svg" x="0" y="0" viewBox="0 0 469 137" style="enable-background:new 0 0 469 137" xml:space="preserve"><style>.st0{fill:#fff}.st1{fill:#04753e}</style><path class="st0" d="M177.8 89.9c-5 4.6-11.1 6.9-18.4 6.9-7.3 0-13.4-2.3-18.4-6.8-5-4.6-7.5-10.5-7.5-17.8V35.6h12.8v36c0 3.9 1.3 7.1 3.8 9.6s5.6 3.8 9.3 3.8c3.7 0 6.7-1.3 9.2-3.8 2.5-2.5 3.7-5.7 3.7-9.6v-36h12.9v36.6c.1 7.2-2.4 13.1-7.4 17.7zM197.3 95.9V35.6h14.2l15.7 23.7c1.3 1.9 2.8 4.2 4.5 6.7 1.7 2.6 3.1 4.7 4.2 6.3l1.7 2.6V35.6h13v60.3h-13.8l-15.1-22.6c-1.6-2.4-3.4-5.1-5.3-8-1.9-2.9-3.5-5.2-4.6-6.9l-1.5-2.5v39.9h-13zM257.6 95.9l26.1-60.3h13.1l25.4 60.3h-12.5l-4-9.6h-30.6l-4.1 9.6h-13.4zm22-19.8h21.9l-4.7-11.3-6.4-15.5c-2.1 6.2-4.1 11.4-6 15.6l-4.8 11.2zM330 95.9V35.6h11.3l9.1 12.9 11.3 16 11.1-16 9.2-12.8h11.3V96h-13V58c-1 2-2.9 5.1-5.8 9.2l-12.8 18.7-13-18.8-5.5-8.6V96H330zM400.2 95.9l26.1-60.3h13.1l25.4 60.3h-12.5l-4-9.6h-30.6l-4.1 9.6h-13.4zm21.9-19.8H444l-4.7-11.3-6.4-15.5c-2.1 6.2-4.1 11.4-6 15.6l-4.8 11.2z"/><path class="st1" d="M8.6 26.7v72.8c0 2.7.6 5.4 1.6 7.8 3 6.9 12.7 11.4 20.1 12.8 14.9 2.9 21.7 5.1 24.6 9.2 2.9-4.2 9.7-6.4 24.6-9.2 7.4-1.4 17.1-5.9 20.1-12.8 1.1-2.5 1.6-5.1 1.6-7.8V26.7H8.6z"/><path class="st0" d="M102.7 2.9v96.6c0 2.9-.6 5.7-1.8 8.4-1.5 3.4-4.6 6.6-9 9.1-3.6 2.1-8 3.7-12.1 4.5-15.3 2.9-21.2 5.1-23.7 8.6l-1.2 1.7-1.2-1.7c-2.4-3.5-8.4-5.7-23.7-8.6-4.1-.8-8.5-2.4-12.1-4.5-4.4-2.6-7.5-5.7-9-9.1-1.2-2.7-1.8-5.5-1.8-8.4V2.9h25.8v4.5H42V2.9h25.8v4.5h9.1V2.9h25.8m2.9-2.9H74v4.5h-3.3V0H39.1v4.5h-3.3V0H4.3v99.5c0 3.3.7 6.5 2 9.6 1.7 4 5.3 7.6 10.2 10.4 3.9 2.2 8.6 4 13 4.9 14 2.7 20 4.7 21.8 7.4l1.2 1.7 2.4 3.4 2.4-3.4 1.2-1.7c1.9-2.7 7.8-4.7 21.8-7.4 4.4-.9 9.2-2.6 13-4.9 4.9-2.9 8.5-6.5 10.2-10.4 1.3-3 2-6.2 2-9.6V0h.1z"/><path class="st1" d="M78.3 4.3v4.5H66.4V4.3H43.5v4.5h-12V4.3H8.6v21.4h92.7V4.3z"/><path class="st0" d="m16.3 21.7-3.5-8.4h1.5l2 4.8.7 1.9c.3-.8.5-1.5.7-1.9l2-4.8h1.5l-3.5 8.4h-1.4zM27.6 21.7v-8.3h6.5v1.3h-5v2h4.7V18h-4.7v2.5h5.2v1.3h-6.7zM41 21.7v-8.3h3.5c1.2 0 2.1.3 2.7.9.6.6 1 1.4 1 2.3 0 .6-.2 1.1-.5 1.6s-.7.9-1.3 1.1l1.8 2.4h-1.8l-1.4-2h-2.5v2H41zm1.5-3.3h2.1c.6 0 1.1-.2 1.5-.5s.6-.8.6-1.4c0-.5-.2-1-.6-1.4-.4-.4-.9-.5-1.5-.5h-2.1v3.8zM55.2 21.7v-8.3h1.5v8.3h-1.5zM66.2 21.7v-7.1h-2.9v-1.3h7.4v1.3h-2.9v7.1h-1.6zM75.3 21.7l3.8-8.3h1.4l3.8 8.3h-1.5l-.6-1.4h-4.6l-.7 1.4h-1.6zm2.8-2.7h3.5l-.9-2.1c-.1-.2-.2-.5-.4-.9-.1-.3-.3-.6-.3-.8l-.1-.3c-.3.8-.5 1.4-.8 2l-1 2.1zM90.3 20.6l.6-1.1c.8.7 1.7 1 2.8 1 .5 0 .9-.1 1.3-.3.4-.2.5-.5.5-.9 0-.2-.1-.4-.3-.6-.2-.2-.4-.3-.6-.3-.2-.1-.5-.1-.9-.2s-.7-.2-.9-.3c-.2-.1-.5-.2-.8-.3-.3-.1-.5-.3-.7-.5-.2-.2-.3-.4-.5-.6-.1-.3-.2-.5-.2-.9 0-.7.3-1.3.9-1.7.6-.4 1.3-.6 2.1-.6 1.1 0 2.1.3 3 .9l-.6 1c-.7-.5-1.5-.7-2.4-.7-.2 0-.4 0-.6.1l-.6.3c-.2.2-.3.4-.3.6 0 .3.1.5.4.7.3.2.7.3 1.3.5.4.1.8.3 1.2.4.3.1.7.3 1 .5.3.2.6.4.7.7.2.3.3.6.3 1 0 .8-.3 1.4-1 1.9-.7.4-1.5.7-2.4.7-1.3-.1-2.4-.5-3.3-1.3z"/><linearGradient id="SVGID_1_" gradientUnits="userSpaceOnUse" x1="55.61" y1="23.469" x2="53.166" y2="186.919"><stop offset="0" style="stop-color:#fff"/><stop offset="1" style="stop-color:#3db33e"/></linearGradient><path d="m90.5 69.1-7.4-4.3 5.6-3.3c1-.6 1.3-1.8.7-2.8-.6-1-1.8-1.3-2.8-.7L63.5 71.8l-4.4-2.5 4.5-2.6c.2-.1.3-.2.5-.3l21.2-12.3c1-.6 1.3-1.8.7-2.7-.6-1-1.8-1.3-2.7-.7L64.8 61.3v-5.2l15-8.6c1-.6 1.3-1.8.7-2.7-.6-1-1.8-1.3-2.7-.7l-13 7.5v-4.9l7.8-4.3c1-.5 1.3-1.8.8-2.7-.5-1-1.8-1.3-2.7-.8L64.8 42v-4.9c0-1.1-.9-2-2-2s-2 .9-2 2v26.5l-3.9 2.2V36.2c0-1.1-.9-2-2-2s-2 .9-2 2v20.1l-4.2-2.5V37.4c0-1.1-.9-2-2-2s-2 .9-2 2v14l-4.3-2.5v-8.5c0-1.1-.9-2-2-2s-2 .9-2 2v6.2L32 44c-1-.6-2.2-.2-2.7.7s-.3 2.2.7 2.8l7.1 4.2c.2.1.3.2.5.3l7.8 4.6c.1.1.3.2.5.3l7 4.1v4.8L26.7 50.6c-1-.6-2.2-.2-2.7.7-.6 1-.2 2.2.7 2.7l18 10.4-4.4 2.6-15.1-9.2c-.9-.6-2.2-.3-2.8.7-.6.9-.3 2.2.7 2.8l13.3 8.1-4.9 2.9-8.1-5.1c-.9-.6-2.2-.3-2.8.6-.6.9-.3 2.2.6 2.8l6.3 4-5.2 3.1c-1 .6-1.3 1.8-.7 2.8.4.6 1 1 1.7 1 .3 0 .7-.1 1-.3l24.3-14.3 4.3 2.5-27.5 16c-1 .6-1.3 1.8-.7 2.7.4.6 1 1 1.7 1 .3 0 .7-.1 1-.3l19.3-11.2v32.8c0 1.1.9 2 2 2s2-.9 2-2V75.3l4.2-2.4v42.6c0 1.1.9 2 2 2s2-.9 2-2V72.7l4.5 2.6v35.1c0 1.1.9 2 2 2s2-.9 2-2V77.7l18.7 10.8c.3.2.7.3 1 .3.7 0 1.4-.4 1.7-1 .6-1 .2-2.2-.7-2.7l-18.7-11 4.1-2.4 16 9.1c.3.2.7.3 1 .3.7 0 1.4-.4 1.7-1 .6-1 .2-2.2-.7-2.7l-14-8 3.7-2.2 9.3 5.4c.3.2.7.3 1 .3.7 0 1.4-.4 1.7-1 .6-1.1.3-2.3-.7-2.8z" style="fill:url(#SVGID_1_)"/></svg>