<svg xmlns="http://www.w3.org/2000/svg" width="608.636" height="162.124"><g data-name="Grupo 206"><g data-name="Grupo 200"><path data-name="Caminho 705" d="M152.65 152.65H65.798a65.992 65.992 0 0 1-65.8-65.8V0H152.65Z" fill="#fff"/><g data-name="Grupo 199" transform="translate(15.053 16.229)"><g data-name="Grupo 198"><path data-name="Caminho 706" d="M98.849 115.192a22.264 22.264 0 0 1-22.19-22.276V44.548H28.484a22.274 22.274 0 0 1 0-44.548h70.372a22.226 22.226 0 0 1 22.179 22.272v70.644a22.232 22.232 0 0 1-22.183 22.272ZM77.778 43.429v49.487a21.141 21.141 0 0 0 21.071 21.157 21.109 21.109 0 0 0 21.064-21.154V22.276A21.1 21.1 0 0 0 98.852 1.119H28.48a21.157 21.157 0 0 0 0 42.314Z" fill="#fff"/></g><path data-name="Caminho 707" d="M113.62 29.152A21.663 21.663 0 0 0 91.991 7.436H21.629a21.717 21.717 0 0 0 0 43.433h34.584a14.144 14.144 0 0 1 14.145 14.147v34.777a21.629 21.629 0 1 0 43.258 0Z" fill="#328b36"/><circle data-name="Elipse 4" cx="14.526" cy="14.526" r="14.526" transform="translate(37.314 54.889)" fill="#328b36"/></g></g><g data-name="Grupo 205"><g data-name="Grupo 203"><path data-name="Caminho 708" d="M196.586 0h13.727l16.6 56.553h-14.56l-1.916-8.08h-14.5l-2.044 8.08h-14.104Zm11.047 36.357-4.088-17.426h-.129l-4.4 17.426Z" fill="#fff"/><path data-name="Caminho 709" d="M231.628 0h27.547a21.339 21.339 0 0 1 8.967 1.751 16.831 16.831 0 0 1 6.129 4.592 19.121 19.121 0 0 1 3.4 6.151 20.851 20.851 0 0 1 1.086 6.5s.007 10.193-.036 10.943a21.682 21.682 0 0 1-5.647 13.234c-5.665 5.4-14.042 4.982-15.246 5.021h-11.447v22.931h-14.753Zm14.753 34.959h7.062a24.137 24.137 0 0 0 2.973-.157 6.476 6.476 0 0 0 2.348-.74 4.076 4.076 0 0 0 1.7-1.787 6.355 6.355 0 0 0 .608-2.645l.014-10.014a6.828 6.828 0 0 0-.522-2.916 3.414 3.414 0 0 0-1.469-1.637 6.182 6.182 0 0 0-2.059-.661 20.224 20.224 0 0 0-2.741-.157h-7.912Z" fill="#fff"/><path data-name="Caminho 710" d="M335.305 4.718h51.839v14.509h-35.432V32.99h21.3v14.138h-21.3v4.335h59v14.514h-75.4Z" fill="#fff"/><path data-name="Caminho 711" d="M391.857 4.718h14.138l18.852 32.987V14.138l14.135.089v51.75h-14.135l-18.852-37.7v18.851h-14.138Z" fill="#fff"/><path data-name="Caminho 712" d="M443.696.018h34.548a21.329 21.329 0 0 1 10.114 2.248 18.69 18.69 0 0 1 6.865 6.158 27.208 27.208 0 0 1 3.828 8.792 43.485 43.485 0 0 1 1.2 10.378s0 11.068-.007 11.468c-.232 12.6-6.247 19.553-6.247 19.553-6.84 7.912-17.158 7.419-18.688 7.323h-31.613Zm15.032 51.742h15.757a10.4 10.4 0 0 0 5.5-1.315 8.94 8.94 0 0 0 3.277-3.409 14.478 14.478 0 0 0 1.537-4.414 25.326 25.326 0 0 0 .386-3.442c.011-.257.029-11.29.025-11.819a24.539 24.539 0 0 0-.375-3.91 13.451 13.451 0 0 0-1.572-4.26 9.632 9.632 0 0 0-3.62-3.563 11.3 11.3 0 0 0-5.5-1.419c-.311-.014-14.71-.018-14.885-.014h-.529Z" fill="#fff"/><path data-name="Caminho 713" d="m523.813 51.839 42.412-28.276h-42.412V9.442l65.977-.014v14.135l-37.7 28.276h56.549v14.138h-84.826Z" fill="#fff"/><g data-name="Grupo 201" fill="#fff"><path data-name="Retângulo 155" d="M504.96 28.276h14.138v47.126H504.96z"/><path data-name="Retângulo 156" d="M504.96 9.426h14.138v14.138H504.96z"/></g><g data-name="Grupo 202"><path data-name="Caminho 714" d="M329.426 61.977c-1.512-6.512-.622-9.185-2.337-12.473a12.233 12.233 0 0 0-5.214-5.032 10.846 10.846 0 0 0 5.757-5.5 18.639 18.639 0 0 0 .979-2.355 19.235 19.235 0 0 0 .729-2.895c.082-.482.282-15.693.282-17.3q0-7.682-4.853-11.922A17.627 17.627 0 0 0 312.747.265h-29.281v78.4h14.871v-27.7h8.474a6.492 6.492 0 0 1 3.62.911 5.958 5.958 0 0 1 2.1 2.416 11.59 11.59 0 0 1 .976 3.209 347.52 347.52 0 0 1 1.108 8.474h15.932a45.829 45.829 0 0 1-1.121-3.998ZM313.69 33.226a6 6 0 0 1-.65 2.97 4.285 4.285 0 0 1-1.669 1.7 6.891 6.891 0 0 1-2.169.751 15.1 15.1 0 0 1-2.537.2h-8.327v-25.12h7.459a10.555 10.555 0 0 1 5.275.872 4.21 4.21 0 0 1 .843.515 5.38 5.38 0 0 1 1.762 3.738c.013.218.013 14.252.013 14.374Z" fill="#fff"/></g></g><g data-name="Grupo 204" fill="#fff"><path data-name="Caminho 715" d="M252.71 78.664v40.309q0 18.184-8.963 26.965t-27.44 8.788q-18.484 0-27.5-8.788t-9.017-26.965V65.53h24.642v47.464q0 3.661.057 5.554a34.211 34.211 0 0 0 .672 5.125 13.092 13.092 0 0 0 1.794 4.939 10.3 10.3 0 0 0 3.585 3.052 11.926 11.926 0 0 0 5.879 1.34 11.065 11.065 0 0 0 5.657-1.34 10.577 10.577 0 0 0 3.47-3.052 13.011 13.011 0 0 0 1.794-4.878 33.9 33.9 0 0 0 .672-5.125q.054-1.951.054-5.615v-34.33Z"/><path data-name="Caminho 716" d="M261.752 162.124V85.493h25.2l23.3 26.647h.229V72.774h23.3v79.875h-23.979l-24.527-32.3h-.225v41.775Z"/><path data-name="Caminho 717" d="m339.372 152.649 29.459-79.875h24.081l28.877 89.35h-23.47l-5.182-21.918h-25.428l-3.581 12.444Zm33.716-31.115h15.121l-7.169-26.843h-.225Z"/><path data-name="Caminho 718" d="M450.708 106.579v46.07h-23.3V72.774h35.059l11.422 44h.225l11.426-34.463h35.059v79.813h-23.3v-55.263h-.225l-13.888 45.788h-18.37Z"/><path data-name="Caminho 719" d="m525.973 152.649 29.46-79.875h24.084l29.12 79.875h-25.536l-3.363-12.444h-25.424l-3.585 12.444Zm33.716-31.115h15.121l-7.169-26.843h-.222Z"/></g></g></g></svg>