<svg xmlns="http://www.w3.org/2000/svg" width="608.636" height="162.124" viewBox="0 0 608.636 162.124">
  <g id="Grupo_206" data-name="Grupo 206" transform="translate(-36.03 -35.777)">
    <g id="Grupo_200" data-name="Grupo 200" transform="translate(36.03 35.777)">
      <path id="Caminho_705" data-name="Caminho 705" d="M188.68,188.427H101.828a65.992,65.992,0,0,1-65.8-65.8V35.777H188.68Z" transform="translate(-36.03 -35.777)" fill="#fff"/>
      <g id="Grupo_199" data-name="Grupo 199" transform="translate(15.053 16.229)">
        <g id="Grupo_198" data-name="Grupo 198" transform="translate(6.294)">
          <path id="Caminho_706" data-name="Caminho 706" d="M134.558,155.51h0a22.264,22.264,0,0,1-22.19-22.276l0-48.368H64.193a22.274,22.274,0,0,1,0-44.548h0l70.365,0h.007a22.226,22.226,0,0,1,22.179,22.272v70.644a22.232,22.232,0,0,1-22.183,22.272ZM113.487,83.747l0,49.487a21.141,21.141,0,0,0,21.071,21.157h0a21.109,21.109,0,0,0,21.064-21.154V62.594a21.1,21.1,0,0,0-21.061-21.157H64.189a21.157,21.157,0,0,0,0,42.314Z" transform="translate(-42.003 -40.318)" fill="#fff"/>
        </g>
        <path id="Caminho_707" data-name="Caminho 707" d="M153.862,64.116A21.663,21.663,0,0,0,132.233,42.4l-70.362,0a21.717,21.717,0,0,0,0,43.433H96.455A14.144,14.144,0,0,1,110.6,99.98v34.777a21.629,21.629,0,1,0,43.258,0Z" transform="translate(-40.242 -34.964)" fill="#328b36"/>
        <circle id="Elipse_4" data-name="Elipse 4" cx="14.526" cy="14.526" r="14.526" transform="translate(37.314 54.889)" fill="#328b36"/>
      </g>
    </g>
    <g id="Grupo_205" data-name="Grupo 205" transform="translate(215.819 35.777)">
      <g id="Grupo_203" data-name="Grupo 203">
        <path id="Caminho_708" data-name="Caminho 708" d="M103.134,35.777h13.727l16.6,56.553h-14.56l-1.916-8.08h-14.5l-2.044,8.08H86.337Zm11.047,36.357-4.088-17.426h-.129l-4.4,17.426Z" transform="translate(-86.337 -35.777)" fill="#fff"/>
        <path id="Caminho_709" data-name="Caminho 709" d="M100.842,35.777h27.547a21.339,21.339,0,0,1,8.967,1.751,16.831,16.831,0,0,1,6.129,4.592,19.121,19.121,0,0,1,3.4,6.151,20.851,20.851,0,0,1,1.086,6.5s.007,10.193-.036,10.943a21.682,21.682,0,0,1-5.647,13.234c-5.665,5.4-14.042,4.982-15.246,5.021H115.595V106.9H100.842Zm14.753,34.959h7.062a24.137,24.137,0,0,0,2.973-.157,6.476,6.476,0,0,0,2.348-.74,4.076,4.076,0,0,0,1.7-1.787,6.355,6.355,0,0,0,.608-2.645c0-.082.014-9.724.014-10.014a6.828,6.828,0,0,0-.522-2.916,3.414,3.414,0,0,0-1.469-1.637,6.182,6.182,0,0,0-2.059-.661,20.224,20.224,0,0,0-2.741-.157h-7.912Z" transform="translate(-49.003 -35.777)" fill="#fff"/>
        <path id="Caminho_710" data-name="Caminho 710" d="M129.852,37.1h51.839V51.609H146.259V65.372h21.3V79.51h-21.3v4.335h59V98.359h-75.4Z" transform="translate(25.664 -32.382)" fill="#fff"/>
        <path id="Caminho_711" data-name="Caminho 711" d="M145.676,37.1h14.138l18.852,32.987V46.52l14.135.089V98.359H178.666l-18.852-37.7V79.51H145.676Z" transform="translate(66.392 -32.382)" fill="#fff"/>
        <path id="Caminho_712" data-name="Caminho 712" d="M160.181,35.782h34.548a21.329,21.329,0,0,1,10.114,2.248,18.69,18.69,0,0,1,6.865,6.158,27.208,27.208,0,0,1,3.828,8.792,43.485,43.485,0,0,1,1.2,10.378s0,11.068-.007,11.468c-.232,12.6-6.247,19.553-6.247,19.553-6.84,7.912-17.158,7.419-18.688,7.323H160.181Zm15.032,51.742H190.97a10.4,10.4,0,0,0,5.5-1.315,8.94,8.94,0,0,0,3.277-3.409,14.478,14.478,0,0,0,1.537-4.414,25.326,25.326,0,0,0,.386-3.442c.011-.257.029-11.29.025-11.819a24.539,24.539,0,0,0-.375-3.91,13.451,13.451,0,0,0-1.572-4.26,9.632,9.632,0,0,0-3.62-3.563,11.3,11.3,0,0,0-5.5-1.419c-.311-.014-14.71-.018-14.885-.014h-.529Z" transform="translate(103.726 -35.764)" fill="#fff"/>
        <path id="Caminho_713" data-name="Caminho 713" d="M182.6,80.826,225.012,52.55H182.6V38.429l65.977-.014V52.55l-37.7,28.276h56.549V94.964H182.6Z" transform="translate(161.424 -28.987)" fill="#fff"/>
        <g id="Grupo_201" data-name="Grupo 201" transform="translate(325.171 9.426)">
          <rect id="Ret창ngulo_155" data-name="Ret창ngulo 155" width="14.138" height="47.126" transform="translate(0 18.85)" fill="#fff"/>
          <rect id="Ret창ngulo_156" data-name="Ret창ngulo 156" width="14.138" height="14.138" fill="#fff"/>
        </g>
        <g id="Grupo_202" data-name="Grupo 202" transform="translate(103.677 0.264)">
          <path id="Caminho_714" data-name="Caminho 714" d="M161.307,97.564c-1.512-6.512-.622-9.185-2.337-12.473a12.233,12.233,0,0,0-5.214-5.032,10.846,10.846,0,0,0,5.757-5.5,18.639,18.639,0,0,0,.979-2.355,19.235,19.235,0,0,0,.729-2.895c.082-.482.282-15.693.282-17.3q0-7.682-4.853-11.922a17.627,17.627,0,0,0-12.022-4.235H115.347v78.4h14.871v-27.7h8.474a6.492,6.492,0,0,1,3.62.911,5.958,5.958,0,0,1,2.1,2.416,11.59,11.59,0,0,1,.976,3.209c.279,1.976.686,4.875,1.108,8.474h15.932C162.143,100.7,161.71,99.3,161.307,97.564ZM145.571,68.813a6,6,0,0,1-.65,2.97,4.285,4.285,0,0,1-1.669,1.7,6.891,6.891,0,0,1-2.169.751,15.1,15.1,0,0,1-2.537.2h-8.327V49.314h7.459a10.555,10.555,0,0,1,5.275.872,4.21,4.21,0,0,1,.843.515,5.38,5.38,0,0,1,1.762,3.738C145.571,54.657,145.571,68.691,145.571,68.813Z" transform="translate(-115.347 -35.851)" fill="#fff"/>
        </g>
      </g>
      <g id="Grupo_204" data-name="Grupo 204" transform="translate(0 65.53)">
        <path id="Caminho_715" data-name="Caminho 715" d="M159.258,67.247v40.309q0,18.184-8.963,26.965t-27.44,8.788q-18.484,0-27.5-8.788t-9.017-26.965V54.113h24.642v47.464q0,3.661.057,5.554a34.211,34.211,0,0,0,.672,5.125,13.092,13.092,0,0,0,1.794,4.939,10.3,10.3,0,0,0,3.585,3.052,11.926,11.926,0,0,0,5.879,1.34,11.065,11.065,0,0,0,5.657-1.34,10.577,10.577,0,0,0,3.47-3.052,13.011,13.011,0,0,0,1.794-4.878,33.9,33.9,0,0,0,.672-5.125q.054-1.951.054-5.615V67.247Z" transform="translate(-86.337 -54.113)" fill="#fff"/>
        <path id="Caminho_716" data-name="Caminho 716" d="M109.271,145.49V68.859h25.2l23.3,26.647H158V56.14h23.3v79.875H157.321l-24.527-32.3h-.225V145.49Z" transform="translate(-27.308 -48.896)" fill="#fff"/>
        <path id="Caminho_717" data-name="Caminho 717" d="M130.99,136.015,160.449,56.14H184.53l28.877,89.35H189.937l-5.182-21.918H159.327l-3.581,12.444ZM164.706,104.9h15.121l-7.169-26.843h-.225Z" transform="translate(28.593 -48.896)" fill="#fff"/>
        <path id="Caminho_718" data-name="Caminho 718" d="M178.922,89.945v46.07h-23.3V56.14h35.059l11.422,44h.225l11.426-34.463h35.059V145.49h-23.3V90.227h-.225L211.4,136.015h-18.37Z" transform="translate(91.997 -48.896)" fill="#fff"/>
        <path id="Caminho_719" data-name="Caminho 719" d="M183.2,136.015,212.66,56.14h24.084l29.12,79.875H240.328l-3.363-12.444H211.541l-3.585,12.444ZM216.916,104.9h15.121l-7.169-26.843h-.222Z" transform="translate(162.984 -48.896)" fill="#fff"/>
      </g>
    </g>
  </g>
</svg>
