<?xml version="1.0" encoding="utf-8"?>
<!-- Generator: Adobe Illustrator 27.2.0, SVG Export Plug-In . SVG Version: 6.00 Build 0)  -->
<svg version="1.1" id="Grupo_226" xmlns="http://www.w3.org/2000/svg" xmlns:xlink="http://www.w3.org/1999/xlink" x="0px" y="0px"
	 viewBox="0 0 265.8 77.4" style="enable-background:new 0 0 265.8 77.4;" xml:space="preserve">
<style type="text/css">
	.st0{fill:#FFFFFF;}
</style>
<g>
	<g>
		<g>
			<path class="st0" d="M101.2,51c-2.8,2.6-6.2,3.9-10.3,3.9c-4.1,0-7.5-1.3-10.3-3.8c-2.8-2.6-4.2-5.9-4.2-10V20.6h7.2v20.2
				c0,2.2,0.7,4,2.1,5.4c1.4,1.4,3.1,2.1,5.2,2.1c2,0,3.8-0.7,5.2-2.1c1.4-1.4,2.1-3.2,2.1-5.4V20.6h7.2V41
				C105.4,45.1,104,48.4,101.2,51z"/>
			<path class="st0" d="M112.2,54.3V20.6h8l8.8,13.3c0.7,1.1,1.5,2.3,2.5,3.8c1,1.4,1.7,2.6,2.3,3.5l1,1.4v-22h7.3v33.8h-7.7
				l-8.5-12.6c-0.9-1.4-1.9-2.8-3-4.5c-1.1-1.6-1.9-2.9-2.6-3.9l-0.8-1.4v22.4H112.2z"/>
			<path class="st0" d="M146,54.3l14.6-33.8h7.3l14.2,33.8h-7l-2.2-5.4h-17.1l-2.3,5.4H146z M158.2,43.2h12.3l-2.6-6.3l-3.6-8.7
				c-1.2,3.5-2.3,6.4-3.3,8.8L158.2,43.2z"/>
			<path class="st0" d="M186.5,54.3V20.6h6.3l5.1,7.2l6.3,9l6.2-9l5.2-7.2h6.3v33.8h-7.3V33.1c-0.6,1.1-1.6,2.8-3.2,5.2l-7.2,10.5
				l-7.3-10.5l-3.1-4.8v21H186.5z"/>
			<path class="st0" d="M225.8,54.3l14.6-33.8h7.3L262,54.3h-7l-2.2-5.4h-17.1l-2.3,5.4H225.8z M238.1,43.2h12.3l-2.6-6.3l-3.6-8.7
				c-1.2,3.5-2.3,6.4-3.3,8.8L238.1,43.2z"/>
		</g>
	</g>
	<g>
		<path class="st0" d="M59.2,2.2v12.6v1v40.5c0,1.6-0.3,3.2-1,4.7c-0.8,1.9-2.6,3.7-5.1,5.1c-2,1.2-4.5,2.1-6.8,2.5
			c-8.6,1.6-11.9,2.9-13.3,4.8l-0.7,1l-0.7-1c-1.4-2-4.7-3.2-13.3-4.8c-2.3-0.4-4.8-1.4-6.8-2.5c-2.5-1.4-4.2-3.2-5.1-5.1
			c-0.7-1.5-1-3.1-1-4.7V15.9v-1V2.2h14.5v2.5h5.1V2.2h14.5v2.5h5.1V2.2H59.2z M60.8,0.6h-1.6H44.7h-1.6v1.6v0.9h-1.9V2.2V0.6h-1.6
			H25.2h-1.6v1.6v0.9h-1.9V2.2V0.6h-1.6H5.6H4v1.6v12.6v1v40.5c0,1.9,0.4,3.7,1.1,5.4c1,2.2,3,4.2,5.7,5.8c2.2,1.3,4.8,2.3,7.3,2.7
			c7.9,1.5,11.2,2.6,12.2,4.2l0.7,1l1.3,1.9l1.3-1.9l0.7-1c1-1.5,4.4-2.6,12.2-4.2c2.5-0.5,5.1-1.5,7.3-2.7c2.8-1.6,4.7-3.6,5.7-5.8
			c0.7-1.7,1.1-3.5,1.1-5.4V15.9v-1V2.2V0.6z"/>
		<path class="st0" d="M32.4,15.6h-26v40.8c0,1.5,0.3,3,0.9,4.4c1.7,3.8,7.1,6.4,11.3,7.2c8.3,1.6,12.2,2.8,13.8,5.2
			c1.6-2.3,5.4-3.6,13.8-5.2c4.1-0.8,9.6-3.3,11.3-7.2c0.6-1.4,0.9-2.9,0.9-4.4V15.6H32.4z M52.8,40.9c-0.2,0.4-0.6,0.6-1,0.6
			c-0.2,0-0.4,0-0.6-0.2l-5.2-3l-2.1,1.2l7.8,4.5c0.5,0.3,0.7,1,0.4,1.5c-0.2,0.4-0.6,0.6-1,0.6c-0.2,0-0.4,0-0.6-0.1l-8.9-5.1
			l-2.3,1.4l10.5,6.1c0.5,0.3,0.7,1,0.4,1.5c-0.2,0.4-0.6,0.6-1,0.6c-0.2,0-0.4,0-0.6-0.2l-10.5-6.1v18.4c0,0.6-0.5,1.1-1.1,1.1
			c-0.6,0-1.1-0.5-1.1-1.1V42.8l-2.5-1.5v23.9c0,0.6-0.5,1.1-1.1,1.1c-0.6,0-1.1-0.5-1.1-1.1V41.4l-2.4,1.4v19.7
			c0,0.6-0.5,1.1-1.1,1.1c-0.6,0-1.1-0.5-1.1-1.1V44.1l-10.8,6.3c-0.2,0.1-0.4,0.2-0.6,0.2c-0.4,0-0.8-0.2-1-0.6
			c-0.3-0.5-0.1-1.2,0.4-1.5l15.5-9L27.8,38l-13.6,8c-0.2,0.1-0.4,0.2-0.6,0.2c-0.4,0-0.8-0.2-1-0.6c-0.3-0.5-0.1-1.2,0.4-1.5
			l2.9-1.7l-3.6-2.2c-0.5-0.3-0.7-1-0.3-1.6c0.3-0.5,1-0.7,1.6-0.4l4.5,2.9l2.8-1.6l-7.4-4.5c-0.5-0.3-0.7-1-0.4-1.5
			c0.3-0.5,1-0.7,1.5-0.4l8.5,5.2l2.4-1.4l-10.1-5.8c-0.5-0.3-0.7-1-0.4-1.5c0.3-0.5,1-0.7,1.5-0.4l14.7,8.5v-2.7l-3.9-2.3
			c-0.1,0-0.2-0.1-0.3-0.2l-4.4-2.6c-0.1,0-0.2-0.1-0.3-0.2l-4-2.3c-0.5-0.3-0.7-1-0.4-1.5c0.3-0.5,1-0.7,1.5-0.4l2.4,1.4v-3.4
			c0-0.6,0.5-1.1,1.1-1.1c0.6,0,1.1,0.5,1.1,1.1V28l2.4,1.4v-7.9c0-0.6,0.5-1.1,1.1-1.1c0.6,0,1.1,0.5,1.1,1.1v9.2l2.4,1.4V20.9
			c0-0.6,0.5-1.1,1.1-1.1c0.6,0,1.1,0.5,1.1,1.1v16.6l2.2-1.3V21.4c0-0.6,0.5-1.1,1.1-1.1c0.6,0,1.1,0.5,1.1,1.1v2.7l3.3-1.8
			c0.5-0.3,1.2-0.1,1.5,0.4c0.3,0.5,0.1,1.2-0.4,1.5l-4.4,2.4v2.7l7.3-4.2c0.5-0.3,1.2-0.1,1.5,0.4c0.3,0.5,0.1,1.2-0.4,1.5
			l-8.4,4.8V35l10.3-6c0.5-0.3,1.2-0.1,1.5,0.4c0.3,0.5,0.1,1.2-0.4,1.5l-11.9,6.9c-0.1,0.1-0.2,0.1-0.3,0.2l-2.5,1.5l2.5,1.4
			l13-7.7c0.5-0.3,1.2-0.1,1.5,0.4c0.3,0.5,0.1,1.2-0.4,1.5l-3.1,1.9l4.1,2.4C52.9,39.6,53.1,40.3,52.8,40.9z"/>
		<g>
			<path class="st0" d="M46.4,9.2L46.4,9c-0.2,0.4-0.3,0.8-0.5,1.1l-0.5,1.2h2l-0.5-1.2c-0.1-0.1-0.1-0.3-0.2-0.5
				C46.5,9.4,46.5,9.3,46.4,9.2z"/>
			<path class="st0" d="M27.5,9.1c-0.2-0.2-0.5-0.3-0.8-0.3h-1.2v2.1h1.2c0.3,0,0.6-0.1,0.8-0.3c0.2-0.2,0.3-0.5,0.3-0.8
				C27.8,9.6,27.7,9.3,27.5,9.1z"/>
			<path class="st0" d="M45.5,3v2.5h-6.7V3H26v2.5h-6.7V3H6.4v2.5V15h51.9V5.5V3H45.5z M11.6,12.8h-0.8L8.8,8.1h0.9l1.1,2.7l0.4,1
				c0.2-0.5,0.3-0.8,0.4-1l1.1-2.7h0.9L11.6,12.8z M20.9,12.8h-3.7V8.1h3.6v0.7H18V10h2.6v0.7H18V12h2.9V12.8z M27.7,12.8l-0.8-1.1
				c-0.1,0-0.4,0-0.7,0h-0.7v1.1h-0.8V8.1h2c0.7,0,1.2,0.2,1.5,0.5c0.4,0.3,0.5,0.8,0.5,1.3c0,0.3-0.1,0.6-0.3,0.9
				c-0.2,0.3-0.4,0.5-0.7,0.6l1,1.4H27.7z M33.4,12.8h-0.8V8.1h0.8V12.8z M41.2,8.8h-1.6v4h-0.8v-4h-1.6V8.1h4.1V8.8z M48,12.8
				L47.6,12h-2.6l-0.4,0.8h-0.9L46,8.1h0.8l2.1,4.7H48z M55.4,12.5c-0.4,0.2-0.8,0.4-1.3,0.4c-0.8,0-1.4-0.2-1.9-0.7l0.3-0.6
				c0.5,0.4,1,0.5,1.6,0.5c0.3,0,0.5-0.1,0.7-0.2c0.2-0.1,0.3-0.3,0.3-0.5c0-0.1-0.1-0.2-0.2-0.3c-0.1-0.1-0.2-0.2-0.3-0.2
				c-0.1,0-0.3-0.1-0.5-0.1c-0.2-0.1-0.4-0.1-0.5-0.1c-0.1,0-0.3-0.1-0.5-0.2c-0.2-0.1-0.3-0.2-0.4-0.3c-0.1-0.1-0.2-0.2-0.3-0.4
				c-0.1-0.1-0.1-0.3-0.1-0.5c0-0.4,0.2-0.7,0.5-1C53.2,8.1,53.6,8,54.1,8c0.6,0,1.2,0.2,1.7,0.5l-0.3,0.6c-0.4-0.3-0.9-0.4-1.3-0.4
				c-0.1,0-0.2,0-0.4,0c-0.1,0-0.2,0.1-0.3,0.2c-0.1,0.1-0.2,0.2-0.2,0.3c0,0.2,0.1,0.3,0.2,0.4c0.2,0.1,0.4,0.2,0.7,0.3
				c0.2,0.1,0.5,0.1,0.6,0.2c0.2,0.1,0.4,0.1,0.5,0.3c0.2,0.1,0.3,0.2,0.4,0.4c0.1,0.2,0.1,0.4,0.1,0.6C56,11.9,55.8,12.2,55.4,12.5
				z"/>
		</g>
	</g>
</g>
</svg>
