<svg version="1.1" id="Grupo_226" xmlns="http://www.w3.org/2000/svg" x="0" y="0" viewBox="0 0 265.8 77.4" style="enable-background:new 0 0 265.8 77.4" xml:space="preserve"><style>.st0{fill:#fff}</style><path class="st0" d="M101.2 51c-2.8 2.6-6.2 3.9-10.3 3.9-4.1 0-7.5-1.3-10.3-3.8-2.8-2.6-4.2-5.9-4.2-10V20.6h7.2v20.2c0 2.2.7 4 2.1 5.4 1.4 1.4 3.1 2.1 5.2 2.1 2 0 3.8-.7 5.2-2.1 1.4-1.4 2.1-3.2 2.1-5.4V20.6h7.2V41c0 4.1-1.4 7.4-4.2 10zM112.2 54.3V20.6h8l8.8 13.3c.7 1.1 1.5 2.3 2.5 3.8 1 1.4 1.7 2.6 2.3 3.5l1 1.4v-22h7.3v33.8h-7.7l-8.5-12.6c-.9-1.4-1.9-2.8-3-4.5-1.1-1.6-1.9-2.9-2.6-3.9l-.8-1.4v22.4h-7.3zM146 54.3l14.6-33.8h7.3l14.2 33.8h-7l-2.2-5.4h-17.1l-2.3 5.4H146zm12.2-11.1h12.3l-2.6-6.3-3.6-8.7c-1.2 3.5-2.3 6.4-3.3 8.8l-2.8 6.2zM186.5 54.3V20.6h6.3l5.1 7.2 6.3 9 6.2-9 5.2-7.2h6.3v33.8h-7.3V33.1c-.6 1.1-1.6 2.8-3.2 5.2l-7.2 10.5-7.3-10.5-3.1-4.8v21h-7.3zM225.8 54.3l14.6-33.8h7.3L262 54.3h-7l-2.2-5.4h-17.1l-2.3 5.4h-7.6zm12.3-11.1h12.3l-2.6-6.3-3.6-8.7c-1.2 3.5-2.3 6.4-3.3 8.8l-2.8 6.2zM59.2 2.2v54.1c0 1.6-.3 3.2-1 4.7-.8 1.9-2.6 3.7-5.1 5.1-2 1.2-4.5 2.1-6.8 2.5-8.6 1.6-11.9 2.9-13.3 4.8l-.7 1-.7-1c-1.4-2-4.7-3.2-13.3-4.8-2.3-.4-4.8-1.4-6.8-2.5C9 64.7 7.3 62.9 6.4 61c-.7-1.5-1-3.1-1-4.7V2.2h14.5v2.5H25V2.2h14.5v2.5h5.1V2.2h14.6zM60.8.6H43.1v2.5h-1.9V.6H23.6v2.5h-1.9V.6H4v55.7c0 1.9.4 3.7 1.1 5.4 1 2.2 3 4.2 5.7 5.8 2.2 1.3 4.8 2.3 7.3 2.7 7.9 1.5 11.2 2.6 12.2 4.2l.7 1 1.3 1.9 1.3-1.9.7-1c1-1.5 4.4-2.6 12.2-4.2 2.5-.5 5.1-1.5 7.3-2.7 2.8-1.6 4.7-3.6 5.7-5.8.7-1.7 1.1-3.5 1.1-5.4V.6z"/><path class="st0" d="M32.4 15.6h-26v40.8c0 1.5.3 3 .9 4.4 1.7 3.8 7.1 6.4 11.3 7.2 8.3 1.6 12.2 2.8 13.8 5.2 1.6-2.3 5.4-3.6 13.8-5.2 4.1-.8 9.6-3.3 11.3-7.2.6-1.4.9-2.9.9-4.4V15.6h-26zm20.4 25.3c-.2.4-.6.6-1 .6-.2 0-.4 0-.6-.2l-5.2-3-2.1 1.2 7.8 4.5c.5.3.7 1 .4 1.5-.2.4-.6.6-1 .6-.2 0-.4 0-.6-.1l-8.9-5.1-2.3 1.4 10.5 6.1c.5.3.7 1 .4 1.5-.2.4-.6.6-1 .6-.2 0-.4 0-.6-.2l-10.5-6.1v18.4c0 .6-.5 1.1-1.1 1.1-.6 0-1.1-.5-1.1-1.1V42.8l-2.5-1.5v23.9c0 .6-.5 1.1-1.1 1.1-.6 0-1.1-.5-1.1-1.1V41.4l-2.4 1.4v19.7c0 .6-.5 1.1-1.1 1.1-.6 0-1.1-.5-1.1-1.1V44.1l-10.8 6.3c-.2.1-.4.2-.6.2-.4 0-.8-.2-1-.6-.3-.5-.1-1.2.4-1.5l15.5-9-2.3-1.5-13.6 8c-.2.1-.4.2-.6.2-.4 0-.8-.2-1-.6-.3-.5-.1-1.2.4-1.5l2.9-1.7-3.6-2.2c-.5-.3-.7-1-.3-1.6.3-.5 1-.7 1.6-.4l4.5 2.9 2.8-1.6-7.4-4.5c-.5-.3-.7-1-.4-1.5.3-.5 1-.7 1.5-.4l8.5 5.2 2.4-1.4-10.1-5.8c-.5-.3-.7-1-.4-1.5.3-.5 1-.7 1.5-.4l14.7 8.5V35l-3.9-2.3c-.1 0-.2-.1-.3-.2l-4.4-2.6c-.1 0-.2-.1-.3-.2l-4-2.3c-.5-.3-.7-1-.4-1.5.3-.5 1-.7 1.5-.4l2.4 1.4v-3.4c0-.6.5-1.1 1.1-1.1.6 0 1.1.5 1.1 1.1V28l2.4 1.4v-7.9c0-.6.5-1.1 1.1-1.1.6 0 1.1.5 1.1 1.1v9.2l2.4 1.4V20.9c0-.6.5-1.1 1.1-1.1.6 0 1.1.5 1.1 1.1v16.6l2.2-1.3V21.4c0-.6.5-1.1 1.1-1.1.6 0 1.1.5 1.1 1.1v2.7l3.3-1.8c.5-.3 1.2-.1 1.5.4.3.5.1 1.2-.4 1.5l-4.4 2.4v2.7l7.3-4.2c.5-.3 1.2-.1 1.5.4.3.5.1 1.2-.4 1.5l-8.4 4.8V35l10.3-6c.5-.3 1.2-.1 1.5.4.3.5.1 1.2-.4 1.5l-11.9 6.9c-.1.1-.2.1-.3.2l-2.5 1.5 2.5 1.4 13-7.7c.5-.3 1.2-.1 1.5.4.3.5.1 1.2-.4 1.5L47.8 37l4.1 2.4c1 .2 1.2.9.9 1.5zM46.4 9.2V9c-.2.4-.3.8-.5 1.1l-.5 1.2h2l-.5-1.2c-.1-.1-.1-.3-.2-.5-.2-.2-.2-.3-.3-.4zM27.5 9.1c-.2-.2-.5-.3-.8-.3h-1.2v2.1h1.2c.3 0 .6-.1.8-.3.2-.2.3-.5.3-.8 0-.2-.1-.5-.3-.7z"/><path class="st0" d="M45.5 3v2.5h-6.7V3H26v2.5h-6.7V3H6.4v12h51.9V3H45.5zm-33.9 9.8h-.8l-2-4.7h.9l1.1 2.7.4 1c.2-.5.3-.8.4-1l1.1-2.7h.9l-2 4.7zm9.3 0h-3.7V8.1h3.6v.7H18V10h2.6v.7H18V12h2.9v.8zm6.8 0-.8-1.1h-1.4v1.1h-.8V8.1h2c.7 0 1.2.2 1.5.5.4.3.5.8.5 1.3 0 .3-.1.6-.3.9-.2.3-.4.5-.7.6l1 1.4h-1zm5.7 0h-.8V8.1h.8v4.7zm7.8-4h-1.6v4h-.8v-4h-1.6v-.7h4.1v.7zm6.8 4-.4-.8H45l-.4.8h-.9L46 8.1h.8l2.1 4.7H48zm7.4-.3c-.4.2-.8.4-1.3.4-.8 0-1.4-.2-1.9-.7l.3-.6c.5.4 1 .5 1.6.5.3 0 .5-.1.7-.2.2-.1.3-.3.3-.5 0-.1-.1-.2-.2-.3-.1-.1-.2-.2-.3-.2-.1 0-.3-.1-.5-.1-.2-.1-.4-.1-.5-.1-.1 0-.3-.1-.5-.2s-.3-.2-.4-.3c-.1-.1-.2-.2-.3-.4-.1-.1-.1-.3-.1-.5 0-.4.2-.7.5-1 .4-.2.8-.3 1.3-.3.6 0 1.2.2 1.7.5l-.3.6c-.4-.3-.9-.4-1.3-.4h-.4c-.1 0-.2.1-.3.2-.1.1-.2.2-.2.3 0 .2.1.3.2.4.2.1.4.2.7.3.2.1.5.1.6.2.2.1.4.1.5.3.2.1.3.2.4.4.1.2.1.4.1.6.2.5 0 .8-.4 1.1z"/></svg>