<?xml version="1.0" encoding="utf-8"?>
<!-- Generator: Adobe Illustrator 26.1.0, SVG Export Plug-In . SVG Version: 6.00 Build 0)  -->
<svg version="1.1" id="Camada_1" xmlns="http://www.w3.org/2000/svg" xmlns:xlink="http://www.w3.org/1999/xlink" x="0px" y="0px"
	 viewBox="0 0 1276.8 318.8" style="enable-background:new 0 0 1276.8 318.8;" xml:space="preserve">
<style type="text/css">
	.st0{fill:#003764;}
	.st1{fill:#FFFFFF;}
	.st2{fill:#FCE200;}
</style>
<g>
	<g>
		<path d="M379.6,17H409L444.5,138h-31.1l-4.1-17.3h-31l-4.4,17.3h-30.2L379.6,17z M403.3,94.8l-8.7-37.3h-0.3l-9.4,37.3H403.3z"/>
		<path d="M454.6,17c19.6,0,39.3,0,58.9,0c7.4,0,13.7,1.2,19.2,3.7c5.4,2.5,9.8,5.8,13.1,9.8c3.3,4.1,5.7,8.4,7.3,13.2
			c1.5,4.7,2.3,9.4,2.3,13.9c0,0,0,21.8-0.1,23.4c-1,17.5-12.1,28.3-12.1,28.3c-12.1,11.5-30,10.7-32.6,10.7h-24.5v28
			c-10.5,0-21,0-31.5,0C454.6,104.4,454.6,60.7,454.6,17z M486.1,91.8h15.1c2.4,0,4.5-0.1,6.4-0.3c1.8-0.2,3.5-0.7,5-1.6
			c1.5-0.8,2.7-2.1,3.6-3.8c1.1-2.1,1.2-4.3,1.3-5.7c0-0.2,0-20.8,0-21.4c0-1.7-0.1-3.9-1.1-6.2c-0.7-1.6-1.8-2.8-3.1-3.5
			c-1.4-0.7-2.8-1.2-4.4-1.4c-1.6-0.2-3.5-0.3-5.9-0.3h-16.9V91.8z"/>
		<path d="M676.3,27.1h110.9v31h-75.8v29.4h45.5v30.2h-45.5v9.3h126.2v31H676.3V27.1z"/>
		<path d="M797.2,27.1c10.1,0,20.2,0,30.2,0c13.4,23.5,26.9,47,40.3,70.5c0-16.8,0-33.6,0-50.4c10.1,0.1,20.2,0.1,30.2,0.2v110.7
			c-10.1,0-20.2,0-30.2,0c-13.4-26.9-26.9-53.8-40.3-80.6c0,13.4,0,26.9,0,40.3c-10.1,0-20.2,0-30.2,0
			C797.2,87.6,797.2,57.4,797.2,27.1z"/>
		<path d="M908.1,17.1H982c8.4,0,15.6,1.6,21.6,4.8c6,3.2,10.9,7.6,14.7,13.2c3.7,5.6,6.5,11.8,8.2,18.8c1.7,7,2.6,14.4,2.6,22.2
			c0,0,0,23.7,0,24.5c-0.5,26.9-13.4,41.8-13.4,41.8c-14.6,16.9-36.7,15.9-40,15.7h-67.6V17.1z M940.3,127.7H974
			c4.8,0,8.7-0.9,11.8-2.8c3.1-1.9,5.4-4.3,7-7.3c1.6-3,2.7-6.1,3.3-9.4c0.1-0.6,0.6-3.4,0.8-7.4c0-0.6,0.1-24.1,0.1-25.3
			c0-1.3-0.2-4.7-0.8-8.4c-0.5-3-1.7-6.1-3.4-9.1c-1.7-3-4.3-5.6-7.7-7.6c-4.7-2.8-9.4-2.9-11.8-3c-0.7,0-31.5,0-31.8,0
			c-0.4,0-0.8,0-1.1,0V127.7z"/>
		<path d="M1079.4,127.9c30.2-20.2,60.5-40.3,90.7-60.5c-23.5,0-67.2,0-90.7,0V37.2c40.3,0,100.8,0,141.1,0c0,10.1,0,20.2,0,30.2
			c-26.9,20.2-53.8,40.3-80.6,60.5c26.9,0,94.1,0,120.9,0c0,10.1,0,20.2,0,30.2c-47,0-134.4,0-181.4,0
			C1079.4,148.1,1079.4,138,1079.4,127.9z"/>
		<path d="M444.5,243.5c0,30.2-17.3,45.4-52,45.4c-34.7,0-48.8-20.2-48.8-45.4V148h35.2v80.4c0,3.9,0.1,14.6,0.4,17.2
			c0.3,2.6,0.9,5.1,1.9,7.5c0.5,1.2,1.1,2.1,1.3,2.4c1.6,2.4,5.3,5.3,10.2,5.8c0.4,0,5.2,0.5,9.4-2.2c2.3-1.5,4-3.5,5-5.9
			c1-2.4,1.6-4.9,1.8-7.5c0.2-2.6,0.3-13.3,0.3-17.2V148h35.2V243.5z"/>
		<path d="M454.6,168.2c10.1,0,20.2,0,30.2,0c13.4,20.2,26.9,40.3,40.3,60.5c0-26.9,0-73.9,0-100.8c10.1,0,20.2,0,30.2,0v161.3
			c-10.1,0-20.2,0-30.2,0c-13-21.3-26.1-42.7-39.1-64h-0.3v84.2h-31.2V168.2z"/>
		<path d="M565.4,188.4h30.2v100.8h-30.2V188.4z"/>
		<path d="M841.5,248c0,2.8,0.4,5.4,1.2,7.6c1.1,3.1,3.2,5.3,6.1,6.6c2.9,1.2,5.6,1.6,7.3,1.7c0.3,0,41.2,0,41.3,0
			c3.3,0.2,5.6-0.2,6.6-0.3c0.1,0,0.2,0,0.4-0.1c1.6-0.3,3.1-0.9,4.6-1.6c1.4-0.8,2.6-1.8,3.5-3.2c0.9-1.4,1.3-3.1,1.3-5.2
			c0-1.5-0.4-2.8-1.1-3.8c-0.7-1-1.9-2-3.6-2.9c-1.7-0.9-4-1.9-7-2.8c-2.9-1-47.7-2.2-52.9-3.7l-1.9-0.5c-6-1.8-10.8-3.4-14.4-4.8
			c-3.6-1.4-7-3.2-10.3-5.6c-3.3-2.4-6-5.4-8-9.2s-3-8.3-3-13.6c0-6.4,1.2-12,3.6-17c2.4-4.9,5.7-9,9.9-12.1c4.2-3.1,8.9-5.5,14.3-7
			c5.3-1.5,10.9-2.3,16.8-2.3c6.3,0,52.9,0.7,58.3,2c5.4,1.4,10.2,3.5,14.4,6.5c4.2,3,7.6,6.9,10.2,11.8c2.5,4.9,3.9,10.7,4.1,17.5
			H911c0-0.2,0-0.5,0-0.8c0.1-0.4,0.2-0.7,0.2-0.8c0-3.1-1.4-5.7-4.2-7.6c-1.3-1-2.9-1.7-4.7-2.2c-2.2-0.6-4.2-0.7-4.9-0.7
			c-0.3,0-41.2,0-41.3,0c-2.1,0-5.2,0.3-8.5,1.7c-2.5,1.1-3.8,3.2-3.8,6.1c0.2,2.9,2.1,5.2,5.6,6.7c3.5,1.6,49.8,3.3,57.3,5.3
			c4.8,1.2,8.1,2.1,9.9,2.6c4.4,1.3,8.5,2.8,12,4.4c3.6,1.6,6.8,3.7,9.7,6.3c2.9,2.5,5.2,5.7,6.9,9.5c1.7,3.8,2.6,8.2,2.6,13.3
			c0,7.3-1.4,13.5-4.3,18.6c-2.9,5.1-6.8,9.3-11.6,12.4c-4.9,3.1-10.3,5.4-16.4,6.8c-6.1,1.4-53.1,2.1-59.6,2.1
			c-4.1,0-8.8-0.5-14-1.5c-5.2-1-10.5-3-15.8-5.9c-5.3-2.9-9.8-7.2-13.3-12.8c-3.6-5.6-5.4-12.8-5.5-21.4H841.5z"/>
		<path d="M982.5,251.1c0,2.6,0.4,4.9,1.1,7c1,2.9,2.7,4.9,5.3,6c2.5,1.1,5.5,1.7,8.8,1.7c1.3,0,2.7-0.1,4.1-0.4
			c1.4-0.3,2.7-0.8,3.9-1.5c1.2-0.7,2.2-1.7,3-3c0.8-1.3,1.1-2.9,1.1-4.7c0-1.4-0.3-2.5-0.9-3.5c-0.6-0.9-1.7-1.8-3.1-2.7
			c-1.5-0.8-3.5-1.7-6-2.6c-2.5-0.9-6-2-10.5-3.4l-1.6-0.4c-5.2-1.7-9.3-3.1-12.4-4.4c-3.1-1.2-6-2.9-8.9-5.1
			c-2.9-2.2-5.1-5-6.9-8.4c-1.7-3.4-2.6-7.5-2.6-12.4c0-5.8,1-11,3.1-15.5c2.1-4.5,4.9-8.2,8.6-11c3.6-2.9,7.7-5,12.3-6.4
			c4.6-1.4,9.4-2.1,14.5-2.1c5.4,0,10.5,0.6,15.1,1.9c4.6,1.2,8.8,3.2,12.4,5.9c3.7,2.7,6.6,6.3,8.8,10.7c2.2,4.4,3.4,9.8,3.5,16
			h-27.8c0-0.2,0-0.4,0-0.7c0.1-0.4,0.1-0.6,0.1-0.7c0-2.9-1.2-5.2-3.6-7c-1.2-0.9-2.5-1.6-4-2c-1.5-0.4-3.1-0.7-4.7-0.7
			c-2.7,0-5.1,0.5-7.3,1.6c-2.2,1-3.3,2.9-3.3,5.6c0.2,2.7,1.8,4.7,4.8,6.2c3,1.4,7.8,3,14.3,4.8c4.1,1.1,6.9,1.9,8.6,2.4
			c3.8,1.2,7.3,2.5,10.4,4c3.1,1.5,5.9,3.4,8.3,5.7c2.5,2.3,4.5,5.2,5.9,8.7c1.5,3.5,2.2,7.5,2.2,12.2c0,6.6-1.2,12.3-3.7,17
			c-2.5,4.7-5.8,8.5-10,11.3c-4.2,2.9-8.9,4.9-14.1,6.2c-5.2,1.3-10.6,1.9-16.2,1.9c-3.6,0-7.6-0.5-12.1-1.4
			c-4.5-0.9-9-2.7-13.6-5.4c-4.6-2.7-8.4-6.6-11.5-11.7c-3.1-5.1-4.7-11.7-4.7-19.6H982.5z"/>
		<path d="M1071.5,188.4h26.4l32,100.8c-8.7,0-17.4,0-26.1,0c-0.6,0-1.3,0-1.9,0c-1.2-4.8-2.5-9.6-3.7-14.4h-27.9l-3.9,14.4h-27.2
			L1071.5,188.4z M1092.7,253.2l-7.9-31.1h-0.2l-8.5,31.1H1092.7z"/>
		<path d="M1260.8,240.6c0,14.5-3.4,25.7-10.3,33.7c-12.4,14.5-33.3,14.6-39.5,14.7c-0.3,0-29.3,0-29.9,0c-6.4,0-28.3,0.1-41-14.8
			c-6.8-8-10.2-19.2-10.2-33.6v-72.4h34.6v64.3c0,4.2,0.1,7.7,0.4,10.4c0.3,2.8,0.9,5.4,1.9,8c1,2.6,2.7,4.7,5,6.3
			c2.4,1.6,5.5,2.4,9.5,2.4c0.6,0,29.5,0,29.7,0c1.8-0.1,5-0.2,8.2-2.4c2-1.3,3.1-2.9,3.5-3.4c0.6-0.9,1.1-1.8,1.5-2.9
			c1-2.6,1.6-5.3,1.8-8c0.2-2.8,0.3-6.2,0.3-10.4v-64.3h34.6V240.6z"/>
		<path d="M605.8,178.3c10.1,0,20.2,0,30.2,0c10.1,16.8,20.2,33.6,30.2,50.4c0-13.4,0-46.7,0-60.1c10.1,0,20.2,0,30.2,0
			c0,33.6,0,87,0,120.6c-10.1,0-20.2,0-30.2,0c-10.1-20.2-20.2-40.3-30.2-60.5c0,20.2,0,40.3,0,60.5c-10.1,0-20.2,0-30.2,0
			C605.8,252.2,605.8,215.2,605.8,178.3z"/>
		<path d="M813.8,309.3c-11.3-33.6-15.7-47.4-21.1-63.5c-2.7-8.2-19.3-57.7-21.8-65.2c-0.4-1.2-0.7-2-0.8-2.3h-30.7l-37.5,110.8
			h31.5l4.6-15.8c11,0,22.1-0.1,33.1-0.1c5.3,15.4,7.1,20.8,12.4,36.2C793.7,309.3,803.7,309.3,813.8,309.3z M744.9,249.5l9.8-34.1
			h0.3l9.1,34.1H744.9z"/>
		<g>
			<rect x="1039.1" y="77.5" width="30.2" height="100.8"/>
			<rect x="1039.1" y="37.2" width="30.2" height="30.2"/>
		</g>
		<path d="M384,258.6"/>
		<path d="M505,289.2"/>
		<g>
			<path d="M663.7,149.6c-3.2-13.9-1.3-19.6-5-26.7c-1.6-3-4.6-7.1-11.2-10.8c5.4-2.1,9.5-6.1,12.3-11.8c1-2.1,1.7-3.9,2.1-5
				c0.3-1,1.1-3.3,1.6-6.2c0.2-1,0.6-33.6,0.6-37c0-11-3.5-19.5-10.4-25.5c-6.9-6-15.5-9.1-25.7-9.1h-62.6V138h31.8V126h18.1
				c3.2,0,5.8,0.7,7.7,1.9c2,1.3,3.5,3,4.5,5.2c1.5,3.2,2,6.3,2.1,6.9c0.6,4.2,1.5,10.4,2.4,18.1h34.1
				C665.5,156.3,664.6,153.3,663.7,149.6z M630.1,88.1c0,2.6-0.5,4.7-1.4,6.4c-0.9,1.6-2.1,2.9-3.6,3.6c-1.4,0.8-3,1.3-4.6,1.6
				c-1.7,0.3-3.5,0.4-5.4,0.4h-17.8V46.4c5.3,0,10.6,0,16,0c5.9-0.3,9.5,1,11.3,1.9c0.9,0.4,1.4,0.8,1.8,1.1c3.2,2.6,3.7,6.8,3.8,8
				C630.1,57.8,630.1,87.8,630.1,88.1z"/>
			<rect x="565.4" y="148.1" width="30.2" height="30.2"/>
		</g>
	</g>
	<g>
		<path class="st0" d="M285.7,290.6H130c-64.9,0-117.9-53.1-117.9-117.9V17h273.6V290.6z"/>
		<g>
			<g>
				<path class="st1" d="M216.2,252.6C216.2,252.6,216.2,252.6,216.2,252.6c-21.9,0-39.8-17.9-39.8-39.9l0-86.7l-86.3,0
					C68.2,126,50.4,108,50.4,86c0-22,17.8-39.9,39.8-39.9c0,0,0,0,0,0l126.1,0c0,0,0,0,0,0c10.6,0,20.6,4.2,28.1,11.7
					C251.8,65.4,256,75.4,256,86l0,126.6c0,10.7-4.1,20.7-11.6,28.2C236.8,248.4,226.8,252.6,216.2,252.6z M178.5,124l0,88.7
					c0,20.9,16.9,37.9,37.8,37.9c0,0,0,0,0,0c10.1,0,19.6-3.9,26.7-11.1c7.1-7.2,11.1-16.7,11.1-26.8L254,86
					c0-10.1-3.9-19.7-11.1-26.8c-7.1-7.2-16.6-11.1-26.7-11.1c0,0,0,0,0,0l-126.1,0c0,0,0,0,0,0c-20.8,0-37.8,17-37.8,37.9
					c0,20.9,16.9,37.9,37.8,37.9L178.5,124z"/>
			</g>
			<path class="st2" d="M242.7,98.4c0-21.5-17.3-38.9-38.8-38.9l-126.1,0c-21.4,0-38.8,17.4-38.8,38.9c0,21.5,17.4,38.9,38.8,38.9
				l62,0c14,0,25.4,11.4,25.4,25.4l0,62.3c0,21.5,17.4,38.9,38.8,38.9c21.4,0,38.8-17.4,38.8-38.9L242.7,98.4z"/>
			<circle class="st2" cx="132" cy="170.5" r="26"/>
		</g>
	</g>
</g>
</svg>
