<?xml version="1.0" encoding="utf-8"?>
<!-- Generator: Adobe Illustrator 27.2.0, SVG Export Plug-In . SVG Version: 6.00 Build 0)  -->
<svg version="1.1" id="Camada_1" xmlns="http://www.w3.org/2000/svg" xmlns:xlink="http://www.w3.org/1999/xlink" x="0px" y="0px"
	 viewBox="0 0 164.8 36.7" style="enable-background:new 0 0 164.8 36.7;" xml:space="preserve">
<style type="text/css">
	.st0{fill:#FFFFFF;}
	.st1{fill:#0D3068;}
	.st2{fill:#E2002B;}
	.st3{fill:#FDD302;}
</style>
<g>
	<g>
		<g>
			<path class="st0" d="M44.1,23.8c-1.3,1.2-2.8,1.7-4.7,1.7c-1.8,0-3.4-0.6-4.7-1.7c-1.3-1.2-1.9-2.7-1.9-4.5V10h3.3v9.1
				c0,1,0.3,1.8,1,2.4c0.6,0.6,1.4,1,2.4,1c0.9,0,1.7-0.3,2.3-1c0.6-0.6,0.9-1.5,0.9-2.4V10H46v9.3C46,21.1,45.3,22.6,44.1,23.8z"/>
			<path class="st0" d="M49.1,25.3V10h3.6l4,6c0.3,0.5,0.7,1.1,1.1,1.7c0.4,0.7,0.8,1.2,1.1,1.6l0.4,0.7V10h3.3v15.3h-3.5l-3.8-5.7
				c-0.4-0.6-0.9-1.3-1.4-2c-0.5-0.7-0.9-1.3-1.2-1.7l-0.4-0.6v10.1H49.1z"/>
			<path class="st0" d="M65.9,25.3V10h3.3v15.3H65.9z"/>
			<path class="st0" d="M72.5,25.3V10h3.6l4,6c0.3,0.5,0.7,1.1,1.1,1.7c0.4,0.7,0.8,1.2,1.1,1.6l0.4,0.7V10h3.3v15.3h-3.5l-3.8-5.7
				c-0.4-0.6-0.9-1.3-1.4-2c-0.5-0.7-0.9-1.3-1.2-1.7l-0.4-0.6v10.1H72.5z"/>
			<path class="st0" d="M87.8,25.3L94.5,10h3.3l6.5,15.3h-3.2l-1-2.4h-7.8l-1,2.4H87.8z M93.4,20.3H99l-1.2-2.9l-1.6-3.9
				c-0.5,1.6-1,2.9-1.5,4L93.4,20.3z"/>
			<path class="st0" d="M105.5,23.5l1.2-2.6c1.6,1.1,3.3,1.7,5.1,1.7c0.8,0,1.5-0.2,2.1-0.5c0.6-0.4,0.9-0.8,0.9-1.3
				c0-0.5-0.2-0.9-0.7-1.2c-0.5-0.3-1.2-0.5-2.1-0.7c-0.7-0.2-1.2-0.3-1.7-0.4c-0.5-0.1-1-0.3-1.5-0.6c-0.6-0.3-1-0.5-1.3-0.9
				c-0.3-0.3-0.6-0.7-0.9-1.2c-0.2-0.5-0.4-1-0.4-1.7c0-1.4,0.6-2.5,1.7-3.3c1.1-0.8,2.5-1.2,4-1.2c2.1,0,4,0.5,5.6,1.6l-1.2,2.6
				c-1.4-0.8-2.8-1.3-4.4-1.3c-0.6,0-1.1,0.1-1.6,0.3c-0.5,0.2-0.8,0.6-0.8,1.1c0,0.5,0.2,0.8,0.7,1.1c0.5,0.2,1.2,0.5,2.2,0.7
				c3.9,0.9,5.8,2.5,5.8,4.9c0,1.5-0.6,2.7-1.9,3.5c-1.3,0.8-2.7,1.2-4.4,1.2C109.2,25.5,107.2,24.9,105.5,23.5z"/>
			<path class="st0" d="M119.9,23.5l1.2-2.6c1.6,1.1,3.3,1.7,5.1,1.7c0.8,0,1.5-0.2,2.1-0.5c0.6-0.4,0.9-0.8,0.9-1.3
				c0-0.5-0.2-0.9-0.7-1.2c-0.5-0.3-1.2-0.5-2.1-0.7c-0.7-0.2-1.2-0.3-1.7-0.4c-0.5-0.1-1-0.3-1.5-0.6c-0.6-0.3-1-0.5-1.3-0.9
				c-0.3-0.3-0.6-0.7-0.9-1.2c-0.2-0.5-0.4-1-0.4-1.7c0-1.4,0.6-2.5,1.7-3.3c1.1-0.8,2.5-1.2,4-1.2c2.1,0,4,0.5,5.6,1.6l-1.2,2.6
				c-1.4-0.8-2.8-1.3-4.4-1.3c-0.6,0-1.1,0.1-1.6,0.3c-0.5,0.2-0.8,0.6-0.8,1.1c0,0.5,0.2,0.8,0.7,1.1c0.5,0.2,1.2,0.5,2.2,0.7
				c3.9,0.9,5.8,2.5,5.8,4.9c0,1.5-0.6,2.7-1.9,3.5c-1.3,0.8-2.7,1.2-4.4,1.2C123.7,25.5,121.6,24.9,119.9,23.5z"/>
			<path class="st0" d="M133.5,25.3l6.6-15.3h3.3l6.5,15.3h-3.2l-1-2.4H138l-1,2.4H133.5z M139.1,20.3h5.6l-1.2-2.9l-1.6-3.9
				c-0.5,1.6-1,2.9-1.5,4L139.1,20.3z"/>
			<path class="st0" d="M162.4,23.8c-1.3,1.2-2.8,1.7-4.7,1.7c-1.8,0-3.4-0.6-4.7-1.7c-1.3-1.2-1.9-2.7-1.9-4.5V10h3.3v9.1
				c0,1,0.3,1.8,1,2.4s1.4,1,2.4,1c0.9,0,1.7-0.3,2.3-1c0.6-0.6,0.9-1.5,0.9-2.4V10h3.3v9.3C164.3,21.1,163.7,22.6,162.4,23.8z"/>
		</g>
	</g>
	<g>
		<g>
			<path class="st1" d="M1.1,7.7v18.5c0,0.7,0.1,1.4,0.4,2v0c0.8,1.7,3.2,2.9,5.1,3.3c3.8,0.7,5.5,1.3,6.2,2.3
				c0.7-1.1,2.5-1.6,6.2-2.3c1.9-0.4,4.3-1.5,5.1-3.3v0c0.3-0.6,0.4-1.3,0.4-2V7.7c0,0-10.6,0-11.8,0C11.7,7.7,1.1,7.7,1.1,7.7z"/>
		</g>
		<g>
			<path class="st0" d="M25,1.7v5.7v0.5v18.4c0,0.7-0.2,1.5-0.5,2.1c-0.4,0.9-1.2,1.7-2.3,2.3c-0.9,0.5-2,1-3.1,1.2
				c-3.9,0.7-5.4,1.3-6,2.2l-0.3,0.4L12.6,34c-0.6-0.9-2.1-1.4-6-2.2c-1-0.2-2.2-0.6-3.1-1.2c-1.1-0.7-1.9-1.5-2.3-2.3
				c-0.3-0.7-0.5-1.4-0.5-2.1V7.9V7.4V1.7h6.6v1.1h2.3V1.7h6.6v1.1h2.3V1.7H25 M25.7,1H25h-6.6h-0.7v0.7v0.4h-0.8V1.7V1h-0.7H9.6
				H8.9v0.7v0.4H8V1.7V1H7.3H0.7H0v0.7v5.7v0.5v18.4c0,0.8,0.2,1.7,0.5,2.4c0.4,1,1.3,1.9,2.6,2.7c1,0.6,2.2,1,3.3,1.2
				c3.6,0.7,5.1,1.2,5.5,1.9l0.3,0.4l0.6,0.9l0.6-0.9l0.3-0.4c0.5-0.7,2-1.2,5.5-1.9c1.1-0.2,2.3-0.7,3.3-1.2
				c1.3-0.7,2.1-1.6,2.6-2.7c0.3-0.8,0.5-1.6,0.5-2.4V7.9V7.4V1.7V1L25.7,1z"/>
		</g>
		<g>
			<polygon class="st2" points="18.8,2 18.8,3.2 15.8,3.2 15.8,2 10,2 10,3.2 6.9,3.2 6.9,2 1.1,2 1.1,3.2 1.1,7.5 24.6,7.5 
				24.6,3.2 24.6,2 			"/>
		</g>
		<g>
			<path class="st0" d="M3,6.5L2.2,4.3h0.4l0.5,1.2L3.2,6c0.1-0.2,0.1-0.4,0.2-0.5l0.5-1.2h0.4L3.4,6.5H3z"/>
			<path class="st0" d="M5.9,6.5V4.3h1.6v0.3H6.3v0.5h1.2v0.3H6.3v0.6h1.3v0.3H5.9z"/>
			<path class="st0" d="M9.3,6.5V4.3h0.9c0.3,0,0.5,0.1,0.7,0.2c0.2,0.2,0.2,0.3,0.2,0.6c0,0.1,0,0.3-0.1,0.4
				c-0.1,0.1-0.2,0.2-0.3,0.3l0.5,0.6h-0.5l-0.4-0.5c-0.1,0-0.2,0-0.3,0H9.7v0.5H9.3z M9.7,5.6h0.5c0.2,0,0.3,0,0.4-0.1
				c0.1-0.1,0.1-0.2,0.1-0.3c0-0.1,0-0.3-0.1-0.3c-0.1-0.1-0.2-0.1-0.4-0.1H9.7V5.6z"/>
			<path class="st0" d="M12.9,6.5V4.3h0.4v2.1H12.9z"/>
			<path class="st0" d="M15.7,6.5V4.7H15V4.3h1.9v0.3h-0.7v1.8H15.7z"/>
			<path class="st0" d="M18.1,6.5l1-2.1h0.4l1,2.1h-0.4l-0.2-0.4h-1.2l-0.2,0.4H18.1z M18.7,5.8h0.9l-0.2-0.5c0-0.1-0.1-0.1-0.1-0.2
				c0-0.1-0.1-0.2-0.1-0.2l0-0.1c-0.1,0.2-0.1,0.4-0.2,0.5L18.7,5.8z"/>
			<path class="st0" d="M21.9,6.2L22,5.9c0.2,0.2,0.4,0.2,0.7,0.2c0.1,0,0.2,0,0.3-0.1c0.1-0.1,0.1-0.1,0.1-0.2c0-0.1,0-0.1-0.1-0.2
				c0,0-0.1-0.1-0.1-0.1c-0.1,0-0.1,0-0.2-0.1c-0.1,0-0.2,0-0.2-0.1c-0.1,0-0.1,0-0.2-0.1s-0.1-0.1-0.2-0.1c0,0-0.1-0.1-0.1-0.2
				c0-0.1,0-0.1,0-0.2c0-0.2,0.1-0.3,0.2-0.4c0.2-0.1,0.3-0.2,0.5-0.2c0.3,0,0.5,0.1,0.8,0.2l-0.1,0.3c-0.2-0.1-0.4-0.2-0.6-0.2
				c-0.1,0-0.1,0-0.2,0c-0.1,0-0.1,0-0.2,0.1c0,0-0.1,0.1-0.1,0.1c0,0.1,0,0.1,0.1,0.2c0.1,0,0.2,0.1,0.3,0.1c0.1,0,0.2,0.1,0.3,0.1
				c0.1,0,0.2,0.1,0.2,0.1c0.1,0,0.1,0.1,0.2,0.2c0,0.1,0.1,0.2,0.1,0.3c0,0.2-0.1,0.4-0.3,0.5c-0.2,0.1-0.4,0.2-0.6,0.2
				C22.4,6.5,22.1,6.4,21.9,6.2z"/>
		</g>
		<g>
			<g>
				<path class="st3" d="M7.8,29c0,0.2-0.1,0.4,0.1,0.5c0.1-0.1,0.2-0.2,0.3-0.2c0.2,0,0.3-0.2,0.4-0.4c-0.1,0.2-0.1,0.4,0.1,0.6
					c0.1-0.1,0.2-0.2,0.3-0.3c0,0,0.1,0,0.1,0c0.1-0.1,0.2-0.1,0.2-0.3c0.3-0.1,0.5-0.1,0.7,0.1c0.1,0.1,0.1,0.1,0.1,0.2
					c0.3-0.4,0.1-0.8-0.3-0.9c-0.4-0.4,0.4-1.5,0.7-1.8c0,0.3-0.1,0.5-0.2,0.7c0.4-0.1,0.6-0.4,0.8-0.7c0.6,0.6,1.2,1.2,1.9,1.7
					c0.5,0,0.9,0.1,1.2,0.2c-0.7,0-1.4-0.2-1.7,0.6c-0.1-0.3,0-0.5,0.2-0.8c-0.3-0.2-1-0.3-1.3-0.1c-0.5,0.3-0.6,0.9-0.3,1.3
					c0.1,0.1,0.2,0,0.3,0c-0.1-0.3,0-0.6,0.2-0.8c0.1-0.1,0.3-0.1,0.3-0.1c-0.1,0.1-0.2,0.1-0.2,0.2c-0.1,0.2-0.1,0.5,0.1,0.7
					c0,0,0.1,0,0.2,0c1.7,0,3.4,0,5.1-0.1c0.1,0,0.2,0,0.2-0.1c0-0.2,0.3-0.4,0.3-0.4c0.6-0.2,1-0.3,1.3-0.9
					c0.6-2.3-2.3-3.3-0.4-3.7c0,0.1-0.1,0.1-0.1,0.2c0.5,0,0.8-0.3,0.7-0.8c-0.1-0.2-0.2-0.4-0.2-0.6c0.4-0.9,0.9-0.5,0.2-1.6
					c-0.1-0.2-0.3,0.6-0.5,0.7c0-0.1,0.1-0.2,0.2-0.4c-0.4,0.2-0.8,0.3-0.8,0.9c0,0.6,0.8,1.2-0.4,1.1c-1.4,1.3,1.5,1.8,0.8,3.8
					c-0.1,0.2-0.3,0.2-0.5,0.2c-0.1-0.1-0.1-0.3-0.1-0.5c-0.2-1.4-0.9-2.6-2.2-3.2c0.7-0.2,1.2-0.6,1.7-1.2c-0.5,0.1-1.1,0-1.6,0
					c1.1-0.1,2.1-0.3,2.6-1.4c-0.7,0.1-1.3,0-2-0.2c2.1,0.2,4.7-0.6,5.4-2.2c-1.5,0.6-3.2,1.4-4.8,1.1c1.8-0.3,4.6-1.1,5.5-3.2
					c-0.9,0.7-2.4,1.7-4.7,1.8c0,0,4.7-1,5.2-3.8c-2.3,2-4.7,2.7-4.7,2.7s5.1-2.5,5.1-5.2c-0.6,0.7-1.4,1.7-2.6,2.5
					c-0.8,0.6-1.6,1-2.2,1.3c0.5-0.3,1.5-0.8,2.3-1.9c1.2-1.6,1.2-3.2,1.2-3.8c-0.5,1.3-1.4,2.8-3,4c-0.2,0.1-0.4,0.3-0.6,0.4
					c0.3-0.3,1.1-0.9,1.5-2.1c0.6-1.7-0.1-3.2-0.2-3.5c0,0.6,0,1.7-0.6,2.9c-0.3,0.7-0.7,1.2-1,1.5c0.2-0.4,0.4-1,0.4-1.8
					c0-1.6-0.8-2.7-1.1-3c0.2,0.8,0.3,1.8,0.1,3.1c-0.1,0.5-0.2,0.9-0.3,1.3c0-0.4-0.1-1-0.3-1.6c-0.6-1.5-2-2.2-2.4-2.3
					c0.4,0.6,0.7,1.4,1,2.3c0.1,0.4,0.2,0.8,0.3,1.1c-0.2-0.3-0.7-1-1.5-1.5C13.1,11,12.1,11,11.7,11c1.6,0.8,2.4,1.8,2.8,2.4
					c1.2,1.6,2.1,4.3,1,6.6c-0.3,0.6-0.7,1-0.9,1.3c0-0.1-0.1-0.2-0.1-0.2c0-0.1-0.1-0.2-0.1-0.2c0.1,0.1,0.1,0.1,0.2,0.2
					c0.1-0.6,0-1.1-0.3-1.6c0.1,0.1,0.3,0.2,0.4,0.3c-0.1-0.7-0.5-1.2-1-1.6c0.2,0,0.5,0.1,0.7,0.2c-0.5-0.8-1.2-0.9-2-1
					c0.2-0.1,0.4-0.2,0.6-0.3c-1.2-0.1-3.1-0.2-2.9,1.5c-0.8,0.2-1.3,0.8-0.6,1.6c0,0,0-0.1,0-0.1c0.3-0.4,1-0.3,1.5-0.3
					c0,0,0,0,0,0c0,0-0.1,0.1-0.1,0.2c0,0,0.1,0.1,0.1,0.2c0,0.1-0.1,0.3-0.1,0.3c-1.2,1.4-2,3.6-1.8,5.4c0.2-0.3,0.4-0.6,0.5-0.9
					c-0.1,0.7-0.2,1.3-0.4,1.9c0.3-0.1,0.4-0.2,0.6-0.4c-0.6,1.7-2.6,2.6-2.5,3.2c0.1-0.1,0.1-0.1,0.2-0.2c0,0,0.1,0,0.2,0
					C7.7,29.1,7.7,29,7.8,29z M10.4,18.4C10.4,18.4,10.4,18.3,10.4,18.4c0.1-0.4,0.3-0.5,0.7-0.5C10.8,18.1,10.6,18.2,10.4,18.4z"/>
				<path class="st1" d="M10.4,18.4C10.4,18.4,10.4,18.3,10.4,18.4c0.1-0.4,0.3-0.5,0.7-0.5C10.8,18.1,10.6,18.2,10.4,18.4z"/>
			</g>
			<g>
				<g>
					<polygon class="st0" points="12.7,14.2 9.8,14.6 11,15.3 9.6,15.3 10.5,16.4 9.1,15.8 9.7,17.2 8.6,16.3 8.6,17.7 7.9,16.5 
						7.5,18.7 7.1,16.5 6.4,17.7 6.5,16.3 5.4,17.2 5.9,15.8 4.6,16.4 5.4,15.3 4,15.3 5.2,14.6 2.3,14.2 5.2,13.8 4,13.1 5.4,13.2 
						4.6,12.1 5.9,12.6 5.4,11.2 6.5,12.1 6.4,10.7 7.1,11.9 7.5,9.7 7.9,11.9 8.6,10.7 8.6,12.1 9.7,11.2 9.1,12.6 10.5,12.1 
						9.6,13.2 11,13.1 9.8,13.8 					"/>
					<circle class="st1" cx="7.5" cy="14.2" r="1.1"/>
				</g>
			</g>
		</g>
	</g>
</g>
</svg>
