<svg version="1.1" id="Camada_1" xmlns="http://www.w3.org/2000/svg" x="0" y="0" viewBox="0 0 1276.8 318.8" style="enable-background:new 0 0 1276.8 318.8" xml:space="preserve"><style>.st2{fill:#fce200}</style><path d="M379.6 17H409l35.5 121h-31.1l-4.1-17.3h-31l-4.4 17.3h-30.2l35.9-121zm23.7 77.8-8.7-37.3h-.3l-9.4 37.3h18.4zM454.6 17h58.9c7.4 0 13.7 1.2 19.2 3.7 5.4 2.5 9.8 5.8 13.1 9.8 3.3 4.1 5.7 8.4 7.3 13.2 1.5 4.7 2.3 9.4 2.3 13.9 0 0 0 21.8-.1 23.4-1 17.5-12.1 28.3-12.1 28.3-12.1 11.5-30 10.7-32.6 10.7h-24.5v28h-31.5V17zm31.5 74.8h15.1c2.4 0 4.5-.1 6.4-.3 1.8-.2 3.5-.7 5-1.6 1.5-.8 2.7-2.1 3.6-3.8 1.1-2.1 1.2-4.3 1.3-5.7V59c0-1.7-.1-3.9-1.1-6.2-.7-1.6-1.8-2.8-3.1-3.5-1.4-.7-2.8-1.2-4.4-1.4-1.6-.2-3.5-.3-5.9-.3h-16.9v44.2zM676.3 27.1h110.9v31h-75.8v29.4h45.5v30.2h-45.5v9.3h126.2v31H676.3V27.1z"/><path d="M797.2 27.1h30.2c13.4 23.5 26.9 47 40.3 70.5V47.2c10.1.1 20.2.1 30.2.2v110.7h-30.2c-13.4-26.9-26.9-53.8-40.3-80.6v40.3h-30.2V27.1zM908.1 17.1H982c8.4 0 15.6 1.6 21.6 4.8 6 3.2 10.9 7.6 14.7 13.2 3.7 5.6 6.5 11.8 8.2 18.8 1.7 7 2.6 14.4 2.6 22.2v24.5c-.5 26.9-13.4 41.8-13.4 41.8-14.6 16.9-36.7 15.9-40 15.7h-67.6v-141zm32.2 110.6H974c4.8 0 8.7-.9 11.8-2.8 3.1-1.9 5.4-4.3 7-7.3 1.6-3 2.7-6.1 3.3-9.4.1-.6.6-3.4.8-7.4 0-.6.1-24.1.1-25.3 0-1.3-.2-4.7-.8-8.4-.5-3-1.7-6.1-3.4-9.1s-4.3-5.6-7.7-7.6c-4.7-2.8-9.4-2.9-11.8-3h-32.9v80.3zM1079.4 127.9c30.2-20.2 60.5-40.3 90.7-60.5h-90.7V37.2h141.1v30.2c-26.9 20.2-53.8 40.3-80.6 60.5h120.9v30.2h-181.4v-30.2zM444.5 243.5c0 30.2-17.3 45.4-52 45.4s-48.8-20.2-48.8-45.4V148h35.2v80.4c0 3.9.1 14.6.4 17.2.3 2.6.9 5.1 1.9 7.5.5 1.2 1.1 2.1 1.3 2.4 1.6 2.4 5.3 5.3 10.2 5.8.4 0 5.2.5 9.4-2.2 2.3-1.5 4-3.5 5-5.9 1-2.4 1.6-4.9 1.8-7.5.2-2.6.3-13.3.3-17.2V148h35.2v95.5zM454.6 168.2h30.2c13.4 20.2 26.9 40.3 40.3 60.5V127.9h30.2v161.3h-30.2c-13-21.3-26.1-42.7-39.1-64h-.3v84.2h-31.2V168.2zM565.4 188.4h30.2v100.8h-30.2V188.4zM841.5 248c0 2.8.4 5.4 1.2 7.6 1.1 3.1 3.2 5.3 6.1 6.6 2.9 1.2 5.6 1.6 7.3 1.7h41.3c3.3.2 5.6-.2 6.6-.3.1 0 .2 0 .4-.1 1.6-.3 3.1-.9 4.6-1.6 1.4-.8 2.6-1.8 3.5-3.2.9-1.4 1.3-3.1 1.3-5.2 0-1.5-.4-2.8-1.1-3.8-.7-1-1.9-2-3.6-2.9-1.7-.9-4-1.9-7-2.8-2.9-1-47.7-2.2-52.9-3.7l-1.9-.5c-6-1.8-10.8-3.4-14.4-4.8-3.6-1.4-7-3.2-10.3-5.6-3.3-2.4-6-5.4-8-9.2s-3-8.3-3-13.6c0-6.4 1.2-12 3.6-17 2.4-4.9 5.7-9 9.9-12.1 4.2-3.1 8.9-5.5 14.3-7 5.3-1.5 10.9-2.3 16.8-2.3 6.3 0 52.9.7 58.3 2 5.4 1.4 10.2 3.5 14.4 6.5 4.2 3 7.6 6.9 10.2 11.8 2.5 4.9 3.9 10.7 4.1 17.5H911v-.8c.1-.4.2-.7.2-.8 0-3.1-1.4-5.7-4.2-7.6-1.3-1-2.9-1.7-4.7-2.2-2.2-.6-4.2-.7-4.9-.7h-41.3c-2.1 0-5.2.3-8.5 1.7-2.5 1.1-3.8 3.2-3.8 6.1.2 2.9 2.1 5.2 5.6 6.7 3.5 1.6 49.8 3.3 57.3 5.3 4.8 1.2 8.1 2.1 9.9 2.6 4.4 1.3 8.5 2.8 12 4.4 3.6 1.6 6.8 3.7 9.7 6.3 2.9 2.5 5.2 5.7 6.9 9.5 1.7 3.8 2.6 8.2 2.6 13.3 0 7.3-1.4 13.5-4.3 18.6-2.9 5.1-6.8 9.3-11.6 12.4-4.9 3.1-10.3 5.4-16.4 6.8-6.1 1.4-53.1 2.1-59.6 2.1-4.1 0-8.8-.5-14-1.5-5.2-1-10.5-3-15.8-5.9-5.3-2.9-9.8-7.2-13.3-12.8-3.6-5.6-5.4-12.8-5.5-21.4h34.2zM982.5 251.1c0 2.6.4 4.9 1.1 7 1 2.9 2.7 4.9 5.3 6 2.5 1.1 5.5 1.7 8.8 1.7 1.3 0 2.7-.1 4.1-.4 1.4-.3 2.7-.8 3.9-1.5 1.2-.7 2.2-1.7 3-3 .8-1.3 1.1-2.9 1.1-4.7 0-1.4-.3-2.5-.9-3.5-.6-.9-1.7-1.8-3.1-2.7-1.5-.8-3.5-1.7-6-2.6-2.5-.9-6-2-10.5-3.4l-1.6-.4c-5.2-1.7-9.3-3.1-12.4-4.4-3.1-1.2-6-2.9-8.9-5.1-2.9-2.2-5.1-5-6.9-8.4-1.7-3.4-2.6-7.5-2.6-12.4 0-5.8 1-11 3.1-15.5s4.9-8.2 8.6-11c3.6-2.9 7.7-5 12.3-6.4 4.6-1.4 9.4-2.1 14.5-2.1 5.4 0 10.5.6 15.1 1.9 4.6 1.2 8.8 3.2 12.4 5.9 3.7 2.7 6.6 6.3 8.8 10.7 2.2 4.4 3.4 9.8 3.5 16h-27.8v-.7c.1-.4.1-.6.1-.7 0-2.9-1.2-5.2-3.6-7-1.2-.9-2.5-1.6-4-2-1.5-.4-3.1-.7-4.7-.7-2.7 0-5.1.5-7.3 1.6-2.2 1-3.3 2.9-3.3 5.6.2 2.7 1.8 4.7 4.8 6.2 3 1.4 7.8 3 14.3 4.8 4.1 1.1 6.9 1.9 8.6 2.4 3.8 1.2 7.3 2.5 10.4 4 3.1 1.5 5.9 3.4 8.3 5.7 2.5 2.3 4.5 5.2 5.9 8.7 1.5 3.5 2.2 7.5 2.2 12.2 0 6.6-1.2 12.3-3.7 17-2.5 4.7-5.8 8.5-10 11.3-4.2 2.9-8.9 4.9-14.1 6.2-5.2 1.3-10.6 1.9-16.2 1.9-3.6 0-7.6-.5-12.1-1.4-4.5-.9-9-2.7-13.6-5.4s-8.4-6.6-11.5-11.7c-3.1-5.1-4.7-11.7-4.7-19.6h29.3zM1071.5 188.4h26.4l32 100.8h-28c-1.2-4.8-2.5-9.6-3.7-14.4h-27.9l-3.9 14.4h-27.2l32.3-100.8zm21.2 64.8-7.9-31.1h-.2l-8.5 31.1h16.6zM1260.8 240.6c0 14.5-3.4 25.7-10.3 33.7-12.4 14.5-33.3 14.6-39.5 14.7h-29.9c-6.4 0-28.3.1-41-14.8-6.8-8-10.2-19.2-10.2-33.6v-72.4h34.6v64.3c0 4.2.1 7.7.4 10.4.3 2.8.9 5.4 1.9 8 1 2.6 2.7 4.7 5 6.3 2.4 1.6 5.5 2.4 9.5 2.4h29.7c1.8-.1 5-.2 8.2-2.4 2-1.3 3.1-2.9 3.5-3.4.6-.9 1.1-1.8 1.5-2.9 1-2.6 1.6-5.3 1.8-8 .2-2.8.3-6.2.3-10.4v-64.3h34.6v72.4zM605.8 178.3H636c10.1 16.8 20.2 33.6 30.2 50.4v-60.1h30.2v120.6h-30.2C656.1 269 646 248.9 636 228.7v60.5h-30.2V178.3zM813.8 309.3c-11.3-33.6-15.7-47.4-21.1-63.5-2.7-8.2-19.3-57.7-21.8-65.2-.4-1.2-.7-2-.8-2.3h-30.7l-37.5 110.8h31.5l4.6-15.8c11 0 22.1-.1 33.1-.1 5.3 15.4 7.1 20.8 12.4 36.2 10.2-.1 20.2-.1 30.3-.1zm-68.9-59.8 9.8-34.1h.3l9.1 34.1h-19.2zM1039.1 77.5h30.2v100.8h-30.2zM1039.1 37.2h30.2v30.2h-30.2zM663.7 149.6c-3.2-13.9-1.3-19.6-5-26.7-1.6-3-4.6-7.1-11.2-10.8 5.4-2.1 9.5-6.1 12.3-11.8 1-2.1 1.7-3.9 2.1-5 .3-1 1.1-3.3 1.6-6.2.2-1 .6-33.6.6-37 0-11-3.5-19.5-10.4-25.5s-15.5-9.1-25.7-9.1h-62.6V138h31.8v-12h18.1c3.2 0 5.8.7 7.7 1.9 2 1.3 3.5 3 4.5 5.2 1.5 3.2 2 6.3 2.1 6.9.6 4.2 1.5 10.4 2.4 18.1h34.1c-.6-1.8-1.5-4.8-2.4-8.5zm-33.6-61.5c0 2.6-.5 4.7-1.4 6.4-.9 1.6-2.1 2.9-3.6 3.6-1.4.8-3 1.3-4.6 1.6-1.7.3-3.5.4-5.4.4h-17.8V46.4h16c5.9-.3 9.5 1 11.3 1.9.9.4 1.4.8 1.8 1.1 3.2 2.6 3.7 6.8 3.8 8-.1.4-.1 30.4-.1 30.7zM565.4 148.1h30.2v30.2h-30.2z"/><path d="M285.7 290.6H130c-64.9 0-117.9-53.1-117.9-117.9V17h273.6v273.6z" style="fill:#003764"/><path d="M216.2 252.6c-21.9 0-39.8-17.9-39.8-39.9V126H90.1c-21.9 0-39.7-18-39.7-40s17.8-39.9 39.8-39.9h126.1c10.6 0 20.6 4.2 28.1 11.7C251.8 65.4 256 75.4 256 86v126.6c0 10.7-4.1 20.7-11.6 28.2-7.6 7.6-17.6 11.8-28.2 11.8zM178.5 124v88.7c0 20.9 16.9 37.9 37.8 37.9 10.1 0 19.6-3.9 26.7-11.1 7.1-7.2 11.1-16.7 11.1-26.8L254 86c0-10.1-3.9-19.7-11.1-26.8-7.1-7.2-16.6-11.1-26.7-11.1H90.1c-20.8 0-37.8 17-37.8 37.9s16.9 37.9 37.8 37.9l88.4.1z" style="fill:#fff"/><path class="st2" d="M242.7 98.4c0-21.5-17.3-38.9-38.8-38.9H77.8C56.4 59.5 39 76.9 39 98.4s17.4 38.9 38.8 38.9h62c14 0 25.4 11.4 25.4 25.4V225c0 21.5 17.4 38.9 38.8 38.9s38.8-17.4 38.8-38.9l-.1-126.6z"/><circle class="st2" cx="132" cy="170.5" r="26"/></svg>