<svg version="1.1" id="Camada_1" xmlns="http://www.w3.org/2000/svg" x="0" y="0" viewBox="0 0 164.8 36.7" style="enable-background:new 0 0 164.8 36.7" xml:space="preserve"><style>.st0{fill:#fff}.st1{fill:#0d3068}</style><path class="st0" d="M44.1 23.8c-1.3 1.2-2.8 1.7-4.7 1.7-1.8 0-3.4-.6-4.7-1.7-1.3-1.2-1.9-2.7-1.9-4.5V10h3.3v9.1c0 1 .3 1.8 1 2.4.6.6 1.4 1 2.4 1 .9 0 1.7-.3 2.3-1 .6-.6.9-1.5.9-2.4V10H46v9.3c0 1.8-.7 3.3-1.9 4.5zM49.1 25.3V10h3.6l4 6c.3.5.7 1.1 1.1 1.7.4.7.8 1.2 1.1 1.6l.4.7V10h3.3v15.3h-3.5l-3.8-5.7c-.4-.6-.9-1.3-1.4-2-.5-.7-.9-1.3-1.2-1.7l-.4-.6v10.1h-3.2zM65.9 25.3V10h3.3v15.3h-3.3zM72.5 25.3V10h3.6l4 6c.3.5.7 1.1 1.1 1.7.4.7.8 1.2 1.1 1.6l.4.7V10H86v15.3h-3.5l-3.8-5.7c-.4-.6-.9-1.3-1.4-2-.5-.7-.9-1.3-1.2-1.7l-.4-.6v10.1h-3.2zM87.8 25.3 94.5 10h3.3l6.5 15.3h-3.2l-1-2.4h-7.8l-1 2.4h-3.5zm5.6-5H99l-1.2-2.9-1.6-3.9c-.5 1.6-1 2.9-1.5 4l-1.3 2.8zM105.5 23.5l1.2-2.6c1.6 1.1 3.3 1.7 5.1 1.7.8 0 1.5-.2 2.1-.5.6-.4.9-.8.9-1.3s-.2-.9-.7-1.2c-.5-.3-1.2-.5-2.1-.7-.7-.2-1.2-.3-1.7-.4-.5-.1-1-.3-1.5-.6-.6-.3-1-.5-1.3-.9-.3-.3-.6-.7-.9-1.2-.2-.5-.4-1-.4-1.7 0-1.4.6-2.5 1.7-3.3 1.1-.8 2.5-1.2 4-1.2 2.1 0 4 .5 5.6 1.6l-1.2 2.6c-1.4-.8-2.8-1.3-4.4-1.3-.6 0-1.1.1-1.6.3-.5.2-.8.6-.8 1.1 0 .5.2.8.7 1.1.5.2 1.2.5 2.2.7 3.9.9 5.8 2.5 5.8 4.9 0 1.5-.6 2.7-1.9 3.5-1.3.8-2.7 1.2-4.4 1.2-2.7.2-4.7-.4-6.4-1.8zM119.9 23.5l1.2-2.6c1.6 1.1 3.3 1.7 5.1 1.7.8 0 1.5-.2 2.1-.5.6-.4.9-.8.9-1.3s-.2-.9-.7-1.2c-.5-.3-1.2-.5-2.1-.7-.7-.2-1.2-.3-1.7-.4-.5-.1-1-.3-1.5-.6-.6-.3-1-.5-1.3-.9-.3-.3-.6-.7-.9-1.2-.2-.5-.4-1-.4-1.7 0-1.4.6-2.5 1.7-3.3 1.1-.8 2.5-1.2 4-1.2 2.1 0 4 .5 5.6 1.6l-1.2 2.6c-1.4-.8-2.8-1.3-4.4-1.3-.6 0-1.1.1-1.6.3-.5.2-.8.6-.8 1.1 0 .5.2.8.7 1.1.5.2 1.2.5 2.2.7 3.9.9 5.8 2.5 5.8 4.9 0 1.5-.6 2.7-1.9 3.5-1.3.8-2.7 1.2-4.4 1.2-2.6.2-4.7-.4-6.4-1.8zM133.5 25.3l6.6-15.3h3.3l6.5 15.3h-3.2l-1-2.4H138l-1 2.4h-3.5zm5.6-5h5.6l-1.2-2.9-1.6-3.9c-.5 1.6-1 2.9-1.5 4l-1.3 2.8zM162.4 23.8c-1.3 1.2-2.8 1.7-4.7 1.7-1.8 0-3.4-.6-4.7-1.7-1.3-1.2-1.9-2.7-1.9-4.5V10h3.3v9.1c0 1 .3 1.8 1 2.4s1.4 1 2.4 1c.9 0 1.7-.3 2.3-1 .6-.6.9-1.5.9-2.4V10h3.3v9.3c0 1.8-.6 3.3-1.9 4.5z"/><path class="st1" d="M1.1 7.7v18.5c0 .7.1 1.4.4 2 .8 1.7 3.2 2.9 5.1 3.3 3.8.7 5.5 1.3 6.2 2.3.7-1.1 2.5-1.6 6.2-2.3 1.9-.4 4.3-1.5 5.1-3.3.3-.6.4-1.3.4-2V7.7H1.1z"/><path class="st0" d="M25 1.7V26.3c0 .7-.2 1.5-.5 2.1-.4.9-1.2 1.7-2.3 2.3-.9.5-2 1-3.1 1.2-3.9.7-5.4 1.3-6 2.2l-.3.4-.2-.5c-.6-.9-2.1-1.4-6-2.2-1-.2-2.2-.6-3.1-1.2-1.1-.7-1.9-1.5-2.3-2.3-.3-.7-.5-1.4-.5-2.1V1.7h6.6v1.1h2.3V1.7h6.6v1.1h2.3V1.7H25m.7-.7h-8v1.1h-.8V1h-8v1.1H8V1H0V26.3c0 .8.2 1.7.5 2.4.4 1 1.3 1.9 2.6 2.7 1 .6 2.2 1 3.3 1.2 3.6.7 5.1 1.2 5.5 1.9l.3.4.6.9.6-.9.3-.4c.5-.7 2-1.2 5.5-1.9 1.1-.2 2.3-.7 3.3-1.2 1.3-.7 2.1-1.6 2.6-2.7.3-.8.5-1.6.5-2.4V1h.1z"/><path style="fill:#e2002b" d="M18.8 2v1.2h-3V2H10v1.2H6.9V2H1.1v5.5h23.5V2z"/><path class="st0" d="m3 6.5-.8-2.2h.4l.5 1.2.1.5c.1-.2.1-.4.2-.5l.5-1.2h.4l-.9 2.2H3zM5.9 6.5V4.3h1.6v.3H6.3v.5h1.2v.3H6.3V6h1.3v.3H5.9zM9.3 6.5V4.3h.9c.3 0 .5.1.7.2.2.2.2.3.2.6 0 .1 0 .3-.1.4l-.3.3.5.6h-.5l-.4-.5h-.6v.5h-.4zm.4-.9h.5c.2 0 .3 0 .4-.1.1-.1.1-.2.1-.3 0-.1 0-.3-.1-.3-.1-.1-.2-.1-.4-.1h-.5v.8zM12.9 6.5V4.3h.4v2.1h-.4zM15.7 6.5V4.7H15v-.4h1.9v.3h-.7v1.8h-.5zM18.1 6.5l1-2.1h.4l1 2.1h-.4l-.2-.4h-1.2l-.2.4h-.4zm.6-.7h.9l-.2-.5c0-.1-.1-.1-.1-.2s-.1-.2-.1-.2v-.1c-.1.2-.1.4-.2.5l-.3.5zM21.9 6.2l.1-.3c.2.2.4.2.7.2.1 0 .2 0 .3-.1.1-.1.1-.1.1-.2s0-.1-.1-.2l-.1-.1c-.1 0-.1 0-.2-.1-.1 0-.2 0-.2-.1-.1 0-.1 0-.2-.1s-.1-.1-.2-.1c0 0-.1-.1-.1-.2v-.2c0-.2.1-.3.2-.4.2-.1.3-.2.5-.2.3 0 .5.1.8.2l-.1.3c-.2-.1-.4-.2-.6-.2h-.2c-.1 0-.1 0-.2.1l-.1.1c0 .1 0 .1.1.2.1 0 .2.1.3.1.1 0 .2.1.3.1.1 0 .2.1.2.1.1 0 .1.1.2.2 0 .1.1.2.1.3 0 .2-.1.4-.3.5-.2.1-.4.2-.6.2-.2.2-.5.1-.7-.1z"/><path d="M7.8 29c0 .2-.1.4.1.5.1-.1.2-.2.3-.2.2 0 .3-.2.4-.4-.1.2-.1.4.1.6l.3-.3h.1c.1-.1.2-.1.2-.3.3-.1.5-.1.7.1.1.1.1.1.1.2.3-.4.1-.8-.3-.9-.4-.4.4-1.5.7-1.8 0 .3-.1.5-.2.7.4-.1.6-.4.8-.7.6.6 1.2 1.2 1.9 1.7.5 0 .9.1 1.2.2-.7 0-1.4-.2-1.7.6-.1-.3 0-.5.2-.8-.3-.2-1-.3-1.3-.1-.5.3-.6.9-.3 1.3.1.1.2 0 .3 0-.1-.3 0-.6.2-.8.1-.1.3-.1.3-.1-.1.1-.2.1-.2.2-.1.2-.1.5.1.7h.2c1.7 0 3.4 0 5.1-.1.1 0 .2 0 .2-.1 0-.2.3-.4.3-.4.6-.2 1-.3 1.3-.9.6-2.3-2.3-3.3-.4-3.7 0 .1-.1.1-.1.2.5 0 .8-.3.7-.8-.1-.2-.2-.4-.2-.6.4-.9.9-.5.2-1.6-.1-.2-.3.6-.5.7 0-.1.1-.2.2-.4-.4.2-.8.3-.8.9 0 .6.8 1.2-.4 1.1-1.4 1.3 1.5 1.8.8 3.8-.1.2-.3.2-.5.2-.1-.1-.1-.3-.1-.5-.2-1.4-.9-2.6-2.2-3.2.7-.2 1.2-.6 1.7-1.2-.5.1-1.1 0-1.6 0 1.1-.1 2.1-.3 2.6-1.4-.7.1-1.3 0-2-.2 2.1.2 4.7-.6 5.4-2.2-1.5.6-3.2 1.4-4.8 1.1 1.8-.3 4.6-1.1 5.5-3.2-.9.7-2.4 1.7-4.7 1.8 0 0 4.7-1 5.2-3.8-2.3 2-4.7 2.7-4.7 2.7s5.1-2.5 5.1-5.2c-.6.7-1.4 1.7-2.6 2.5-.8.6-1.6 1-2.2 1.3.5-.3 1.5-.8 2.3-1.9 1.2-1.6 1.2-3.2 1.2-3.8-.5 1.3-1.4 2.8-3 4-.2.1-.4.3-.6.4.3-.3 1.1-.9 1.5-2.1.6-1.7-.1-3.2-.2-3.5 0 .6 0 1.7-.6 2.9-.3.7-.7 1.2-1 1.5.2-.4.4-1 .4-1.8 0-1.6-.8-2.7-1.1-3 .2.8.3 1.8.1 3.1-.1.5-.2.9-.3 1.3 0-.4-.1-1-.3-1.6-.6-1.5-2-2.2-2.4-2.3.4.6.7 1.4 1 2.3.1.4.2.8.3 1.1-.2-.3-.7-1-1.5-1.5-1.2-.3-2.2-.3-2.6-.3 1.6.8 2.4 1.8 2.8 2.4 1.2 1.6 2.1 4.3 1 6.6-.3.6-.7 1-.9 1.3 0-.1-.1-.2-.1-.2 0-.1-.1-.2-.1-.2l.2.2c.1-.6 0-1.1-.3-1.6.1.1.3.2.4.3-.1-.7-.5-1.2-1-1.6.2 0 .5.1.7.2-.5-.8-1.2-.9-2-1l.6-.3c-1.2-.1-3.1-.2-2.9 1.5-.8.2-1.3.8-.6 1.6v-.1c.3-.4 1-.3 1.5-.3 0 0-.1.1-.1.2 0 0 .1.1.1.2s-.1.3-.1.3c-1.2 1.4-2 3.6-1.8 5.4.2-.3.4-.6.5-.9-.1.7-.2 1.3-.4 1.9.3-.1.4-.2.6-.4-.6 1.7-2.6 2.6-2.5 3.2l.2-.2h.2c0-.4 0-.5.1-.5zm2.6-10.6s0-.1 0 0c.1-.4.3-.5.7-.5-.3.2-.5.3-.7.5z" style="fill:#fdd302"/><path class="st1" d="M10.4 18.4s0-.1 0 0c.1-.4.3-.5.7-.5-.3.2-.5.3-.7.5z"/><path class="st0" d="m12.7 14.2-2.9.4 1.2.7H9.6l.9 1.1-1.4-.6.6 1.4-1.1-.9v1.4l-.7-1.2-.4 2.2-.4-2.2-.7 1.2.1-1.4-1.1.9.5-1.4-1.3.6.8-1.1H4l1.2-.7-2.9-.4 2.9-.4-1.2-.7 1.4.1-.8-1.1 1.3.5-.5-1.4 1.1.9-.1-1.4.7 1.2.4-2.2.4 2.2.7-1.2v1.4l1.1-.9-.6 1.4 1.4-.5-.9 1.1 1.4-.1-1.2.7z"/><circle class="st1" cx="7.5" cy="14.2" r="1.1"/></svg>