<?xml version="1.0" encoding="utf-8"?>
<!-- Generator: Adobe Illustrator 27.2.0, SVG Export Plug-In . SVG Version: 6.00 Build 0)  -->
<svg version="1.1" id="Camada_1" xmlns="http://www.w3.org/2000/svg" xmlns:xlink="http://www.w3.org/1999/xlink" x="0px" y="0px"
	 viewBox="0 0 525.4 152.3" style="enable-background:new 0 0 525.4 152.3;" xml:space="preserve">
<style type="text/css">
	.st0{fill:#E96220;}
	.st1{fill:#FFFFFF;}
	.st2{fill:#07249C;}
</style>
<g>
	<path class="st0" d="M152.6,152.8H66c-36.1,0-65.6-29.5-65.6-65.6V0.5h152.3V152.8z"/>
	<g>
		<path class="st1" d="M114,131.6C114,131.6,114,131.6,114,131.6c-12.2,0-22.1-10-22.1-22.2l0-48.2l-48.1,0
			c-12.2,0-22.1-10-22.1-22.2c0-12.3,9.9-22.2,22.1-22.2c0,0,0,0,0,0l70.2,0c0,0,0,0,0,0c5.9,0,11.5,2.3,15.6,6.5
			c4.2,4.2,6.5,9.8,6.5,15.7l0,70.5c0,5.9-2.3,11.5-6.5,15.7C125.5,129.3,119.9,131.6,114,131.6z M93,60l0,49.4
			c0,11.6,9.4,21.1,21,21.1c0,0,0,0,0,0c5.6,0,10.9-2.2,14.9-6.2c4-4,6.2-9.3,6.2-14.9l0-70.5c0-5.6-2.2-10.9-6.2-14.9
			c-4-4-9.2-6.2-14.9-6.2c0,0,0,0,0,0l-70.2,0c0,0,0,0,0,0c-11.6,0-21,9.5-21,21.1c0,11.6,9.4,21.1,21,21.1L93,60z"/>
	</g>
	<path class="st2" d="M128.7,45.8c0-12-9.7-21.7-21.6-21.7l-70.2,0c-11.9,0-21.6,9.7-21.6,21.7c0,12,9.7,21.7,21.6,21.7l34.5,0
		c7.8,0,14.1,6.3,14.1,14.1l0,34.7c0,12,9.7,21.7,21.6,21.7c11.9,0,21.6-9.7,21.6-21.7L128.7,45.8z"/>
	<circle class="st2" cx="67.1" cy="85.9" r="14.5"/>
	<g>
		<path class="st0" d="M186.9,10.3h11.9l14.4,57.5h-12.6l-1.7-8.2h-12.6l-1.8,8.2h-12.2L186.9,10.3z M196.5,47.3L193,29.6h-0.1
			L189,47.3H196.5z"/>
		<path class="st0" d="M217,10.6c7.4,0,14.9,0,22.3,0c2.8,0,5.2,0.5,7.3,1.4c2.1,0.9,3.7,2.2,5,3.7c1.3,1.5,2.2,3.2,2.8,5
			c0.6,1.8,0.9,3.5,0.9,5.3c0,0,0,16.1,0,16.7c-0.4,6.6-4.6,10.7-4.6,10.7c-4.6,4.4-11.4,4-12.4,4.1H229v10.6c-4,0-8,0-12,0
			C217,51.5,217,27.1,217,10.6z M229,46.7h5.7c0.9,0,1.7,0,2.4-0.1c0.7-0.1,1.3-0.3,1.9-0.6c0.6-0.3,1-0.8,1.4-1.5
			c0.4-0.8,0.5-1.6,0.5-2.1c0-0.1,0-15.7,0-16c0-0.6,0-1.5-0.4-2.4c-0.3-0.6-0.7-1.1-1.2-1.3c-0.5-0.3-1.1-0.5-1.7-0.5
			c-0.6-0.1-1.3-0.1-2.2-0.1H229V46.7z"/>
		<path class="st0" d="M301.1,14.4h34.8v11.8h-21.5v25.7h17.3v11.5h-17.3v10.6h39.6v11.8h-52.9V14.4z"/>
		<path class="st0" d="M342.4,14.4c3.8,0,7.6,0,11.5,0c5.1,8.9,10.2,17.8,15.3,26.7c0-6.4,0-12.7,0-19.1c3.8,0,7.6,0,11.5,0.1V64
			c-3.8,0-7.6,0-11.5,0c-5.1-10.2-10.2-20.4-15.3-30.5c0,5.1,0,30.4,0,35.5c-3.8,0-7.6,0-11.5,0C342.4,57.5,342.4,25.8,342.4,14.4z"
			/>
		<path class="st0" d="M384.7,10.6h32.2c3.2,0,5.9,0.6,8.2,1.8c2.3,1.2,4.1,2.9,5.6,5c1.4,2.1,2.5,4.5,3.1,7.1c0.6,2.6,1,5.4,1,8.4
			c0,0,0,17.3,0,17.6c-0.2,10.2-5.1,15.8-5.1,15.8c-5.5,6.4-13.9,6-15.1,5.9h-29.8V10.6z M396.9,60.8h16.9c1.8,0,3.3-0.4,4.5-1.1
			c1.2-0.7,2-1.6,2.7-2.8c0.6-1.1,1-2.3,1.2-3.6c0-0.2,0.2-1.3,0.3-2.8c0-0.2,0-17.5,0-17.9c0-0.5-0.1-1.8-0.3-3.2
			c-0.2-1.2-0.6-2.3-1.3-3.5c-0.6-1.2-1.6-2.1-2.9-2.9c-1.8-1-3.5-1.1-4.5-1.1c-0.3,0-16.1,0-16.2,0c-0.1,0-0.3,0-0.4,0V60.8z"/>
		<path class="st0" d="M453.8,52.6c11.5-7.6,22.9-15.3,34.4-22.9c-8.9,0-25.5,0-34.4,0V18.2c15.3,0,38.2,0,53.5,0
			c0,3.8,0,7.6,0,11.5c-10.2,7.6-20.4,15.3-30.5,22.9c10.2,0,35.6,0,45.8,0c0,3.8,0,7.6,0,11.5c-17.8,0-50.9,0-68.7,0
			C453.8,60.2,453.8,56.4,453.8,52.6z"/>
		<rect x="438.5" y="33.5" class="st0" width="11.5" height="38.2"/>
		<rect x="438.5" y="18.2" class="st0" width="11.5" height="11.5"/>
		<rect x="275.5" y="88.4" class="st0" width="12.8" height="10.6"/>
		<path class="st0" d="M296.3,82.3c-0.2-0.9-0.3-1.7-0.4-2.1c-0.9-5.4-0.8-28.1-1.5-29.6c-0.5-1.2-1.7-2.7-4.2-4.1
			c2-0.8,3.6-2.3,4.7-4.5c0.4-0.8,0.6-1.5,0.8-1.9c0.1-0.4,0.4-1.2,0.6-2.3c0.1-0.4,0.2-12.7,0.2-14c0-4.1-1.3-7.4-3.9-9.7
			c-2.6-2.3-5.9-3.4-9.7-3.4H259v57h12v-16h6.9c1.2,0,2.2,0.2,2.9,0.7c0.7,0.5,1.3,1.1,1.7,2c0.6,1.2,0.8,2.4,0.8,2.6
			c0.1,0.8,0.2,23,0.2,23.1c0.1,1,0.3,2.7,0.7,5.3c4.3,0,8.6,0,12.9,0C297,84.9,296.6,83.7,296.3,82.3z M283.5,37.5
			c0,1-0.2,1.8-0.5,2.4c-0.4,0.6-0.8,1.1-1.3,1.4c-0.5,0.3-1.1,0.5-1.8,0.6c-0.6,0.1-1.3,0.2-2.1,0.2h-6.7V21.7c2,0,4,0,6,0
			c2.2-0.1,3.6,0.4,4.3,0.7c0.3,0.2,0.5,0.3,0.7,0.4c1.2,1,1.4,2.6,1.4,3C283.5,26,283.5,37.4,283.5,37.5z"/>
		<path class="st0" d="M217.8,113.9c0,19.6-7.5,29-22.8,29c-15.3,0-22.9-9.4-22.9-29V70.5h15.5v38.5c0,7.2,0,16.2,7.5,16.2
			c7.3,0,7.3-9,7.3-16.2V70.5h15.5V113.9z"/>
		<path class="st0" d="M221.6,74.4h17.1l15.8,26.9h0.2V74.4h15.8v50.2h-16.3l-16.7-27.4h-0.2l-0.1,43.6h-15.8L221.6,74.4z"/>
		<path class="st0" d="M275.6,100.7h12.7l0,40.7h-12.7V100.7z"/>
		<path class="st0" d="M291.7,89.9l19.7,0.1l14.6,26.9h0.1V90h14.6v50.2h-15l-15.4-27.4h-0.1l0,28.6h-18.5V89.9z"/>
		<path class="st0" d="M369,83.6c15.8,0,26.3,11.8,26.3,28.3s-10.5,28.3-26.3,28.3c-15.8,0-26.3-11.8-26.3-28.3S353.2,83.6,369,83.6
			z M369,126.8c4.1,0,10.3-2.8,10.3-14.8S373,97.1,369,97.1c-4.1,0-10.3,2.8-10.3,14.8S364.9,126.8,369,126.8z"/>
		<path class="st0" d="M398.4,74.8h29.5c8.8,0,16.4,4.9,16.4,14.3c0,5.2-2.4,10.7-7.5,12.6c4.2,1.6,6.8,6.3,7.4,12.5
			c0.2,2.5,0.3,8.4,1.7,10.8h-15.5c-0.8-2.5-1.1-5.1-1.3-7.7c-0.4-4.8-0.8-9.8-7-9.8h-8.2l0,33.9h-15.4L398.4,74.8z M413.8,96.7h8.1
			c2.9,0,6.8-0.5,6.8-5c0-3.2-1.8-5-7.7-5h-7.2V96.7z"/>
		<path class="st0" d="M460,87.3h-14.1V74.4h43.6v12.9h-14.1l0,54.1h-15.4L460,87.3z"/>
		<path class="st0" d="M480.2,91.2l31-0.1l0.2,12.9l-15.7,0v6.3l8.6,0.1v12l-8.6-0.1v6.3h26.9v12.9h-42.3V91.2z"/>
	</g>
</g>
</svg>
