<svg version="1.1" id="Camada_1" xmlns="http://www.w3.org/2000/svg" x="0" y="0" viewBox="0 0 525.4 152.3" style="enable-background:new 0 0 525.4 152.3" xml:space="preserve"><style>.st0{fill:#e96220}.st2{fill:#07249c}</style><path class="st0" d="M152.6 152.8H66C29.9 152.8.4 123.3.4 87.2V.5h152.3v152.3z"/><path d="M114 131.6c-12.2 0-22.1-10-22.1-22.2V61.2H43.8c-12.2 0-22.1-10-22.1-22.2 0-12.3 9.9-22.2 22.1-22.2H114c5.9 0 11.5 2.3 15.6 6.5 4.2 4.2 6.5 9.8 6.5 15.7v70.5c0 5.9-2.3 11.5-6.5 15.7-4.1 4.1-9.7 6.4-15.6 6.4zM93 60v49.4c0 11.6 9.4 21.1 21 21.1 5.6 0 10.9-2.2 14.9-6.2s6.2-9.3 6.2-14.9V38.9c0-5.6-2.2-10.9-6.2-14.9s-9.2-6.2-14.9-6.2H43.8c-11.6 0-21 9.5-21 21.1 0 11.6 9.4 21.1 21 21.1H93z" style="fill:#fff"/><path class="st2" d="M128.7 45.8c0-12-9.7-21.7-21.6-21.7H36.9c-11.9 0-21.6 9.7-21.6 21.7S25 67.5 36.9 67.5h34.5c7.8 0 14.1 6.3 14.1 14.1v34.7c0 12 9.7 21.7 21.6 21.7 11.9 0 21.6-9.7 21.6-21.7V45.8z"/><circle class="st2" cx="67.1" cy="85.9" r="14.5"/><path class="st0" d="M186.9 10.3h11.9l14.4 57.5h-12.6l-1.7-8.2h-12.6l-1.8 8.2h-12.2l14.6-57.5zm9.6 37L193 29.6h-.1L189 47.3h7.5zM217 10.6h22.3c2.8 0 5.2.5 7.3 1.4 2.1.9 3.7 2.2 5 3.7 1.3 1.5 2.2 3.2 2.8 5 .6 1.8.9 3.5.9 5.3v16.7c-.4 6.6-4.6 10.7-4.6 10.7-4.6 4.4-11.4 4-12.4 4.1H229v10.6h-12V10.6zm12 36.1h5.7c.9 0 1.7 0 2.4-.1s1.3-.3 1.9-.6c.6-.3 1-.8 1.4-1.5.4-.8.5-1.6.5-2.1v-16c0-.6 0-1.5-.4-2.4-.3-.6-.7-1.1-1.2-1.3-.5-.3-1.1-.5-1.7-.5-.6-.1-1.3-.1-2.2-.1H229v24.6zM301.1 14.4h34.8v11.8h-21.5v25.7h17.3v11.5h-17.3V74H354v11.8h-52.9V14.4z"/><path class="st0" d="M342.4 14.4h11.5l15.3 26.7V22c3.8 0 7.6 0 11.5.1V64h-11.5c-5.1-10.2-10.2-20.4-15.3-30.5V69h-11.5V14.4zM384.7 10.6h32.2c3.2 0 5.9.6 8.2 1.8 2.3 1.2 4.1 2.9 5.6 5 1.4 2.1 2.5 4.5 3.1 7.1.6 2.6 1 5.4 1 8.4v17.6c-.2 10.2-5.1 15.8-5.1 15.8-5.5 6.4-13.9 6-15.1 5.9h-29.8V10.6zm12.2 50.2h16.9c1.8 0 3.3-.4 4.5-1.1 1.2-.7 2-1.6 2.7-2.8.6-1.1 1-2.3 1.2-3.6 0-.2.2-1.3.3-2.8V32.6c0-.5-.1-1.8-.3-3.2-.2-1.2-.6-2.3-1.3-3.5-.6-1.2-1.6-2.1-2.9-2.9-1.8-1-3.5-1.1-4.5-1.1H396.9v38.9zM453.8 52.6c11.5-7.6 22.9-15.3 34.4-22.9h-34.4V18.2h53.5v11.5c-10.2 7.6-20.4 15.3-30.5 22.9h45.8v11.5h-68.7c-.1-3.9-.1-7.7-.1-11.5zM438.5 33.5H450v38.2h-11.5zM438.5 18.2H450v11.5h-11.5zM275.5 88.4h12.8V99h-12.8zM296.3 82.3c-.2-.9-.3-1.7-.4-2.1-.9-5.4-.8-28.1-1.5-29.6-.5-1.2-1.7-2.7-4.2-4.1 2-.8 3.6-2.3 4.7-4.5.4-.8.6-1.5.8-1.9.1-.4.4-1.2.6-2.3.1-.4.2-12.7.2-14 0-4.1-1.3-7.4-3.9-9.7-2.6-2.3-5.9-3.4-9.7-3.4H259v57h12v-16h6.9c1.2 0 2.2.2 2.9.7.7.5 1.3 1.1 1.7 2 .6 1.2.8 2.4.8 2.6.1.8.2 23 .2 23.1.1 1 .3 2.7.7 5.3h12.9c-.1-.5-.5-1.7-.8-3.1zm-12.8-44.8c0 1-.2 1.8-.5 2.4-.4.6-.8 1.1-1.3 1.4-.5.3-1.1.5-1.8.6-.6.1-1.3.2-2.1.2h-6.7V21.7h6c2.2-.1 3.6.4 4.3.7.3.2.5.3.7.4 1.2 1 1.4 2.6 1.4 3v11.7zM217.8 113.9c0 19.6-7.5 29-22.8 29s-22.9-9.4-22.9-29V70.5h15.5V109c0 7.2 0 16.2 7.5 16.2 7.3 0 7.3-9 7.3-16.2V70.5h15.5v43.4z"/><path class="st0" d="M221.6 74.4h17.1l15.8 26.9h.2V74.4h15.8v50.2h-16.3l-16.7-27.4h-.2l-.1 43.6h-15.8l.2-66.4zM275.6 100.7h12.7v40.7h-12.7v-40.7zM291.7 89.9l19.7.1 14.6 26.9h.1V90h14.6v50.2h-15l-15.4-27.4h-.1v28.6h-18.5V89.9zM369 83.6c15.8 0 26.3 11.8 26.3 28.3s-10.5 28.3-26.3 28.3-26.3-11.8-26.3-28.3 10.5-28.3 26.3-28.3zm0 43.2c4.1 0 10.3-2.8 10.3-14.8S373 97.1 369 97.1c-4.1 0-10.3 2.8-10.3 14.8s6.2 14.9 10.3 14.9zM398.4 74.8h29.5c8.8 0 16.4 4.9 16.4 14.3 0 5.2-2.4 10.7-7.5 12.6 4.2 1.6 6.8 6.3 7.4 12.5.2 2.5.3 8.4 1.7 10.8h-15.5c-.8-2.5-1.1-5.1-1.3-7.7-.4-4.8-.8-9.8-7-9.8h-8.2v33.9h-15.4l-.1-66.6zm15.4 21.9h8.1c2.9 0 6.8-.5 6.8-5 0-3.2-1.8-5-7.7-5h-7.2v10zM460 87.3h-14.1V74.4h43.6v12.9h-14.1v54.1H460V87.3z"/><path class="st0" d="m480.2 91.2 31-.1.2 12.9h-15.7v6.3l8.6.1v12l-8.6-.1v6.3h26.9v12.9h-42.3V91.2z"/></svg>