<?xml version="1.0" encoding="utf-8"?>
<!-- Generator: Adobe Illustrator 27.2.0, SVG Export Plug-In . SVG Version: 6.00 Build 0)  -->
<svg version="1.1" id="Camada_1" xmlns="http://www.w3.org/2000/svg" xmlns:xlink="http://www.w3.org/1999/xlink" x="0px" y="0px"
	 viewBox="0 0 525.4 152.3" style="enable-background:new 0 0 525.4 152.3;" xml:space="preserve">
<style type="text/css">
	.st0{fill:#07249C;}
	.st1{fill:#FFFFFF;}
	.st2{fill:#E96220;}
</style>
<g>
	<path class="st0" d="M152.3,152.3H65.6C29.5,152.3,0,122.8,0,86.7V0h152.3V152.3z"/>
	<g>
		<path class="st1" d="M113.6,131.1C113.6,131.1,113.6,131.1,113.6,131.1c-12.2,0-22.1-10-22.1-22.2l0-48.3l-48.1,0
			c-12.2,0-22.1-10-22.1-22.2c0-12.3,9.9-22.2,22.1-22.2c0,0,0,0,0,0l70.2,0c0,0,0,0,0,0c5.9,0,11.5,2.3,15.6,6.5
			c4.2,4.2,6.5,9.8,6.5,15.7l0,70.5c0,5.9-2.3,11.5-6.5,15.7S119.6,131.1,113.6,131.1z M92.6,59.5l0,49.4c0,11.6,9.4,21.1,21,21.1
			c0,0,0,0,0,0c5.6,0,10.9-2.2,14.9-6.2c4-4,6.2-9.3,6.2-14.9l0-70.5c0-5.6-2.2-10.9-6.2-14.9c-4-4-9.2-6.2-14.9-6.2c0,0,0,0,0,0
			l-70.2,0c0,0,0,0,0,0c-11.6,0-21,9.5-21,21.1c0,11.6,9.4,21.1,21,21.1L92.6,59.5z"/>
	</g>
	<path class="st2" d="M128.4,45.3c0-12-9.7-21.7-21.6-21.7l-70.2,0C24.7,23.6,15,33.3,15,45.3c0,12,9.7,21.7,21.6,21.7l34.5,0
		c7.8,0,14.1,6.3,14.1,14.1l0,34.7c0,12,9.7,21.7,21.6,21.7c11.9,0,21.6-9.7,21.6-21.7L128.4,45.3z"/>
	<circle class="st2" cx="66.7" cy="85.4" r="14.5"/>
	<g>
		<path d="M187.1,10.9l11.9-0.1l14.7,57.4l-12.6,0.1l-1.7-8.2l-12.6,0.1l-1.7,8.2l-12.2,0.1L187.1,10.9z M196.9,47.8l-3.6-17.7
			l-0.1,0l-3.7,17.7L196.9,47.8z"/>
		<path d="M217.3,10.9c7.4,0,14.9-0.1,22.3-0.1c2.8,0,5.2,0.4,7.3,1.4c2.1,0.9,3.7,2.2,5,3.7c1.3,1.5,2.2,3.2,2.8,5
			c0.6,1.8,0.9,3.5,0.9,5.3c0,0,0.1,16.1,0.1,16.7c-0.4,6.6-4.5,10.8-4.5,10.8c-4.6,4.4-11.4,4.1-12.3,4.1l-9.3,0.1l0.1,10.6
			c-4,0-8,0-12,0.1C217.5,51.9,217.3,27.5,217.3,10.9z M229.4,47.1l5.7,0c0.9,0,1.7-0.1,2.4-0.1c0.7-0.1,1.3-0.3,1.9-0.6
			c0.6-0.3,1-0.8,1.4-1.5c0.4-0.8,0.5-1.6,0.5-2.1c0-0.1-0.1-15.7-0.1-16c0-0.6,0-1.5-0.4-2.4c-0.3-0.6-0.7-1-1.2-1.3
			c-0.5-0.3-1.1-0.4-1.7-0.5c-0.6-0.1-1.3-0.1-2.2-0.1l-6.4,0L229.4,47.1z"/>
		<path d="M301.3,14.3l34.8-0.2l0.1,11.8L314.7,26l0.1,25.7l17.3-0.1l0.1,11.5l-17.3,0.1l0.1,10.6l39.6-0.2l0.1,11.8l-52.9,0.3
			L301.3,14.3z"/>
		<path d="M342.6,14.1c3.8,0,7.6,0,11.5-0.1c5.1,8.9,10.3,17.8,15.4,26.7c0-6.4-0.1-12.7-0.1-19.1c3.8,0,7.6,0,11.5,0l0.2,41.9
			c-3.8,0-7.6,0-11.5,0.1c-5.1-10.2-10.3-20.3-15.4-30.5c0,5.1,0.2,30.4,0.2,35.5c-3.8,0-7.6,0-11.5,0.1
			C342.9,57.2,342.7,25.5,342.6,14.1z"/>
		<path d="M384.9,10l32.2-0.2c3.2,0,5.9,0.6,8.2,1.8c2.3,1.2,4.2,2.9,5.6,5c1.4,2.1,2.5,4.5,3.1,7.1c0.7,2.6,1,5.4,1,8.4
			c0,0,0.1,17.3,0.1,17.7c-0.1,10.2-5,15.9-5,15.9c-5.5,6.4-13.9,6.1-15.1,6l-29.8,0.2L384.9,10z M397.4,60.3l16.9-0.1
			c1.8,0,3.3-0.4,4.5-1.1c1.2-0.7,2-1.6,2.6-2.8c0.6-1.1,1-2.3,1.2-3.6c0-0.2,0.2-1.3,0.3-2.8c0-0.2-0.1-17.5-0.1-17.9
			c0-0.5-0.1-1.8-0.3-3.2c-0.2-1.1-0.6-2.3-1.3-3.4c-0.7-1.1-1.6-2.1-3-2.9c-1.8-1-3.6-1.1-4.5-1.1c-0.3,0-16.1,0.1-16.2,0.1
			c-0.1,0-0.3,0-0.4,0L397.4,60.3z"/>
		<path d="M454.3,51.6c11.4-7.7,22.8-15.4,34.2-23.1c-8.9,0-25.5,0.1-34.4,0.2l-0.1-11.4c15.3-0.1,38.2-0.2,53.5-0.3
			c0,3.8,0,7.6,0.1,11.5c-10.1,7.7-20.3,15.4-30.4,23.1c10.2-0.1,35.6-0.2,45.8-0.2c0,3.8,0,7.6,0.1,11.5
			c-17.8,0.1-50.9,0.3-68.7,0.4C454.3,59.3,454.3,55.5,454.3,51.6z"/>
		<rect x="439" y="32.6" transform="matrix(1 -5.432348e-03 5.432348e-03 1 -0.2743 2.4166)" width="11.5" height="38.2"/>
		<rect x="438.8" y="17.3" transform="matrix(1 -5.432348e-03 5.432348e-03 1 -0.1187 2.4154)" width="11.5" height="11.5"/>
		<rect x="276.2" y="88.4" transform="matrix(1 -5.432348e-03 5.432348e-03 1 -0.5051 1.5364)" width="12.8" height="10.6"/>
		<path d="M296.9,82.3c-0.2-0.9-0.4-1.7-0.4-2.1c-1-5.4-0.9-28.1-1.6-29.6c-0.6-1.2-1.7-2.7-4.2-4.1c2-0.8,3.6-2.3,4.6-4.5
			c0.4-0.8,0.6-1.5,0.8-1.9c0.1-0.4,0.4-1.2,0.6-2.3c0.1-0.4,0.2-12.7,0.2-14c0-4.2-1.4-7.4-4-9.6c-2.6-2.3-5.9-3.4-9.8-3.4
			l-23.7,0.1l0.3,57l12-0.1l-0.1-16l6.9,0c1.2,0,2.2,0.2,2.9,0.7c0.7,0.5,1.3,1.1,1.7,1.9c0.6,1.2,0.8,2.4,0.8,2.6
			c0.1,0.8,0.3,23,0.3,23.1c0.1,1,0.3,2.7,0.7,5.3c4.3,0,8.6,0,12.9-0.1C297.6,84.8,297.2,83.7,296.9,82.3z M283.9,37.5
			c0,1-0.2,1.8-0.5,2.4c-0.3,0.6-0.8,1.1-1.3,1.4c-0.5,0.3-1.1,0.5-1.8,0.6c-0.6,0.1-1.3,0.2-2.1,0.2l-6.7,0l-0.1-20.4c2,0,4,0,6,0
			c2.2-0.1,3.6,0.4,4.3,0.7c0.3,0.2,0.5,0.3,0.7,0.4c1.2,1,1.4,2.6,1.4,3C283.8,26,283.9,37.4,283.9,37.5z"/>
		<path d="M218.6,114.3c0.1,19.6-7.4,29.1-22.7,29.1c-15.3,0.1-23-9.3-23.1-28.9l-0.2-43.4l15.5-0.1l0.2,38.5
			c0,7.2,0.1,16.2,7.6,16.2c7.3,0,7.3-9.1,7.2-16.3L202.8,71l15.5-0.1L218.6,114.3z"/>
		<path d="M222.2,74.8l17.1-0.1l16,26.8l0.2,0l-0.1-26.9l15.8-0.1l0.3,50.2l-16.3,0.1l-16.8-27.3l-0.2,0l0.2,43.7l-15.8,0.1
			L222.2,74.8z"/>
		<path d="M276.3,100.8l12.7-0.1l0.3,40.7l-12.7,0.1L276.3,100.8z"/>
		<path d="M292.4,89.9l19.8,0l14.8,26.8l0.1,0l-0.1-26.9l14.6-0.1l0.3,50.2l-15,0.1l-15.5-27.3l-0.1,0l0.1,28.6l-18.5,0.1
			L292.4,89.9z"/>
		<path d="M369.6,83.2c15.8-0.1,26.4,11.7,26.5,28.2s-10.4,28.4-26.2,28.5c-15.8,0.1-26.4-11.7-26.5-28.2S353.8,83.3,369.6,83.2z
			 M369.8,126.3c4.1,0,10.3-2.9,10.2-14.9s-6.3-14.8-10.4-14.8c-4.1,0-10.3,2.9-10.2,14.9S365.8,126.3,369.8,126.3z"/>
		<path d="M399,74.2l29.5-0.2c8.8,0,16.4,4.8,16.5,14.3c0,5.2-2.3,10.7-7.5,12.6c4.2,1.6,6.9,6.2,7.5,12.5c0.2,2.5,0.3,8.4,1.7,10.7
			l-15.5,0.1c-0.8-2.5-1.1-5.1-1.3-7.7c-0.4-4.8-0.9-9.8-7-9.7l-8.2,0l0.1,33.9l-15.4,0.1L399,74.2z M414.5,96l8.1,0
			c2.9,0,6.8-0.5,6.8-5c0-3.2-1.8-5-7.7-5l-7.2,0L414.5,96z"/>
		<path d="M460.6,86.3l-14.1,0.1l-0.1-12.9l43.6-0.2l0.1,12.9l-14.1,0.1l0.3,54.1l-15.4,0.1L460.6,86.3z"/>
		<path d="M480.8,90.1l31-0.3l0.3,12.9l-15.7,0.1l0,6.3l8.6,0l0.1,12l-8.6,0l0,6.3l26.9-0.1l0.1,12.9l-42.3,0.2L480.8,90.1z"/>
	</g>
</g>
</svg>
