<svg version="1.1" id="Camada_1" xmlns="http://www.w3.org/2000/svg" x="0" y="0" viewBox="0 0 525.4 152.3" style="enable-background:new 0 0 525.4 152.3" xml:space="preserve"><style>.st2{fill:#e96220}</style><path d="M152.3 152.3H65.6C29.5 152.3 0 122.8 0 86.7V0h152.3v152.3z" style="fill:#07249c"/><path d="M113.6 131.1c-12.2 0-22.1-10-22.1-22.2V60.6H43.4c-12.2 0-22.1-10-22.1-22.2 0-12.3 9.9-22.2 22.1-22.2h70.2c5.9 0 11.5 2.3 15.6 6.5 4.2 4.2 6.5 9.8 6.5 15.7v70.5c0 5.9-2.3 11.5-6.5 15.7s-9.6 6.5-15.6 6.5zm-21-71.6v49.4c0 11.6 9.4 21.1 21 21.1 5.6 0 10.9-2.2 14.9-6.2s6.2-9.3 6.2-14.9V38.4c0-5.6-2.2-10.9-6.2-14.9s-9.2-6.2-14.9-6.2H43.4c-11.6 0-21 9.5-21 21.1 0 11.6 9.4 21.1 21 21.1h49.2z" style="fill:#fff"/><path class="st2" d="M128.4 45.3c0-12-9.7-21.7-21.6-21.7H36.6C24.7 23.6 15 33.3 15 45.3S24.7 67 36.6 67h34.5c7.8 0 14.1 6.3 14.1 14.1v34.7c0 12 9.7 21.7 21.6 21.7 11.9 0 21.6-9.7 21.6-21.7V45.3z"/><circle class="st2" cx="66.7" cy="85.4" r="14.5"/><path d="m187.1 10.9 11.9-.1 14.7 57.4-12.6.1-1.7-8.2-12.6.1-1.7 8.2-12.2.1 14.2-57.6zm9.8 36.9-3.6-17.7h-.1l-3.7 17.7h7.4zM217.3 10.9c7.4 0 14.9-.1 22.3-.1 2.8 0 5.2.4 7.3 1.4 2.1.9 3.7 2.2 5 3.7 1.3 1.5 2.2 3.2 2.8 5 .6 1.8.9 3.5.9 5.3 0 0 .1 16.1.1 16.7-.4 6.6-4.5 10.8-4.5 10.8-4.6 4.4-11.4 4.1-12.3 4.1l-9.3.1.1 10.6c-4 0-8 0-12 .1-.2-16.7-.4-41.1-.4-57.7zm12.1 36.2h5.7c.9 0 1.7-.1 2.4-.1.7-.1 1.3-.3 1.9-.6.6-.3 1-.8 1.4-1.5.4-.8.5-1.6.5-2.1 0-.1-.1-15.7-.1-16 0-.6 0-1.5-.4-2.4-.3-.6-.7-1-1.2-1.3-.5-.3-1.1-.4-1.7-.5-.6-.1-1.3-.1-2.2-.1h-6.4l.1 24.6zM301.3 14.3l34.8-.2.1 11.8-21.5.1.1 25.7 17.3-.1.1 11.5-17.3.1.1 10.6 39.6-.2.1 11.8-52.9.3-.5-71.4z"/><path d="M342.6 14.1c3.8 0 7.6 0 11.5-.1 5.1 8.9 10.3 17.8 15.4 26.7 0-6.4-.1-12.7-.1-19.1h11.5l.2 41.9c-3.8 0-7.6 0-11.5.1-5.1-10.2-10.3-20.3-15.4-30.5 0 5.1.2 30.4.2 35.5-3.8 0-7.6 0-11.5.1 0-11.5-.2-43.2-.3-54.6zM384.9 10l32.2-.2c3.2 0 5.9.6 8.2 1.8 2.3 1.2 4.2 2.9 5.6 5 1.4 2.1 2.5 4.5 3.1 7.1.7 2.6 1 5.4 1 8.4 0 0 .1 17.3.1 17.7-.1 10.2-5 15.9-5 15.9-5.5 6.4-13.9 6.1-15.1 6l-29.8.2-.3-61.9zm12.5 50.3 16.9-.1c1.8 0 3.3-.4 4.5-1.1 1.2-.7 2-1.6 2.6-2.8.6-1.1 1-2.3 1.2-3.6 0-.2.2-1.3.3-2.8 0-.2-.1-17.5-.1-17.9 0-.5-.1-1.8-.3-3.2-.2-1.1-.6-2.3-1.3-3.4-.7-1.1-1.6-2.1-3-2.9-1.8-1-3.6-1.1-4.5-1.1-.3 0-16.1.1-16.2.1h-.4l.3 38.8zM454.3 51.6l34.2-23.1c-8.9 0-25.5.1-34.4.2l-.1-11.4c15.3-.1 38.2-.2 53.5-.3 0 3.8 0 7.6.1 11.5-10.1 7.7-20.3 15.4-30.4 23.1 10.2-.1 35.6-.2 45.8-.2 0 3.8 0 7.6.1 11.5-17.8.1-50.9.3-68.7.4-.1-4-.1-7.8-.1-11.7z"/><path transform="matrix(1 -.00543 .00543 1 -.274 2.417)" d="M439 32.6h11.5v38.2H439z"/><path transform="matrix(1 -.00543 .00543 1 -.119 2.415)" d="M438.8 17.3h11.5v11.5h-11.5z"/><path transform="matrix(1 -.00543 .00543 1 -.505 1.536)" d="M276.2 88.4H289V99h-12.8z"/><path d="M296.9 82.3c-.2-.9-.4-1.7-.4-2.1-1-5.4-.9-28.1-1.6-29.6-.6-1.2-1.7-2.7-4.2-4.1 2-.8 3.6-2.3 4.6-4.5.4-.8.6-1.5.8-1.9.1-.4.4-1.2.6-2.3.1-.4.2-12.7.2-14 0-4.2-1.4-7.4-4-9.6-2.6-2.3-5.9-3.4-9.8-3.4l-23.7.1.3 57 12-.1-.1-16h6.9c1.2 0 2.2.2 2.9.7.7.5 1.3 1.1 1.7 1.9.6 1.2.8 2.4.8 2.6.1.8.3 23 .3 23.1.1 1 .3 2.7.7 5.3 4.3 0 8.6 0 12.9-.1-.2-.5-.6-1.6-.9-3zm-13-44.8c0 1-.2 1.8-.5 2.4-.3.6-.8 1.1-1.3 1.4-.5.3-1.1.5-1.8.6-.6.1-1.3.2-2.1.2h-6.7l-.1-20.4h6c2.2-.1 3.6.4 4.3.7.3.2.5.3.7.4 1.2 1 1.4 2.6 1.4 3 0 .2.1 11.6.1 11.7zM218.6 114.3c.1 19.6-7.4 29.1-22.7 29.1-15.3.1-23-9.3-23.1-28.9l-.2-43.4 15.5-.1.2 38.5c0 7.2.1 16.2 7.6 16.2 7.3 0 7.3-9.1 7.2-16.3l-.3-38.4 15.5-.1.3 43.4z"/><path d="m222.2 74.8 17.1-.1 16 26.8h.2l-.1-26.9 15.8-.1.3 50.2-16.3.1-16.8-27.3h-.2l.2 43.7-15.8.1-.4-66.5zM276.3 100.8l12.7-.1.3 40.7-12.7.1-.3-40.7zM292.4 89.9h19.8l14.8 26.8h.1l-.1-26.9 14.6-.1.3 50.2-15 .1-15.5-27.3h-.1l.1 28.6-18.5.1-.5-51.5zM369.6 83.2c15.8-.1 26.4 11.7 26.5 28.2s-10.4 28.4-26.2 28.5c-15.8.1-26.4-11.7-26.5-28.2s10.4-28.4 26.2-28.5zm.2 43.1c4.1 0 10.3-2.9 10.2-14.9s-6.3-14.8-10.4-14.8c-4.1 0-10.3 2.9-10.2 14.9s6.4 14.8 10.4 14.8zM399 74.2l29.5-.2c8.8 0 16.4 4.8 16.5 14.3 0 5.2-2.3 10.7-7.5 12.6 4.2 1.6 6.9 6.2 7.5 12.5.2 2.5.3 8.4 1.7 10.7l-15.5.1c-.8-2.5-1.1-5.1-1.3-7.7-.4-4.8-.9-9.8-7-9.7h-8.2l.1 33.9-15.4.1-.4-66.6zM414.5 96h8.1c2.9 0 6.8-.5 6.8-5 0-3.2-1.8-5-7.7-5h-7.2v10zM460.6 86.3l-14.1.1-.1-12.9 43.6-.2.1 12.9-14.1.1.3 54.1-15.4.1-.3-54.2z"/><path d="m480.8 90.1 31-.3.3 12.9-15.7.1v6.3h8.6l.1 12h-8.6v6.3l26.9-.1.1 12.9-42.3.2-.4-50.3z"/></svg>