<?xml version="1.0" encoding="utf-8"?>
<!-- Generator: Adobe Illustrator 27.2.0, SVG Export Plug-In . SVG Version: 6.00 Build 0)  -->
<svg version="1.1" id="Camada_1" xmlns="http://www.w3.org/2000/svg" xmlns:xlink="http://www.w3.org/1999/xlink" x="0px" y="0px"
	 viewBox="0 0 209.6 50" style="enable-background:new 0 0 209.6 50;" xml:space="preserve">
<style type="text/css">
	.st0{fill:#FFFFFF;}
</style>
<g>
	<g>
		<g>
			<path class="st0" d="M61.8,32.5c-1.7,1.6-3.9,2.4-6.4,2.4c-2.5,0-4.7-0.8-6.4-2.4c-1.7-1.6-2.6-3.7-2.6-6.2V13.5h4.5v12.5
				c0,1.4,0.4,2.5,1.3,3.4c0.9,0.9,1.9,1.3,3.2,1.3c1.3,0,2.3-0.4,3.2-1.3c0.9-0.9,1.3-2,1.3-3.4V13.5h4.5v12.7
				C64.4,28.8,63.5,30.9,61.8,32.5z"/>
			<path class="st0" d="M68.6,34.5v-21h5l5.5,8.3c0.4,0.7,1,1.4,1.6,2.3c0.6,0.9,1.1,1.6,1.4,2.2l0.6,0.9V13.5h4.5v21h-4.8l-5.3-7.9
				c-0.6-0.8-1.2-1.8-1.9-2.8c-0.7-1-1.2-1.8-1.6-2.4l-0.5-0.9v13.9H68.6z"/>
			<path class="st0" d="M91.7,34.5v-21h4.5v21H91.7z"/>
			<path class="st0" d="M100.8,34.5v-21h5l5.5,8.3c0.4,0.7,1,1.4,1.6,2.3c0.6,0.9,1.1,1.6,1.4,2.2l0.6,0.9V13.5h4.5v21h-4.8
				l-5.3-7.9c-0.6-0.8-1.2-1.8-1.9-2.8c-0.7-1-1.2-1.8-1.6-2.4l-0.5-0.9v13.9H100.8z"/>
			<path class="st0" d="M122.9,24c0-3,1.1-5.6,3.2-7.7c2.1-2.1,4.8-3.1,8-3.1c3.2,0,5.8,1,8,3.1c2.1,2.1,3.2,4.7,3.2,7.7
				c0,3-1.1,5.6-3.2,7.7c-2.1,2.1-4.8,3.1-8,3.1c-3.2,0-5.8-1-8-3.1C123.9,29.6,122.9,27.1,122.9,24z M127.6,24
				c0,1.9,0.6,3.4,1.8,4.8c1.2,1.3,2.7,2,4.6,2c1.8,0,3.3-0.7,4.5-2c1.2-1.3,1.8-2.9,1.8-4.8c0-1.8-0.6-3.4-1.8-4.7
				c-1.2-1.3-2.7-2-4.5-2c-1.8,0-3.4,0.7-4.6,2C128.2,20.6,127.6,22.2,127.6,24z"/>
			<path class="st0" d="M148.7,34.5v-21h9c3,0,5.3,0.8,6.9,2.3c1.6,1.5,2.5,3.5,2.5,5.8c0,1.4-0.3,2.7-1,3.9
				c-0.7,1.2-1.7,2.1-2.9,2.9l4.4,6.1h-5.5l-3.2-4.9c-0.7,0-1.7,0.1-3,0.1h-2.4v4.8H148.7z M153.2,25.8h4.6c1.4,0,2.4-0.4,3.3-1.2
				c0.8-0.8,1.2-1.8,1.2-3c0-1.2-0.4-2.2-1.2-3c-0.8-0.8-1.9-1.2-3.2-1.2h-4.7V25.8z"/>
			<path class="st0" d="M176.1,34.5V17.4h-7.1v-3.9h18.8v3.9h-7.1v17.1H176.1z"/>
			<path class="st0" d="M190.6,34.5v-21h16.6v3.9h-12v4.3h11.4v3.9h-11.4v5.1h12.4v3.9H190.6z"/>
		</g>
	</g>
	<g>
		<g>
			<path class="st0" d="M35.6,2.1V10v0.7v25.2c0,1-0.2,2-0.6,2.9c-0.5,1.2-1.6,2.3-3.1,3.2c-1.3,0.7-2.8,1.3-4.2,1.6
				c-5.3,1-7.4,1.8-8.2,3L19,47.1l-0.4-0.6c-0.8-1.2-2.9-2-8.2-3c-1.4-0.3-3-0.9-4.2-1.6c-1.5-0.9-2.6-2-3.1-3.2
				c-0.4-0.9-0.6-1.9-0.6-2.9V10.6V10V2.1h9v1.6h3.2V2.1h9v1.6h3.2V2.1H35.6z M36.6,1.1h-1h-9h-1v1v0.6h-1.2V2.1v-1h-1h-9h-1v1v0.6
				h-1.2V2.1v-1h-1h-9h-1v1V10v0.7v25.2c0,1.2,0.2,2.3,0.7,3.3c0.6,1.4,1.8,2.6,3.6,3.6c1.3,0.8,3,1.4,4.5,1.7
				c4.9,0.9,7,1.6,7.6,2.6l0.4,0.6l0.8,1.2l0.8-1.2l0.4-0.6c0.6-0.9,2.7-1.6,7.6-2.6c1.5-0.3,3.2-0.9,4.5-1.7c1.7-1,2.9-2.3,3.6-3.6
				c0.5-1.1,0.7-2.2,0.7-3.3V10.6V10V2.1V1.1z"/>
			<g>
				<path class="st0" d="M15.9,6.4c-0.1-0.1-0.3-0.2-0.5-0.2h-0.7v1.3h0.7c0.2,0,0.4-0.1,0.5-0.2c0.1-0.1,0.2-0.3,0.2-0.5
					C16.1,6.7,16,6.5,15.9,6.4z"/>
				<path class="st0" d="M27.7,6.5l0-0.1c-0.1,0.3-0.2,0.5-0.3,0.7L27,7.8h1.2L27.9,7c0-0.1-0.1-0.2-0.1-0.3
					C27.8,6.6,27.7,6.5,27.7,6.5z"/>
				<path class="st0" d="M27.1,2.6v1.6H23V2.6h-8v1.6h-4.2V2.6h-8v1.6v5.9h32.3V4.2V2.6H27.1z M6,8.7H5.5L4.3,5.8h0.5l0.7,1.7
					l0.2,0.7C5.9,7.8,5.9,7.6,6,7.4l0.7-1.7h0.5L6,8.7z M11.8,8.7H9.5V5.8h2.3v0.4H10v0.7h1.6v0.4H10v0.9h1.8V8.7z M16.1,8.7L15.6,8
					c-0.1,0-0.2,0-0.5,0h-0.4v0.7h-0.5V5.8h1.2c0.4,0,0.7,0.1,1,0.3c0.2,0.2,0.3,0.5,0.3,0.8c0,0.2-0.1,0.4-0.2,0.6
					c-0.1,0.2-0.3,0.3-0.4,0.4l0.6,0.8H16.1z M19.6,8.7h-0.5V5.8h0.5V8.7z M24.5,6.2h-1v2.5h-0.5V6.2h-1V5.8h2.6V6.2z M28.7,8.7
					l-0.2-0.5h-1.6l-0.2,0.5h-0.5l1.3-2.9h0.5l1.3,2.9H28.7z M33.3,8.5c-0.2,0.2-0.5,0.2-0.8,0.2c-0.5,0-0.9-0.1-1.2-0.4l0.2-0.4
					c0.3,0.2,0.6,0.3,1,0.3c0.2,0,0.3,0,0.4-0.1C33,8.1,33.1,8,33.1,7.9c0-0.1,0-0.2-0.1-0.2c-0.1-0.1-0.1-0.1-0.2-0.1
					c-0.1,0-0.2,0-0.3-0.1c-0.1,0-0.2-0.1-0.3-0.1c-0.1,0-0.2-0.1-0.3-0.1c-0.1,0-0.2-0.1-0.3-0.2C31.6,7,31.5,7,31.5,6.9
					c0-0.1-0.1-0.2-0.1-0.3c0-0.3,0.1-0.5,0.3-0.6c0.2-0.1,0.5-0.2,0.7-0.2c0.4,0,0.7,0.1,1,0.3l-0.2,0.4c-0.3-0.2-0.5-0.2-0.8-0.2
					c-0.1,0-0.1,0-0.2,0c-0.1,0-0.1,0.1-0.2,0.1C32,6.4,32,6.5,32,6.6c0,0.1,0,0.2,0.1,0.2c0.1,0.1,0.3,0.1,0.5,0.2
					C32.7,7,32.9,7,33,7.1c0.1,0,0.2,0.1,0.3,0.2c0.1,0.1,0.2,0.2,0.3,0.3c0.1,0.1,0.1,0.2,0.1,0.4C33.6,8.1,33.5,8.4,33.3,8.5z"/>
			</g>
			<path class="st0" d="M19,10.5H2.8v25.3c0,0.9,0.2,1.9,0.6,2.7c1.1,2.4,4.4,4,7,4.5c5.2,1,7.6,1.8,8.6,3.2c1-1.4,3.4-2.2,8.6-3.2
				c2.6-0.5,6-2.1,7-4.5c0.4-0.9,0.6-1.8,0.6-2.7V10.5H19z M18.5,41.4c-2.8-0.1-5.6-1.1-7.9-3.1c0-6.3,0-19,0-19l6.6,3.4v15.4
				c0,0.8,0.5,1.4,1.3,1.5C18.5,40.3,18.5,40.9,18.5,41.4z M19,19.9c-0.5-1.9-2-3.3-3.9-3.9c1.9-0.5,3.3-2,3.9-3.9
				c0.5,1.9,2,3.3,3.9,3.9C21,16.6,19.5,18,19,19.9z M27.4,38.3c-2.3,1.9-5.1,3-7.9,3.1c0-0.5,0-1.1,0-1.7c0.7-0.1,1.3-0.8,1.3-1.5
				V22.7l6.6-3.4V38.3z"/>
		</g>
	</g>
</g>
</svg>
