<?xml version="1.0" encoding="utf-8"?>
<!-- Generator: Adobe Illustrator 27.2.0, SVG Export Plug-In . SVG Version: 6.00 Build 0)  -->
<svg version="1.1" id="Camada_1" xmlns="http://www.w3.org/2000/svg" xmlns:xlink="http://www.w3.org/1999/xlink" x="0px" y="0px"
	 viewBox="0 0 209.6 50" style="enable-background:new 0 0 209.6 50;" xml:space="preserve">
<style type="text/css">
	.st0{fill:#E86220;}
	.st1{fill:#ED8453;}
	.st2{fill:#FFFFFF;}
	.st3{fill:#07249B;}
</style>
<g>
	<g>
		<g>
			<path d="M62,32.5c-1.7,1.6-3.9,2.4-6.4,2.4c-2.5,0-4.7-0.8-6.4-2.4c-1.7-1.6-2.6-3.7-2.6-6.2V13.5h4.5v12.6
				c0,1.4,0.4,2.5,1.3,3.4c0.9,0.9,2,1.3,3.2,1.3c1.3,0,2.3-0.4,3.2-1.3c0.9-0.9,1.3-2,1.3-3.4V13.5h4.5v12.8
				C64.6,28.8,63.8,30.9,62,32.5z"/>
			<path d="M68.8,34.5v-21h5l5.5,8.3c0.4,0.7,1,1.4,1.6,2.3c0.6,0.9,1.1,1.6,1.5,2.2l0.6,0.9V13.5h4.5v21h-4.8l-5.3-7.9
				c-0.6-0.8-1.2-1.8-1.9-2.8c-0.7-1-1.2-1.8-1.6-2.4l-0.5-0.9v13.9H68.8z"/>
			<path d="M92,34.5v-21h4.5v21H92z"/>
			<path d="M101.1,34.5v-21h5l5.5,8.3c0.4,0.7,1,1.4,1.6,2.3c0.6,0.9,1.1,1.6,1.5,2.2l0.6,0.9V13.5h4.5v21h-4.8l-5.3-7.9
				c-0.6-0.8-1.2-1.8-1.9-2.8c-0.7-1-1.2-1.8-1.6-2.4l-0.5-0.9v13.9H101.1z"/>
			<path d="M123.2,24c0-3,1.1-5.6,3.2-7.7c2.1-2.1,4.8-3.1,8-3.1c3.2,0,5.9,1,8,3.1c2.1,2.1,3.2,4.7,3.2,7.7c0,3.1-1.1,5.6-3.2,7.7
				c-2.1,2.1-4.8,3.1-8,3.1c-3.2,0-5.9-1-8-3.1C124.3,29.7,123.2,27.1,123.2,24z M128,24c0,1.9,0.6,3.5,1.8,4.8c1.2,1.3,2.8,2,4.6,2
				c1.8,0,3.3-0.7,4.5-2c1.2-1.3,1.8-2.9,1.8-4.8c0-1.8-0.6-3.4-1.8-4.7c-1.2-1.3-2.7-2-4.5-2c-1.8,0-3.4,0.7-4.6,2
				C128.6,20.6,128,22.2,128,24z"/>
			<path d="M149.1,34.5v-21h9c3,0,5.3,0.8,6.9,2.3c1.6,1.5,2.5,3.5,2.5,5.8c0,1.4-0.3,2.7-1,3.9c-0.7,1.2-1.7,2.2-2.9,2.9l4.4,6.1
				h-5.6l-3.2-4.9c-0.7,0-1.7,0.1-3.1,0.1h-2.4v4.8H149.1z M153.6,25.8h4.6c1.4,0,2.5-0.4,3.3-1.2c0.8-0.8,1.2-1.8,1.2-3
				c0-1.2-0.4-2.2-1.2-3c-0.8-0.8-1.9-1.2-3.2-1.2h-4.7V25.8z"/>
			<path d="M176.5,34.5V17.4h-7.1v-3.9h18.8v3.9h-7.1v17.1H176.5z"/>
			<path d="M191.1,34.5v-21h16.6v3.9h-12v4.3h11.4v3.9h-11.4v5.1h12.5v3.9H191.1z"/>
		</g>
	</g>
	<g>
		<path class="st0" d="M3,10.4v25.4c0,0.9,0.2,1.9,0.6,2.7v0c1.1,2.4,4.4,4,7,4.5c5.2,1,7.6,1.8,8.6,3.2c1-1.4,3.4-2.2,8.6-3.2
			c2.6-0.5,6-2.1,7-4.5v0c0.4-0.9,0.6-1.8,0.6-2.7V10.4c0,0-14.5,0-16.2,0C17.5,10.4,3,10.4,3,10.4z"/>
		<path class="st0" d="M35.8,2.1v7.8v0.7v25.2c0,1-0.2,2-0.6,2.9c-0.5,1.2-1.6,2.3-3.1,3.2c-1.3,0.7-2.8,1.3-4.2,1.6
			c-5.3,1-7.4,1.8-8.3,3l-0.4,0.6l-0.4-0.6c-0.8-1.2-2.9-2-8.3-3c-1.4-0.3-3-0.9-4.2-1.6c-1.5-0.9-2.6-2-3.1-3.2
			c-0.4-0.9-0.6-1.9-0.6-2.9V10.6V9.9V2.1h9v1.6h3.2V2.1h9v1.6h3.2V2.1H35.8 M36.8,1.1h-1h-9h-1v1v0.6h-1.2V2.1v-1h-1h-9h-1v1v0.6
			h-1.2V2.1v-1h-1h-9h-1v1v7.8v0.7v25.2c0,1.2,0.2,2.3,0.7,3.3c0.6,1.4,1.8,2.6,3.6,3.6c1.3,0.8,3,1.4,4.6,1.7
			c4.9,0.9,7,1.6,7.6,2.6l0.4,0.6l0.8,1.2l0.8-1.2l0.4-0.6c0.7-0.9,2.7-1.7,7.6-2.6c1.5-0.3,3.2-0.9,4.6-1.7c1.7-1,3-2.3,3.6-3.6
			c0.5-1.1,0.7-2.2,0.7-3.3V10.6V9.9V2.1V1.1L36.8,1.1z"/>
		<polygon class="st1" points="27.3,2.6 27.3,4.2 23.1,4.2 23.1,2.6 15.1,2.6 15.1,4.2 11,4.2 11,2.6 3,2.6 3,4.2 3,10.1 35.3,10.1 
			35.3,4.2 35.3,2.6 		"/>
		<g>
			<path class="st2" d="M5.7,8.7L4.5,5.7H5l0.7,1.7l0.2,0.7C6,7.8,6.1,7.6,6.1,7.4l0.7-1.7h0.5L6.2,8.7H5.7z"/>
			<path class="st2" d="M9.6,8.7V5.7h2.3v0.4h-1.7v0.7h1.6v0.4h-1.6v0.9H12v0.4H9.6z"/>
			<path class="st2" d="M14.3,8.7V5.7h1.2c0.4,0,0.7,0.1,1,0.3c0.2,0.2,0.3,0.5,0.3,0.8c0,0.2-0.1,0.4-0.2,0.6
				c-0.1,0.2-0.3,0.3-0.4,0.4l0.6,0.8h-0.6L15.7,8c-0.1,0-0.2,0-0.5,0h-0.4v0.7H14.3z M14.8,7.5h0.7c0.2,0,0.4-0.1,0.5-0.2
				c0.1-0.1,0.2-0.3,0.2-0.5c0-0.2-0.1-0.3-0.2-0.5c-0.1-0.1-0.3-0.2-0.5-0.2h-0.7V7.5z"/>
			<path class="st2" d="M19.2,8.7V5.7h0.5v2.9H19.2z"/>
			<path class="st2" d="M23.1,8.7V6.2h-1V5.7h2.6v0.4h-1v2.5H23.1z"/>
			<path class="st2" d="M26.3,8.7l1.3-2.9h0.5l1.3,2.9h-0.5l-0.2-0.5H27l-0.2,0.5H26.3z M27.2,7.7h1.2L28.1,7c0-0.1-0.1-0.2-0.1-0.3
				c-0.1-0.1-0.1-0.2-0.1-0.3l0-0.1c-0.1,0.3-0.2,0.5-0.3,0.7L27.2,7.7z"/>
			<path class="st2" d="M31.5,8.3l0.2-0.4c0.3,0.2,0.6,0.3,1,0.3c0.2,0,0.3,0,0.4-0.1c0.1-0.1,0.2-0.2,0.2-0.3c0-0.1,0-0.2-0.1-0.2
				c-0.1-0.1-0.1-0.1-0.2-0.1c-0.1,0-0.2,0-0.3-0.1s-0.2-0.1-0.3-0.1c-0.1,0-0.2-0.1-0.3-0.1c-0.1,0-0.2-0.1-0.3-0.2
				c-0.1-0.1-0.1-0.1-0.2-0.2c0-0.1-0.1-0.2-0.1-0.3c0-0.3,0.1-0.5,0.3-0.6c0.2-0.1,0.5-0.2,0.7-0.2c0.4,0,0.7,0.1,1,0.3l-0.2,0.4
				c-0.3-0.2-0.5-0.2-0.8-0.2c-0.1,0-0.1,0-0.2,0c-0.1,0-0.1,0.1-0.2,0.1c-0.1,0.1-0.1,0.1-0.1,0.2c0,0.1,0,0.2,0.1,0.2
				c0.1,0.1,0.3,0.1,0.5,0.2C32.9,7,33,7,33.2,7c0.1,0,0.2,0.1,0.3,0.2c0.1,0.1,0.2,0.2,0.3,0.3c0.1,0.1,0.1,0.2,0.1,0.4
				c0,0.3-0.1,0.5-0.4,0.7c-0.2,0.2-0.5,0.2-0.8,0.2C32.2,8.7,31.8,8.6,31.5,8.3z"/>
		</g>
		<g>
			<path class="st2" d="M23,16L23,16L23,16c-1.9,0.5-3.3,2-3.9,3.9l0,0v0c-0.5-1.9-2-3.3-3.9-3.9l0,0h0c1.9-0.5,3.3-2,3.9-3.9v0l0,0
				C19.7,14,21.1,15.5,23,16z"/>
		</g>
		<g>
			<path class="st3" d="M17.4,38.1V22.7l-6.6-3.4c0,0,0,12.7,0,19c2.3,2,5.1,3,7.9,3.1c0-0.5,0-1.1,0-1.7
				C17.9,39.5,17.4,38.9,17.4,38.1z"/>
			<path class="st3" d="M20.9,22.7v15.5c0,0.8-0.5,1.4-1.3,1.6c0,0.6,0,1.2,0,1.7c2.8-0.1,5.6-1.1,7.9-3.1c0-6.3,0-19,0-19
				L20.9,22.7z"/>
		</g>
	</g>
</g>
</svg>
