<svg version="1.1" id="Camada_1" xmlns="http://www.w3.org/2000/svg" x="0" y="0" viewBox="0 0 209.6 50" style="enable-background:new 0 0 209.6 50" xml:space="preserve"><style>.st0{fill:#e86220}.st2{fill:#fff}.st3{fill:#07249b}</style><path d="M62 32.5c-1.7 1.6-3.9 2.4-6.4 2.4-2.5 0-4.7-.8-6.4-2.4-1.7-1.6-2.6-3.7-2.6-6.2V13.5h4.5v12.6c0 1.4.4 2.5 1.3 3.4.9.9 2 1.3 3.2 1.3 1.3 0 2.3-.4 3.2-1.3.9-.9 1.3-2 1.3-3.4V13.5h4.5v12.8c0 2.5-.8 4.6-2.6 6.2zM68.8 34.5v-21h5l5.5 8.3c.4.7 1 1.4 1.6 2.3.6.9 1.1 1.6 1.5 2.2l.6.9V13.5h4.5v21h-4.8l-5.3-7.9c-.6-.8-1.2-1.8-1.9-2.8-.7-1-1.2-1.8-1.6-2.4l-.5-.9v13.9h-4.6zM92 34.5v-21h4.5v21H92zM101.1 34.5v-21h5l5.5 8.3c.4.7 1 1.4 1.6 2.3.6.9 1.1 1.6 1.5 2.2l.6.9V13.5h4.5v21H115l-5.3-7.9c-.6-.8-1.2-1.8-1.9-2.8-.7-1-1.2-1.8-1.6-2.4l-.5-.9v13.9h-4.6zM123.2 24c0-3 1.1-5.6 3.2-7.7 2.1-2.1 4.8-3.1 8-3.1s5.9 1 8 3.1c2.1 2.1 3.2 4.7 3.2 7.7 0 3.1-1.1 5.6-3.2 7.7-2.1 2.1-4.8 3.1-8 3.1s-5.9-1-8-3.1c-2.1-2-3.2-4.6-3.2-7.7zm4.8 0c0 1.9.6 3.5 1.8 4.8 1.2 1.3 2.8 2 4.6 2 1.8 0 3.3-.7 4.5-2 1.2-1.3 1.8-2.9 1.8-4.8 0-1.8-.6-3.4-1.8-4.7-1.2-1.3-2.7-2-4.5-2-1.8 0-3.4.7-4.6 2-1.2 1.3-1.8 2.9-1.8 4.7zM149.1 34.5v-21h9c3 0 5.3.8 6.9 2.3 1.6 1.5 2.5 3.5 2.5 5.8 0 1.4-.3 2.7-1 3.9-.7 1.2-1.7 2.2-2.9 2.9l4.4 6.1h-5.6l-3.2-4.9c-.7 0-1.7.1-3.1.1h-2.4v4.8h-4.6zm4.5-8.7h4.6c1.4 0 2.5-.4 3.3-1.2.8-.8 1.2-1.8 1.2-3s-.4-2.2-1.2-3c-.8-.8-1.9-1.2-3.2-1.2h-4.7v8.4zM176.5 34.5V17.4h-7.1v-3.9h18.8v3.9h-7.1v17.1h-4.6zM191.1 34.5v-21h16.6v3.9h-12v4.3h11.4v3.9h-11.4v5.1h12.5v3.9h-17.1z"/><path class="st0" d="M3 10.4v25.4c0 .9.2 1.9.6 2.7 1.1 2.4 4.4 4 7 4.5 5.2 1 7.6 1.8 8.6 3.2 1-1.4 3.4-2.2 8.6-3.2 2.6-.5 6-2.1 7-4.5.4-.9.6-1.8.6-2.7V10.4H3z"/><path class="st0" d="M35.8 2.1v33.7c0 1-.2 2-.6 2.9-.5 1.2-1.6 2.3-3.1 3.2-1.3.7-2.8 1.3-4.2 1.6-5.3 1-7.4 1.8-8.3 3l-.4.6-.4-.6c-.8-1.2-2.9-2-8.3-3-1.4-.3-3-.9-4.2-1.6-1.5-.9-2.6-2-3.1-3.2-.4-.9-.6-1.9-.6-2.9V2.1h9v1.6h3.2V2.1h9v1.6H27V2.1h8.8m1-1h-11v1.6h-1.2V1.1h-11v1.6h-1.2V1.1h-11v34.7c0 1.2.2 2.3.7 3.3.6 1.4 1.8 2.6 3.6 3.6 1.3.8 3 1.4 4.6 1.7 4.9.9 7 1.6 7.6 2.6l.4.6.8 1.2.8-1.2.4-.6c.7-.9 2.7-1.7 7.6-2.6 1.5-.3 3.2-.9 4.6-1.7 1.7-1 3-2.3 3.6-3.6.5-1.1.7-2.2.7-3.3V1.1z"/><path style="fill:#ed8453" d="M27.3 2.6v1.6h-4.2V2.6h-8v1.6H11V2.6H3v7.5h32.3V2.6z"/><path class="st2" d="m5.7 8.7-1.2-3H5l.7 1.7.2.7c.1-.3.2-.5.2-.7l.7-1.7h.5l-1.1 3h-.5zM9.6 8.7v-3h2.3v.4h-1.7v.7h1.6v.4h-1.6v.9H12v.4H9.6zM14.3 8.7v-3h1.2c.4 0 .7.1 1 .3.2.2.3.5.3.8 0 .2-.1.4-.2.6-.1.2-.3.3-.4.4l.6.8h-.6l-.5-.6h-.9v.7h-.5zm.5-1.2h.7c.2 0 .4-.1.5-.2.1-.1.2-.3.2-.5s-.1-.3-.2-.5c-.1-.1-.3-.2-.5-.2h-.7v1.4zM19.2 8.7v-3h.5v2.9h-.5zM23.1 8.7V6.2h-1v-.5h2.6v.4h-1v2.5h-.6zM26.3 8.7l1.3-2.9h.5l1.3 2.9h-.5l-.2-.5H27l-.2.5h-.5zm.9-1h1.2l-.3-.7c0-.1-.1-.2-.1-.3-.1-.1-.1-.2-.1-.3v-.1c-.1.3-.2.5-.3.7l-.4.7zM31.5 8.3l.2-.4c.3.2.6.3 1 .3.2 0 .3 0 .4-.1.1-.1.2-.2.2-.3 0-.1 0-.2-.1-.2-.1-.1-.1-.1-.2-.1s-.2 0-.3-.1-.2-.1-.3-.1c-.1 0-.2-.1-.3-.1-.1 0-.2-.1-.3-.2l-.2-.2c0-.1-.1-.2-.1-.3 0-.3.1-.5.3-.6.2-.1.5-.2.7-.2.4 0 .7.1 1 .3l-.2.4c-.3-.2-.5-.2-.8-.2h-.2c-.1 0-.1.1-.2.1-.1.1-.1.1-.1.2s0 .2.1.2c.1.1.3.1.5.2.3.1.4.1.6.1.1 0 .2.1.3.2l.3.3c.1.1.1.2.1.4 0 .3-.1.5-.4.7-.2.2-.5.2-.8.2-.5-.1-.9-.2-1.2-.5zM23 16c-1.9.5-3.3 2-3.9 3.9-.5-1.9-2-3.3-3.9-3.9 1.9-.5 3.3-2 3.9-3.9.6 1.9 2 3.4 3.9 3.9z"/><path class="st3" d="M17.4 38.1V22.7l-6.6-3.4v19c2.3 2 5.1 3 7.9 3.1v-1.7c-.8-.2-1.3-.8-1.3-1.6zM20.9 22.7v15.5c0 .8-.5 1.4-1.3 1.6v1.7c2.8-.1 5.6-1.1 7.9-3.1v-19l-6.6 3.3z"/></svg>