<svg xmlns="http://www.w3.org/2000/svg" width="536" height="416.906"><defs><clipPath id="a"><path data-name="Retângulo 146" fill="none" d="M0 0h536v416.906H0z"/></clipPath></defs><g data-name="Grupo 182" clip-path="url(#a)" fill="#003764"><path data-name="Caminho 597" d="M385.389 316.131H180.382l-75.88 75.88v-75.88H25.593a15.3 15.3 0 0 1-15.281-15.282v-87.118H0v87.118a25.622 25.622 0 0 0 25.593 25.594h68.6v90.463l90.463-90.463h200.733Z"/><path data-name="Caminho 598" d="M525.688 213.731v87.118a15.3 15.3 0 0 1-15.282 15.282H495.09v10.312h15.316A25.623 25.623 0 0 0 536 300.849v-87.118Z"/><path data-name="Caminho 599" d="M31.96 44.112v34.373H.451V51.56q0-21.933 5.277-31.755Q12.656 6.713 27.663.004l7.161 11.467q-9.104 3.733-13.409 11.122t-4.8 21.519Zm50.7 0v34.373H51.151V51.56q0-21.933 5.277-31.755Q63.356 6.713 78.363.004l7.161 11.467q-9.103 3.733-13.409 11.122t-4.8 21.519Z"/><path data-name="Caminho 600" d="M450.168 326.369v-34.373h31.509v26.926q0 21.933-5.277 31.755-6.928 13.091-21.935 19.8l-7.161-11.467q9.1-3.739 13.409-11.126t4.8-21.519Zm-50.7 0v-34.373h31.509v26.926q0 21.933-5.277 31.755-6.928 13.091-21.935 19.8l-7.161-11.467q9.1-3.739 13.409-11.126t4.8-21.519Z"/></g></svg>