<svg xmlns="http://www.w3.org/2000/svg" xmlns:xlink="http://www.w3.org/1999/xlink" width="536" height="416.906" viewBox="0 0 536 416.906">
  <defs>
    <clipPath id="clip-path">
      <rect id="Retângulo_146" data-name="Retângulo 146" width="536" height="416.906" transform="translate(0 0)" fill="none"/>
    </clipPath>
  </defs>
  <g id="Grupo_182" data-name="Grupo 182" clip-path="url(#clip-path)">
    <path id="Caminho_597" data-name="Caminho 597" d="M385.389,848.553H180.382l-75.88,75.88v-75.88H25.593a15.3,15.3,0,0,1-15.281-15.282V746.153H0v87.118a25.622,25.622,0,0,0,25.593,25.594h68.6v90.463l90.463-90.463H385.389Z" transform="translate(0 -532.422)" fill="#003764"/>
    <path id="Caminho_598" data-name="Caminho 598" d="M1759.012,746.153v87.118a15.3,15.3,0,0,1-15.282,15.282h-15.316v10.312h15.316a25.623,25.623,0,0,0,25.594-25.594V746.153Z" transform="translate(-1233.324 -532.422)" fill="#003764"/>
    <path id="Caminho_599" data-name="Caminho 599" d="M33.085,44.108V78.481H1.576V51.556q0-21.933,5.277-31.755Q13.781,6.709,28.788,0l7.161,11.467Q26.845,15.2,22.54,22.589t-4.8,21.519Zm50.7,0V78.481H52.276V51.556q0-21.933,5.277-31.755Q64.481,6.709,79.488,0l7.161,11.467Q77.546,15.2,73.24,22.589t-4.8,21.519Z" transform="translate(-1.125 0.004)" fill="#003764"/>
    <path id="Caminho_600" data-name="Caminho 600" d="M1438.15,1053.76v-34.373h31.509v26.926q0,21.933-5.277,31.755-6.928,13.091-21.935,19.8l-7.161-11.467q9.1-3.739,13.409-11.126t4.8-21.519Zm-50.7,0v-34.373h31.509v26.926q0,21.933-5.277,31.755-6.928,13.091-21.935,19.8l-7.161-11.467q9.1-3.739,13.409-11.126t4.8-21.519Z" transform="translate(-987.982 -727.391)" fill="#003764"/>
  </g>
</svg>
