<?xml version="1.0" encoding="utf-8"?>
<!-- Generator: Adobe Illustrator 26.3.1, SVG Export Plug-In . SVG Version: 6.00 Build 0)  -->
<svg version="1.1" id="Camada_1" xmlns="http://www.w3.org/2000/svg" xmlns:xlink="http://www.w3.org/1999/xlink" x="0px" y="0px"
	 viewBox="0 0 1288.2 318.8" style="enable-background:new 0 0 1288.2 318.8;" xml:space="preserve">
<style type="text/css">
	.st0{fill:#FFFFFF;}
	.st1{fill:#003764;}
	.st2{fill:#FCE200;}
</style>
<g>
	<g>
		<path class="st0" d="M386.2,15.8h29.4l35.5,120.9h-31.1l-4.1-17.3h-31l-4.4,17.3h-30.2L386.2,15.8z M409.8,93.5l-8.7-37.3h-0.3
			l-9.4,37.3H409.8z"/>
		<path class="st0" d="M461.1,15.8c19.6,0,39.3,0,58.9,0c7.4,0,13.7,1.2,19.2,3.7c5.4,2.5,9.8,5.8,13.1,9.8
			c3.3,4.1,5.7,8.4,7.3,13.2c1.5,4.7,2.3,9.4,2.3,13.9c0,0,0,21.8-0.1,23.4c-1,17.5-12.1,28.3-12.1,28.3
			c-12.1,11.5-30,10.7-32.6,10.7h-24.5v28c-10.5,0-21,0-31.5,0C461.1,103.1,461.1,59.4,461.1,15.8z M492.7,90.5h15.1
			c2.4,0,4.5-0.1,6.4-0.3c1.8-0.2,3.5-0.7,5-1.6c1.5-0.8,2.7-2.1,3.6-3.8c1.1-2.1,1.2-4.3,1.3-5.7c0-0.2,0-20.8,0-21.4
			c0-1.7-0.1-3.9-1.1-6.2c-0.7-1.6-1.8-2.8-3.1-3.5c-1.4-0.7-2.8-1.2-4.4-1.4c-1.6-0.2-3.5-0.3-5.9-0.3h-16.9V90.5z"/>
		<path class="st0" d="M682.9,25.8h110.9v31H718v29.4h45.5v30.2H718v9.3h126.2v31H682.9V25.8z"/>
		<path class="st0" d="M803.8,25.8c10.1,0,20.2,0,30.2,0c13.4,23.5,26.9,47,40.3,70.5c0-16.8,0-33.6,0-50.4
			c10.1,0.1,20.2,0.1,30.2,0.2v110.7c-10.1,0-20.2,0-30.2,0c-13.4-26.9-26.9-53.8-40.3-80.6c0,13.4,0,26.9,0,40.3
			c-10.1,0-20.2,0-30.2,0C803.8,86.3,803.8,56.1,803.8,25.8z"/>
		<path class="st0" d="M914.7,15.8h73.9c8.4,0,15.6,1.6,21.6,4.8c6,3.2,10.9,7.6,14.7,13.2c3.7,5.6,6.5,11.8,8.2,18.8
			c1.7,7,2.6,14.4,2.6,22.2c0,0,0,23.7,0,24.5c-0.5,26.9-13.4,41.8-13.4,41.8c-14.6,16.9-36.7,15.9-40,15.7h-67.6V15.8z
			 M946.8,126.5h33.7c4.8,0,8.7-0.9,11.8-2.8c3.1-1.9,5.4-4.3,7-7.3c1.6-3,2.7-6.1,3.3-9.4c0.1-0.6,0.6-3.4,0.8-7.4
			c0-0.6,0.1-24.1,0.1-25.3c0-1.3-0.2-4.7-0.8-8.4c-0.5-3-1.7-6.1-3.4-9.1c-1.7-3-4.3-5.6-7.7-7.6c-4.7-2.8-9.4-2.9-11.8-3
			c-0.7,0-31.5,0-31.8,0c-0.4,0-0.8,0-1.1,0V126.5z"/>
		<path class="st0" d="M1086,126.6c30.2-20.2,60.5-40.3,90.7-60.5c-23.5,0-67.2,0-90.7,0V36c40.3,0,100.8,0,141.1,0
			c0,10.1,0,20.2,0,30.2c-26.9,20.2-53.8,40.3-80.6,60.5c26.9,0,94.1,0,120.9,0c0,10.1,0,20.2,0,30.2c-47,0-134.4,0-181.4,0
			C1086,146.8,1086,136.7,1086,126.6z"/>
		<path class="st0" d="M451.1,242.2c0,30.2-17.3,45.4-52,45.4c-34.7,0-48.8-20.2-48.8-45.4v-95.5h35.2v80.4c0,3.9,0.1,14.6,0.4,17.2
			c0.3,2.6,0.9,5.1,1.9,7.5c0.5,1.2,1.1,2.1,1.3,2.4c1.6,2.4,5.3,5.3,10.2,5.8c0.4,0,5.2,0.5,9.4-2.2c2.3-1.5,4-3.5,5-5.9
			c1-2.4,1.6-4.9,1.8-7.5c0.2-2.6,0.3-13.3,0.3-17.2v-80.4h35.2V242.2z"/>
		<path class="st0" d="M461.1,166.9c10.1,0,20.2,0,30.2,0c13.4,20.2,26.9,40.3,40.3,60.5c0-26.9,0-73.9,0-100.8
			c10.1,0,20.2,0,30.2,0v161.3c-10.1,0-20.2,0-30.2,0c-13-21.3-26.1-42.7-39.1-64h-0.3V308h-31.2V166.9z"/>
		<path class="st0" d="M572,187.1h30.2v100.8H572V187.1z"/>
		<path class="st0" d="M848,246.7c0,2.8,0.4,5.4,1.2,7.6c1.1,3.1,3.2,5.3,6.1,6.6c2.9,1.2,5.6,1.6,7.3,1.7c0.3,0,41.2,0,41.3,0
			c3.3,0.2,5.6-0.2,6.6-0.3c0.1,0,0.2,0,0.4-0.1c1.6-0.3,3.1-0.9,4.6-1.6c1.4-0.8,2.6-1.8,3.5-3.2c0.9-1.4,1.3-3.1,1.3-5.2
			c0-1.5-0.4-2.8-1.1-3.8c-0.7-1-1.9-2-3.6-2.9c-1.7-0.9-4-1.9-7-2.8c-2.9-1-47.7-2.2-52.9-3.7l-1.9-0.5c-6-1.8-10.8-3.4-14.4-4.8
			c-3.6-1.4-7-3.2-10.3-5.6c-3.3-2.4-6-5.4-8-9.2c-2-3.7-3-8.3-3-13.6c0-6.4,1.2-12,3.6-17c2.4-4.9,5.7-9,9.9-12.1
			c4.2-3.1,8.9-5.5,14.3-7c5.3-1.5,10.9-2.3,16.8-2.3c6.3,0,52.9,0.7,58.3,2c5.4,1.4,10.2,3.5,14.4,6.5c4.2,3,7.6,6.9,10.2,11.8
			c2.5,4.9,3.9,10.7,4.1,17.5h-32.3c0-0.2,0-0.5,0-0.8c0.1-0.4,0.2-0.7,0.2-0.8c0-3.1-1.4-5.7-4.2-7.6c-1.3-1-2.9-1.7-4.7-2.2
			c-2.2-0.6-4.2-0.7-4.9-0.7c-0.3,0-41.2,0-41.3,0c-2.1,0-5.2,0.3-8.5,1.7c-2.5,1.1-3.8,3.2-3.8,6.1c0.2,2.9,2.1,5.2,5.6,6.7
			c3.5,1.6,49.8,3.3,57.3,5.3c4.8,1.2,8.1,2.1,9.9,2.6c4.4,1.3,8.5,2.8,12,4.4c3.6,1.6,6.8,3.7,9.7,6.3c2.9,2.5,5.2,5.7,6.9,9.5
			c1.7,3.8,2.6,8.2,2.6,13.3c0,7.3-1.4,13.5-4.3,18.6c-2.9,5.1-6.8,9.3-11.6,12.4c-4.9,3.1-10.3,5.4-16.4,6.8
			c-6.1,1.4-53.1,2.1-59.6,2.1c-4.1,0-8.8-0.5-14-1.5c-5.2-1-10.5-3-15.8-5.9c-5.3-2.9-9.8-7.2-13.3-12.8
			c-3.6-5.6-5.4-12.8-5.5-21.4H848z"/>
		<path class="st0" d="M989,249.8c0,2.6,0.4,4.9,1.1,7c1,2.9,2.7,4.9,5.3,6c2.5,1.1,5.5,1.7,8.8,1.7c1.3,0,2.7-0.1,4.1-0.4
			c1.4-0.3,2.7-0.8,3.9-1.5c1.2-0.7,2.2-1.7,3-3c0.8-1.3,1.1-2.9,1.1-4.7c0-1.4-0.3-2.5-0.9-3.5c-0.6-0.9-1.7-1.8-3.1-2.7
			c-1.5-0.8-3.5-1.7-6-2.6c-2.5-0.9-6-2-10.5-3.4l-1.6-0.4c-5.2-1.7-9.3-3.1-12.4-4.4c-3.1-1.2-6-2.9-8.9-5.1
			c-2.9-2.2-5.1-5-6.9-8.4c-1.7-3.4-2.6-7.5-2.6-12.4c0-5.8,1-11,3.1-15.5c2.1-4.5,4.9-8.2,8.6-11c3.6-2.9,7.7-5,12.3-6.4
			c4.6-1.4,9.4-2.1,14.5-2.1c5.4,0,10.5,0.6,15.1,1.9c4.6,1.2,8.8,3.2,12.4,5.9c3.7,2.7,6.6,6.3,8.8,10.7c2.2,4.4,3.4,9.8,3.5,16
			h-27.8c0-0.2,0-0.4,0-0.7c0.1-0.4,0.1-0.6,0.1-0.7c0-2.9-1.2-5.2-3.6-7c-1.2-0.9-2.5-1.6-4-2c-1.5-0.4-3.1-0.7-4.7-0.7
			c-2.7,0-5.1,0.5-7.3,1.6c-2.2,1-3.3,2.9-3.3,5.6c0.2,2.7,1.8,4.7,4.8,6.2c3,1.4,7.8,3,14.3,4.8c4.1,1.1,6.9,1.9,8.6,2.4
			c3.8,1.2,7.3,2.5,10.4,4c3.1,1.5,5.9,3.4,8.3,5.7c2.5,2.3,4.5,5.2,5.9,8.7c1.5,3.5,2.2,7.5,2.2,12.2c0,6.6-1.2,12.3-3.7,17
			c-2.5,4.7-5.8,8.5-10,11.3c-4.2,2.9-8.9,4.9-14.1,6.2c-5.2,1.3-10.6,1.9-16.2,1.9c-3.6,0-7.6-0.5-12.1-1.4
			c-4.5-0.9-9-2.7-13.6-5.4c-4.6-2.7-8.4-6.6-11.5-11.7c-3.1-5.1-4.7-11.7-4.7-19.6H989z"/>
		<path class="st0" d="M1078,187.1h26.4l32,100.8c-8.7,0-17.4,0-26.1,0c-0.6,0-1.3,0-1.9,0c-1.2-4.8-2.5-9.6-3.7-14.4h-27.9
			l-3.9,14.4h-27.2L1078,187.1z M1099.3,251.9l-7.9-31.1h-0.2l-8.5,31.1H1099.3z"/>
		<path class="st0" d="M1267.4,239.4c0,14.5-3.4,25.7-10.3,33.7c-12.4,14.5-33.3,14.6-39.5,14.7c-0.3,0-29.3,0-29.9,0
			c-6.4,0-28.3,0.1-41-14.8c-6.8-8-10.2-19.2-10.2-33.6v-72.4h34.6v64.3c0,4.2,0.1,7.7,0.4,10.4c0.3,2.8,0.9,5.4,1.9,8
			c1,2.6,2.7,4.7,5,6.3c2.4,1.6,5.5,2.4,9.5,2.4c0.6,0,29.5,0,29.7,0c1.8-0.1,5-0.2,8.2-2.4c2-1.3,3.1-2.9,3.5-3.4
			c0.6-0.9,1.1-1.8,1.5-2.9c1-2.6,1.6-5.3,1.8-8c0.2-2.8,0.3-6.2,0.3-10.4v-64.3h34.6V239.4z"/>
		<path class="st0" d="M612.3,177c10.1,0,20.2,0,30.2,0c10.1,16.8,20.2,33.6,30.2,50.4c0-13.4,0-46.7,0-60.1c10.1,0,20.2,0,30.2,0
			c0,33.6,0,87,0,120.6c-10.1,0-20.2,0-30.2,0c-10.1-20.2-20.2-40.3-30.2-60.5c0,20.2,0,40.3,0,60.5c-10.1,0-20.2,0-30.2,0
			C612.3,250.9,612.3,214,612.3,177z"/>
		<path class="st0" d="M820.4,308.1c-11.3-33.6-15.7-47.4-21.1-63.5c-2.7-8.2-19.3-57.7-21.8-65.2c-0.4-1.2-0.7-2-0.8-2.3H746
			l-37.5,110.8H740l4.6-15.8c11,0,22.1-0.1,33.1-0.1c5.3,15.4,7.1,20.8,12.4,36.2C800.2,308.1,810.3,308.1,820.4,308.1z
			 M751.5,248.2l9.8-34.1h0.3l9.1,34.1H751.5z"/>
		<g>
			<rect x="1045.7" y="76.2" class="st0" width="30.2" height="100.8"/>
			<rect x="1045.7" y="35.9" class="st0" width="30.2" height="30.2"/>
		</g>
		<path class="st0" d="M390.6,257.4"/>
		<path class="st0" d="M511.5,287.9"/>
		<g>
			<path class="st0" d="M670.3,148.3c-3.2-13.9-1.3-19.6-5-26.7c-1.6-3-4.6-7.1-11.2-10.8c5.4-2.1,9.5-6.1,12.3-11.8
				c1-2.1,1.7-3.9,2.1-5c0.3-1,1.1-3.3,1.6-6.2c0.2-1,0.6-33.6,0.6-37c0-11-3.5-19.5-10.4-25.5c-6.9-6-15.5-9.1-25.7-9.1H572v120.4
				h31.8v-11.9h18.1c3.2,0,5.8,0.7,7.7,1.9c2,1.3,3.5,3,4.5,5.2c1.5,3.2,2,6.3,2.1,6.9c0.6,4.2,1.5,10.4,2.4,18.1h34.1
				C672.1,155,671.2,152,670.3,148.3z M636.6,86.8c0,2.6-0.5,4.7-1.4,6.4c-0.9,1.6-2.1,2.9-3.6,3.6c-1.4,0.8-3,1.3-4.6,1.6
				c-1.7,0.3-3.5,0.4-5.4,0.4h-17.8V45.1c5.3,0,10.6,0,16,0c5.9-0.3,9.5,1,11.3,1.9c0.9,0.4,1.4,0.8,1.8,1.1c3.2,2.6,3.7,6.8,3.8,8
				C636.6,56.5,636.6,86.6,636.6,86.8z"/>
			<rect x="572" y="146.8" class="st0" width="30.2" height="30.2"/>
		</g>
	</g>
	<g>
		<path class="st1" d="M292.2,289.3H136.6c-64.9,0-117.9-53.1-117.9-117.9V15.8h273.6V289.3z"/>
		<g>
			<g>
				<path class="st0" d="M222.8,251.3C222.8,251.3,222.8,251.3,222.8,251.3c-21.9,0-39.8-17.9-39.8-39.9l0-86.7l-86.3,0
					c-21.9,0-39.8-17.9-39.8-39.9c0-22,17.8-39.9,39.8-39.9c0,0,0,0,0,0l126.1,0c0,0,0,0,0,0c10.6,0,20.6,4.2,28.1,11.7
					c7.5,7.5,11.6,17.6,11.6,28.2l0,126.6c0,10.7-4.1,20.7-11.6,28.2C243.4,247.1,233.4,251.3,222.8,251.3z M185,122.7l0,88.7
					c0,20.9,16.9,37.9,37.8,37.9c0,0,0,0,0,0c10.1,0,19.6-3.9,26.7-11.1c7.1-7.2,11.1-16.7,11.1-26.8l0-126.6
					c0-10.1-3.9-19.7-11.1-26.8c-7.1-7.2-16.6-11.1-26.7-11.1c0,0,0,0,0,0l-126.1,0c0,0,0,0,0,0c-20.8,0-37.8,17-37.8,37.9
					c0,20.9,16.9,37.9,37.8,37.9L185,122.7z"/>
			</g>
			<path class="st2" d="M249.3,97.1c0-21.5-17.3-38.9-38.8-38.9l-126.1,0c-21.4,0-38.8,17.4-38.8,38.9c0,21.5,17.4,38.9,38.8,38.9
				l62,0c14,0,25.4,11.4,25.4,25.4l0,62.3c0,21.5,17.4,38.9,38.8,38.9c21.4,0,38.8-17.4,38.8-38.9L249.3,97.1z"/>
			<circle class="st2" cx="138.5" cy="169.3" r="26"/>
		</g>
	</g>
</g>
</svg>
