<?xml version="1.0" encoding="utf-8"?>
<!-- Generator: Adobe Illustrator 26.5.0, SVG Export Plug-In . SVG Version: 6.00 Build 0)  -->
<svg version="1.1" id="Camada_1" xmlns="http://www.w3.org/2000/svg" xmlns:xlink="http://www.w3.org/1999/xlink" x="0px" y="0px"
	 viewBox="0 0 208.3 36.7" style="enable-background:new 0 0 208.3 36.7;" xml:space="preserve">
<style type="text/css">
	.st0{fill:#FFFFFF;}
	.st1{fill:#0D3068;}
	.st2{fill:#E2002B;}
	.st3{fill:#FDD302;}
</style>
<g>
	<g>
		<g>
			<path class="st0" d="M46.5,24.1c-1.3,1.2-3,1.8-4.9,1.8c-1.9,0-3.6-0.6-4.9-1.8c-1.3-1.2-2-2.8-2-4.8V9.5h3.4v9.6
				c0,1,0.3,1.9,1,2.6c0.7,0.7,1.5,1,2.5,1c1,0,1.8-0.3,2.5-1c0.7-0.7,1-1.5,1-2.6V9.5h3.5v9.8C48.5,21.3,47.8,22.9,46.5,24.1z"/>
			<path class="st0" d="M51.7,25.7V9.5h3.8l4.2,6.4c0.3,0.5,0.7,1.1,1.2,1.8c0.5,0.7,0.8,1.2,1.1,1.7l0.5,0.7V9.5H66v16.1h-3.7l-4-6
				c-0.4-0.6-0.9-1.4-1.4-2.1c-0.5-0.8-0.9-1.4-1.2-1.8L55.2,15v10.7H51.7z"/>
			<path class="st0" d="M69.5,25.7V9.5H73v16.1H69.5z"/>
			<path class="st0" d="M76.5,25.7V9.5h3.8l4.2,6.4c0.3,0.5,0.7,1.1,1.2,1.8c0.5,0.7,0.8,1.2,1.1,1.7l0.5,0.7V9.5h3.5v16.1h-3.7
				l-4-6c-0.4-0.6-0.9-1.4-1.4-2.1c-0.5-0.8-0.9-1.4-1.2-1.8L80,15v10.7H76.5z"/>
			<path class="st0" d="M92.6,25.7l7-16.1h3.5l6.8,16.1h-3.3l-1.1-2.6h-8.2l-1.1,2.6H92.6z M98.5,20.4h5.9l-1.3-3l-1.7-4.1
				c-0.6,1.7-1.1,3.1-1.6,4.2L98.5,20.4z"/>
			<path class="st0" d="M111.3,23.7l1.2-2.7c1.7,1.2,3.4,1.8,5.3,1.8c0.8,0,1.6-0.2,2.2-0.6c0.6-0.4,0.9-0.8,0.9-1.4
				c0-0.5-0.3-0.9-0.8-1.2c-0.5-0.3-1.3-0.5-2.2-0.7c-0.7-0.2-1.3-0.3-1.8-0.5c-0.5-0.1-1.1-0.3-1.6-0.6c-0.6-0.3-1.1-0.6-1.4-0.9
				c-0.4-0.3-0.7-0.8-0.9-1.3c-0.2-0.5-0.4-1.1-0.4-1.7c0-1.5,0.6-2.6,1.8-3.4c1.2-0.8,2.6-1.2,4.3-1.2c2.2,0,4.2,0.6,5.9,1.7
				l-1.3,2.7c-1.4-0.9-3-1.3-4.6-1.3c-0.6,0-1.2,0.1-1.7,0.3c-0.5,0.2-0.8,0.6-0.8,1.2c0,0.5,0.2,0.9,0.7,1.1
				c0.5,0.3,1.2,0.5,2.3,0.7c4.1,0.9,6.2,2.6,6.2,5.2c0,1.6-0.7,2.9-2,3.7c-1.3,0.9-2.9,1.3-4.7,1.3C115.2,25.9,113,25.2,111.3,23.7
				z"/>
			<path class="st0" d="M126.5,23.7l1.2-2.7c1.7,1.2,3.4,1.8,5.3,1.8c0.8,0,1.6-0.2,2.2-0.6c0.6-0.4,0.9-0.8,0.9-1.4
				c0-0.5-0.3-0.9-0.8-1.2c-0.5-0.3-1.3-0.5-2.2-0.7c-0.7-0.2-1.3-0.3-1.8-0.5c-0.5-0.1-1.1-0.3-1.6-0.6c-0.6-0.3-1.1-0.6-1.4-0.9
				c-0.4-0.3-0.7-0.8-0.9-1.3c-0.2-0.5-0.4-1.1-0.4-1.7c0-1.5,0.6-2.6,1.8-3.4c1.2-0.8,2.6-1.2,4.3-1.2c2.2,0,4.2,0.6,5.9,1.7
				l-1.3,2.7c-1.4-0.9-3-1.3-4.6-1.3c-0.6,0-1.2,0.1-1.7,0.3c-0.5,0.2-0.8,0.6-0.8,1.2c0,0.5,0.2,0.9,0.7,1.1
				c0.5,0.3,1.2,0.5,2.3,0.7c4.1,0.9,6.2,2.6,6.2,5.2c0,1.6-0.7,2.9-2,3.7c-1.3,0.9-2.9,1.3-4.7,1.3
				C130.4,25.9,128.2,25.2,126.5,23.7z"/>
			<path class="st0" d="M140.8,25.7l7-16.1h3.5l6.8,16.1h-3.3l-1.1-2.6h-8.2l-1.1,2.6H140.8z M146.7,20.4h5.9l-1.3-3l-1.7-4.1
				c-0.6,1.7-1.1,3.1-1.6,4.2L146.7,20.4z"/>
			<path class="st0" d="M171.3,24.1c-1.3,1.2-3,1.8-4.9,1.8c-1.9,0-3.6-0.6-4.9-1.8c-1.3-1.2-2-2.8-2-4.8V9.5h3.4v9.6
				c0,1,0.3,1.9,1,2.6c0.7,0.7,1.5,1,2.5,1c1,0,1.8-0.3,2.5-1c0.7-0.7,1-1.5,1-2.6V9.5h3.5v9.8C173.3,21.3,172.6,22.9,171.3,24.1z"
				/>
		</g>
	</g>
	<g>
		<g>
			<path class="st1" d="M1.2,7.2v19.5c0,0.7,0.2,1.4,0.4,2.1v0C2.4,30.6,5,31.8,7,32.2c4,0.8,5.8,1.4,6.6,2.5
				c0.8-1.1,2.6-1.7,6.6-2.5c2-0.4,4.6-1.6,5.4-3.4v0c0.3-0.7,0.4-1.4,0.4-2.1V7.2c0,0-11.1,0-12.4,0C12.3,7.2,1.2,7.2,1.2,7.2z"/>
		</g>
		<g>
			<path class="st0" d="M26.4,0.8v6v0.5v19.4c0,0.8-0.2,1.5-0.5,2.3c-0.4,0.9-1.2,1.8-2.4,2.4c-1,0.6-2.1,1-3.3,1.2
				c-4.1,0.8-5.7,1.4-6.3,2.3l-0.3,0.5l-0.3-0.5c-0.6-0.9-2.2-1.5-6.3-2.3c-1.1-0.2-2.3-0.7-3.3-1.2c-1.2-0.7-2-1.5-2.4-2.4
				c-0.3-0.7-0.5-1.5-0.5-2.3V7.3V6.8v-6h6.9V2h2.4V0.8H17V2h2.4V0.8H26.4 M27.1,0h-0.8h-6.9h-0.8v0.8v0.4h-0.9V0.8V0H17h-6.9H9.3
				v0.8v0.4H8.5V0.8V0H7.7H0.8H0v0.8v6v0.5v19.4c0,0.9,0.2,1.7,0.5,2.6C1,30.3,2,31.3,3.3,32c1,0.6,2.3,1.1,3.5,1.3
				c3.8,0.7,5.3,1.3,5.8,2l0.3,0.5l0.6,0.9l0.6-0.9l0.3-0.5c0.5-0.7,2.1-1.3,5.8-2c1.2-0.2,2.5-0.7,3.5-1.3c1.3-0.8,2.3-1.7,2.7-2.8
				c0.4-0.8,0.5-1.7,0.5-2.6V7.3V6.8v-6V0L27.1,0z"/>
		</g>
		<g>
			<polygon class="st2" points="19.8,1.2 19.8,2.4 16.6,2.4 16.6,1.2 10.5,1.2 10.5,2.4 7.3,2.4 7.3,1.2 1.2,1.2 1.2,2.4 1.2,6.9 
				26,6.9 26,2.4 26,1.2 			"/>
		</g>
		<g>
			<path class="st0" d="M3.2,5.8L2.3,3.6h0.4l0.5,1.3l0.2,0.5C3.5,5.1,3.5,5,3.6,4.8l0.5-1.3h0.4L3.6,5.8H3.2z"/>
			<path class="st0" d="M6.3,5.8V3.6H8v0.3H6.7v0.5h1.3v0.3H6.7v0.7H8v0.3H6.3z"/>
			<path class="st0" d="M9.9,5.8V3.6h0.9c0.3,0,0.6,0.1,0.7,0.2c0.2,0.2,0.3,0.4,0.3,0.6c0,0.2,0,0.3-0.1,0.4
				c-0.1,0.1-0.2,0.2-0.3,0.3l0.5,0.7h-0.5l-0.4-0.5c-0.1,0-0.2,0-0.4,0h-0.3v0.5H9.9z M10.3,4.9h0.6c0.2,0,0.3,0,0.4-0.1
				c0.1-0.1,0.1-0.2,0.1-0.4c0-0.1,0-0.3-0.1-0.4C11.1,4,11,3.9,10.8,3.9h-0.6V4.9z"/>
			<path class="st0" d="M13.6,5.8V3.6H14v2.2H13.6z"/>
			<path class="st0" d="M16.6,5.8V3.9h-0.8V3.6h2v0.3H17v1.9H16.6z"/>
			<path class="st0" d="M19,5.8l1-2.2h0.4l1,2.2H21l-0.2-0.4h-1.2l-0.2,0.4H19z M19.8,5.1h0.9l-0.3-0.6c0-0.1-0.1-0.1-0.1-0.2
				c0-0.1-0.1-0.2-0.1-0.2l0-0.1c-0.1,0.2-0.1,0.4-0.2,0.5L19.8,5.1z"/>
			<path class="st0" d="M23.1,5.5l0.2-0.3c0.2,0.2,0.5,0.3,0.7,0.3c0.1,0,0.2,0,0.3-0.1c0.1-0.1,0.1-0.1,0.1-0.2
				c0-0.1,0-0.1-0.1-0.2c-0.1,0-0.1-0.1-0.2-0.1c-0.1,0-0.1,0-0.2-0.1c-0.1,0-0.2-0.1-0.2-0.1c-0.1,0-0.1,0-0.2-0.1
				c-0.1,0-0.1-0.1-0.2-0.1c0,0-0.1-0.1-0.1-0.2c0-0.1-0.1-0.1-0.1-0.2c0-0.2,0.1-0.4,0.2-0.5c0.2-0.1,0.3-0.2,0.6-0.2
				c0.3,0,0.6,0.1,0.8,0.2l-0.2,0.3C24.4,4,24.2,3.9,24,3.9c-0.1,0-0.1,0-0.2,0c-0.1,0-0.1,0-0.2,0.1c0,0-0.1,0.1-0.1,0.2
				c0,0.1,0,0.1,0.1,0.2c0.1,0,0.2,0.1,0.4,0.1c0.1,0,0.2,0.1,0.3,0.1c0.1,0,0.2,0.1,0.3,0.1c0.1,0.1,0.2,0.1,0.2,0.2
				c0,0.1,0.1,0.2,0.1,0.3c0,0.2-0.1,0.4-0.3,0.5c-0.2,0.1-0.4,0.2-0.6,0.2C23.6,5.8,23.3,5.7,23.1,5.5z"/>
		</g>
		<g>
			<g>
				<path class="st3" d="M8.2,29.6c0,0.2-0.1,0.4,0.1,0.6c0.1-0.1,0.2-0.2,0.3-0.2c0.3,0,0.3-0.3,0.4-0.4c-0.1,0.3-0.1,0.4,0.1,0.7
					c0.1-0.1,0.2-0.2,0.4-0.3c0,0,0.1,0,0.2,0c0.1-0.1,0.2-0.1,0.2-0.3c0.3-0.1,0.5-0.1,0.7,0.1c0.1,0.1,0.1,0.2,0.1,0.3
					c0.3-0.4,0.1-0.8-0.3-0.9c-0.4-0.5,0.4-1.5,0.7-1.9c0,0.3-0.1,0.5-0.2,0.7c0.4-0.2,0.6-0.4,0.9-0.7c0.7,0.6,1.3,1.3,2.1,1.8
					c0.5,0,0.9,0.1,1.3,0.3c-0.7,0-1.5-0.2-1.8,0.6c-0.1-0.3,0-0.6,0.2-0.8c-0.4-0.2-1-0.3-1.3-0.1c-0.5,0.3-0.6,1-0.4,1.4
					c0.1,0.1,0.2,0,0.3,0c-0.1-0.3,0-0.7,0.2-0.9c0.1-0.1,0.3-0.1,0.3-0.1c-0.1,0.1-0.2,0.1-0.2,0.2c-0.1,0.3-0.1,0.6,0.1,0.8
					c0,0,0.1,0,0.2,0c1.8,0,3.6,0,5.4-0.1c0.1,0,0.2,0,0.3-0.1c0-0.2,0.3-0.4,0.3-0.4c0.6-0.2,1.1-0.4,1.4-0.9
					c0.7-2.4-2.4-3.4-0.4-3.9c0,0.1-0.1,0.1-0.1,0.2c0.5,0,0.9-0.3,0.7-0.8c-0.1-0.2-0.2-0.4-0.2-0.7c0.4-0.9,1-0.6,0.2-1.7
					c-0.1-0.2-0.3,0.6-0.6,0.8c0-0.2,0.1-0.3,0.2-0.4c-0.4,0.2-0.8,0.3-0.9,1c0,0.7,0.9,1.3-0.4,1.2c-1.4,1.4,1.6,1.9,0.9,4
					c-0.1,0.2-0.3,0.2-0.5,0.2c-0.2-0.1-0.1-0.4-0.1-0.6c-0.2-1.5-0.9-2.7-2.3-3.4c0.7-0.2,1.3-0.6,1.8-1.2
					c-0.6,0.1-1.1,0.1-1.7-0.1c1.2-0.1,2.2-0.3,2.8-1.5c-0.7,0.1-1.4,0-2.1-0.3c2.2,0.2,5-0.7,5.7-2.3c-1.6,0.7-3.3,1.4-5,1.2
					c1.9-0.3,4.9-1.1,5.8-3.4c-0.9,0.8-2.6,1.8-4.9,1.9c0,0,5-1.1,5.5-4c-2.5,2.1-4.9,2.9-4.9,2.9s5.4-2.6,5.4-5.5
					c-0.6,0.8-1.5,1.7-2.8,2.6c-0.8,0.6-1.7,1-2.4,1.3c0.6-0.3,1.6-0.8,2.4-2c1.2-1.6,1.3-3.4,1.3-4c-0.6,1.3-1.5,3-3.2,4.2
					c-0.2,0.1-0.4,0.3-0.6,0.4c0.4-0.3,1.2-1,1.6-2.2c0.6-1.8-0.1-3.4-0.2-3.7c0,0.6-0.1,1.8-0.6,3c-0.3,0.7-0.8,1.2-1.1,1.6
					c0.2-0.4,0.4-1,0.4-1.8c0-1.7-0.9-2.8-1.2-3.2c0.2,0.8,0.3,1.9,0.1,3.2c-0.1,0.5-0.2,1-0.3,1.4c0-0.4-0.1-1-0.3-1.7
					c-0.7-1.6-2.2-2.3-2.6-2.5c0.4,0.7,0.8,1.5,1.1,2.5c0.1,0.4,0.2,0.8,0.3,1.2c-0.2-0.4-0.7-1.1-1.6-1.6c-1.1-0.7-2.2-0.6-2.7-0.6
					c1.6,0.8,2.6,1.9,3,2.5c1.2,1.7,2.3,4.6,1.1,6.9c-0.3,0.6-0.7,1.1-0.9,1.3c0-0.1-0.1-0.2-0.1-0.2c0-0.1-0.1-0.2-0.1-0.2
					c0.1,0.1,0.1,0.1,0.2,0.2c0.1-0.6,0-1.2-0.3-1.7c0.1,0.1,0.3,0.2,0.4,0.3c-0.1-0.8-0.5-1.2-1.1-1.7c0.2,0,0.5,0.1,0.7,0.2
					c-0.5-0.8-1.3-1-2.2-1.1c0.2-0.1,0.4-0.2,0.6-0.4c-1.2-0.1-3.3-0.2-3,1.6c-0.9,0.2-1.4,0.9-0.7,1.7c0,0,0-0.1,0-0.1
					c0.3-0.4,1.1-0.3,1.6-0.3c0,0,0,0,0,0c0,0-0.1,0.1-0.1,0.2c0,0,0.1,0.2,0.1,0.2c0,0.1-0.1,0.3-0.1,0.3c-1.3,1.5-2.2,3.8-1.9,5.7
					c0.2-0.3,0.4-0.6,0.6-1c-0.1,0.7-0.2,1.4-0.5,2c0.3-0.1,0.5-0.2,0.6-0.4c-0.6,1.8-2.7,2.7-2.6,3.3c0.1-0.1,0.1-0.1,0.2-0.2
					c0,0,0.1,0,0.3,0C8.1,29.7,8.2,29.6,8.2,29.6z M10.9,18.4C10.9,18.4,10.9,18.3,10.9,18.4c0.1-0.4,0.4-0.5,0.8-0.5
					C11.4,18,11.2,18.2,10.9,18.4z"/>
				<path class="st1" d="M10.9,18.4C10.9,18.4,10.9,18.3,10.9,18.4c0.1-0.4,0.4-0.5,0.8-0.5C11.4,18,11.2,18.2,10.9,18.4z"/>
			</g>
			<g>
				<g>
					<polygon class="st0" points="13.4,14 10.3,14.4 11.6,15.2 10.1,15.1 11,16.2 9.6,15.7 10.2,17.1 9,16.2 9.1,17.6 8.3,16.4 
						7.9,18.7 7.5,16.4 6.7,17.6 6.8,16.2 5.7,17.1 6.2,15.7 4.8,16.2 5.7,15.1 4.2,15.2 5.5,14.4 2.4,14 5.5,13.6 4.2,12.8 
						5.7,12.9 4.8,11.7 6.2,12.3 5.7,10.9 6.8,11.8 6.7,10.3 7.5,11.6 7.9,9.2 8.3,11.6 9.1,10.3 9,11.8 10.2,10.9 9.6,12.3 
						11,11.7 10.1,12.9 11.6,12.8 10.3,13.6 					"/>
					<circle class="st1" cx="7.9" cy="14" r="1.2"/>
				</g>
			</g>
		</g>
	</g>
</g>
</svg>
