<svg xmlns="http://www.w3.org/2000/svg" width="650.6" height="152.275"><g data-name="Grupo 183"><path data-name="Caminho 618" d="M191.48.004h15.3l18.5 63.012h-16.227l-2.134-9h-16.15l-2.277 9H172.77Zm12.312 40.5-4.557-19.411h-.14l-4.909 19.411Z" fill="#fff"/><path data-name="Caminho 619" d="M230.528.004h30.692a23.717 23.717 0 0 1 9.991 1.951 18.7 18.7 0 0 1 6.829 5.114 21.268 21.268 0 0 1 3.787 6.853 23.137 23.137 0 0 1 1.21 7.241s.007 11.355-.04 12.191a24.153 24.153 0 0 1-6.29 14.75c-6.31 6.013-15.645 5.551-16.987 5.6h-12.755v14.567h-16.437Zm16.437 38.948h7.868a27.254 27.254 0 0 0 3.311-.176 7.311 7.311 0 0 0 2.622-.821 4.589 4.589 0 0 0 1.892-2 7.071 7.071 0 0 0 .675-2.944c0-.088.018-10.831.015-11.153a7.57 7.57 0 0 0-.583-3.256 3.783 3.783 0 0 0-1.635-1.819 6.838 6.838 0 0 0-2.29-.739 22.925 22.925 0 0 0-3.058-.172h-8.817Z" fill="#fff"/><path data-name="Caminho 620" d="M346.047 5.25h57.761v16.172h-39.48v15.333h23.729v15.751h-23.729v4.832h65.736v16.174h-84.017Z" fill="#fff"/><path data-name="Caminho 621" d="M409.058 5.25h15.755l21 36.756V15.751l15.755.1v57.661h-15.754l-21-42.006v21h-15.756Z" fill="#fff"/><path data-name="Caminho 622" d="M466.819.02h38.494a23.751 23.751 0 0 1 11.271 2.5 20.852 20.852 0 0 1 7.652 6.864 30.289 30.289 0 0 1 4.264 9.793 48.523 48.523 0 0 1 1.335 11.568s0 12.327-.011 12.778c-.257 14.039-6.955 21.786-6.955 21.786-7.623 8.814-19.121 8.264-20.825 8.154h-35.22Zm16.748 57.651h17.559a11.572 11.572 0 0 0 6.127-1.467 9.966 9.966 0 0 0 3.655-3.8 16.2 16.2 0 0 0 1.712-4.92 28.471 28.471 0 0 0 .429-3.835c.011-.286.033-12.58.029-13.166a28.055 28.055 0 0 0-.418-4.359 15.08 15.08 0 0 0-1.753-4.748 10.75 10.75 0 0 0-4.033-3.967 12.6 12.6 0 0 0-6.134-1.58c-.348-.018-16.389-.018-16.587-.018h-.587Z" fill="#fff"/><path data-name="Caminho 623" d="m556.083 57.761 47.26-31.506h-47.26V10.519c21.005-.007 52.511-.011 73.512-.018v15.755l-42.006 31.505h63.013v15.751h-94.519Z" fill="#fff"/><path data-name="Caminho 624" d="M225.277 117.99q0 23.638-27.069 23.638c-18.1 0-25.438-10.5-25.438-23.638V68.251h18.321v41.9c0 2.046.07 7.626.209 8.972a13.661 13.661 0 0 0 1 3.912 6.872 6.872 0 0 0 .686 1.239 7.491 7.491 0 0 0 5.305 3 8.336 8.336 0 0 0 4.913-1.17 6.593 6.593 0 0 0 2.631-3.073 13.012 13.012 0 0 0 .957-3.912c.11-1.346.165-6.926.165-8.972v-41.9h18.32Z" fill="#fff"/><path data-name="Caminho 625" d="M230.528 78.762h15.755l21 31.506V57.761h15.757v84.013h-15.756l-20.367-33.357h-.158v43.858h-16.231Z" fill="#fff"/><g data-name="Grupo 179" fill="#fff"><path data-name="Retângulo 145" d="M535.08 31.506h15.753v52.509H535.08z"/><path data-name="Retângulo 146" d="M535.08 10.502h15.753v15.753H535.08z"/></g><path data-name="Caminho 626" d="M339.495 69.054c-1.687-7.256-.693-10.229-2.6-13.9a13.635 13.635 0 0 0-5.811-5.6 12.084 12.084 0 0 0 6.416-6.134 20.675 20.675 0 0 0 1.093-2.625 21.034 21.034 0 0 0 .81-3.223c.1-.539.315-17.485.315-19.274q0-8.563-5.4-13.284a19.653 19.653 0 0 0-13.4-4.719h-32.629v62.718h16.565v-6.222h9.441a7.191 7.191 0 0 1 4.037 1.016 6.607 6.607 0 0 1 2.339 2.691 12.808 12.808 0 0 1 1.089 3.575c.308 2.2.763 5.43 1.236 9.441h17.751c-.321-.966-.8-2.517-1.252-4.46Zm-17.533-32.037a6.671 6.671 0 0 1-.726 3.311 4.763 4.763 0 0 1-1.855 1.9 7.686 7.686 0 0 1-2.42.84 16.884 16.884 0 0 1-2.827.22h-9.28V15.292h8.312a11.8 11.8 0 0 1 5.877.972 4.565 4.565 0 0 1 .942.576 6 6 0 0 1 1.962 4.165c.018.242.015 15.879.015 16.012Z" fill="#fff"/><g data-name="Grupo 182"><path data-name="Caminho 627" d="M142.529 142.526H61.435A61.614 61.614 0 0 1 0 81.094V.004h142.529Z" fill="#002b52"/><g data-name="Grupo 181" transform="translate(14.053 15.153)"><g data-name="Grupo 180"><path data-name="Caminho 628" d="M92.295 107.552a20.785 20.785 0 0 1-20.719-20.8V41.589h-44.98a20.785 20.785 0 0 1-20.719-20.8 20.779 20.779 0 0 1 20.715-20.8h65.707a20.533 20.533 0 0 1 14.644 6.09 20.7 20.7 0 0 1 6.064 14.706v65.97a20.692 20.692 0 0 1-6.064 14.7 20.53 20.53 0 0 1-14.648 6.097Zm-19.674-67v46.2a19.736 19.736 0 0 0 19.67 19.755 19.5 19.5 0 0 0 13.911-5.782 19.664 19.664 0 0 0 5.764-13.97V20.796a19.645 19.645 0 0 0-5.76-13.969 19.5 19.5 0 0 0-13.9-5.782H26.599A19.736 19.736 0 0 0 6.929 20.8a19.741 19.741 0 0 0 19.667 19.751Z" fill="#fff"/></g><path data-name="Caminho 629" d="M106.085 27.219A20.225 20.225 0 0 0 85.894 6.941H20.195A20.238 20.238 0 0 0 0 27.219a20.24 20.24 0 0 0 20.195 20.273h32.29a13.21 13.21 0 0 1 13.214 13.21v32.474a20.236 20.236 0 0 0 20.2 20.272 20.23 20.23 0 0 0 20.19-20.272Z" fill="#45b2b7"/><circle data-name="Elipse 1" cx="13.563" cy="13.563" r="13.563" transform="translate(34.841 51.248)" fill="#45b2b7"/></g></g><path data-name="Caminho 630" d="M345.317 92.05V77.923h-34.769a21.441 21.441 0 0 0-10.174 2.262 18.793 18.793 0 0 0-6.911 6.2 27.353 27.353 0 0 0-3.85 8.847 43.722 43.722 0 0 0-1.207 10.442s0 11.135.007 11.538c.235 12.682 6.284 19.678 6.284 19.678 6.886 7.96 17.269 7.465 18.809 7.366h31.81v-31.791h-15.127v17.529h-15.857a10.464 10.464 0 0 1-5.536-1.327 8.984 8.984 0 0 1-3.3-3.428 14.731 14.731 0 0 1-1.547-4.444 25.873 25.873 0 0 1-.385-3.461c-.012-.26-.032-11.36-.032-11.894a25.522 25.522 0 0 1 .381-3.938 13.507 13.507 0 0 1 1.58-4.286 9.7 9.7 0 0 1 3.644-3.586 11.373 11.373 0 0 1 5.536-1.426c.158-.007 3.916-.15 7.63-.154Z" fill="#fff"/></g></svg>