<?xml version="1.0" encoding="utf-8"?>
<!-- Generator: Adobe Illustrator 26.3.1, SVG Export Plug-In . SVG Version: 6.00 Build 0)  -->
<svg version="1.1" id="Camada_1" xmlns="http://www.w3.org/2000/svg" xmlns:xlink="http://www.w3.org/1999/xlink" x="0px" y="0px"
	 viewBox="0 0 1077.2 368.5" style="enable-background:new 0 0 1077.2 368.5;" xml:space="preserve">
<style type="text/css">
	.st0{fill:#1C3B6A;}
	.st1{fill:#FFFFFF;}
	.st2{fill:#A3BCE3;}
</style>
<g>
	<path d="M471.1,0.1h21.1l25.5,101.8h-22.4l-2.9-14.5h-22.3l-3.1,14.5h-21.7L471.1,0.1z M488.1,65.5l-6.3-31.4h-0.2l-6.8,31.4H488.1
		z M524.4,0.5c13.2,0,26.3,0,39.5,0c4.9,0,9.2,0.8,12.9,2.5c3.6,1.7,6.6,3.9,8.8,6.6c2.2,2.7,3.8,5.7,4.9,8.8c1,3.2,1.6,6.3,1.6,9.3
		c0,0,0,28.5-0.1,29.6c-0.7,11.7-8.1,19-8.1,19c-8.1,7.7-20.1,7.1-21.9,7.2h-16.4v18.8c-7.1,0-14.1,0-21.2,0
		C524.4,73,524.4,29.8,524.4,0.5z M545.6,64.6h10.1c1.6,0,3-0.1,4.3-0.2c1.2-0.1,2.3-0.5,3.4-1.1c1-0.6,1.8-1.4,2.4-2.6
		c0.7-1.4,0.8-2.9,0.9-3.8c0-0.1,0-27.9,0-28.3c0-1.1,0-2.6-0.7-4.2c-0.5-1.1-1.2-1.9-2.1-2.3c-0.9-0.5-1.9-0.8-3-0.9
		c-1.1-0.1-2.4-0.2-3.9-0.2h-11.4V64.6z M673.1,7.2h61.5v20.8h-38v45.6h30.5v20.3h-30.5v18.7h70.1v20.8h-93.6V7.2z M746.3,7.2
		c6.8,0,13.5,0,20.3,0c9,15.8,18,31.5,27,47.3c0-11.3,0-22.5,0-33.8c6.8,0,13.5,0.1,20.3,0.1v74.2c-6.8,0-13.5,0-20.3,0
		c-9-18-18-36.1-27-54.1c0,9,0,53.8,0,62.9c-6.8,0-13.5,0-20.3,0C746.3,83.6,746.3,27.5,746.3,7.2z M821.2,0.5h57
		c5.6,0,10.5,1.1,14.5,3.2c4.1,2.1,7.3,5.1,9.9,8.8c2.5,3.7,4.3,7.9,5.5,12.6c1.1,4.7,1.7,9.6,1.7,14.9c0,0,0,30.7,0,31.2
		c-0.3,18.1-9,28-9,28c-9.8,11.3-24.6,10.6-26.8,10.5h-52.7V0.5z M842.8,89.5h30c3.2,0,5.8-0.6,7.9-1.9c2.1-1.3,3.6-2.9,4.7-4.9
		c1.1-2,1.8-4.1,2.2-6.3c0.1-0.4,0.4-2.3,0.5-4.9c0-0.4,0-31,0-31.7c0-0.9-0.1-3.1-0.5-5.6c-0.4-2-1.1-4.1-2.3-6.1
		c-1.1-2-2.9-3.7-5.2-5.1c-3.1-1.9-6.3-2-7.9-2c-0.4,0-28.5,0-28.8,0c-0.3,0-0.5,0-0.8,0V89.5z M943.5,74.8
		c20.3-13.5,40.6-27,60.8-40.6c-15.8,0-45.1,0-60.8,0V14c27,0,67.6,0,94.6,0c0,6.8,0,13.5,0,20.3c-18,13.5-36.1,27-54.1,40.6
		c18,0,63.1,0,81.1,0c0,6.8,0,13.5,0,20.3c-31.5,0-90.1,0-121.7,0C943.5,88.4,943.5,81.6,943.5,74.8z M916.5,108.6h20.3V41h-20.3
		V108.6z M916.5,14v20.3h20.3V14H916.5z M664.7,127.5c-0.4-1.7-0.6-2.9-0.7-3.6c-1.6-9.5-1.4-49.7-2.6-52.4c-1-2.1-3-4.9-7.5-7.2
		c3.6-1.4,6.4-4.1,8.3-7.9c0.7-1.4,1.1-2.6,1.4-3.4c0.2-0.7,0.7-2.2,1-4.2c0.1-0.7,0.4-22.5,0.4-24.8c0-7.3-2.3-13-7-17.1
		c-4.6-4.1-10.4-6.1-17.2-6.1h-42v101h21.3V73.6h12.2c2.1,0,3.9,0.4,5.2,1.3c1.3,0.9,2.3,2,3,3.5c1,2.1,1.3,4.2,1.4,4.6
		c0.2,1.5,0.4,40.7,0.4,40.9c0.2,1.8,0.5,4.8,1.2,9.4c7.6,0,15.2,0,22.9,0C665.9,132,665.3,130,664.7,127.5z M642.1,48.1
		c0,1.7-0.3,3.2-0.9,4.3c-0.6,1.1-1.4,1.9-2.4,2.4c-1,0.5-2,0.9-3.1,1.1c-1.1,0.2-2.3,0.3-3.6,0.3h-11.9v-36c3.6,0,7.1,0,10.7,0
		c4-0.2,6.4,0.7,7.6,1.3c0.6,0.3,0.9,0.5,1.2,0.7c2.2,1.7,2.5,4.6,2.5,5.4C642.1,27.8,642.1,48,642.1,48.1z M445.3,108.9h64v177.4
		c0,18.9,3.8,35.1,30.1,35.1c1.6,0,2.9-0.1,3.2-0.1c7.6-0.6,13.8-3.7,17-6.1c7.4-5.5,11.4-16.8,9.6-28.9V108.9h64v171
		c0,29.6-6.7,51.2-21,65.5c-22.1,22.3-57.6,22.4-69.5,22.6c-0.6,0-1.8,0-3.3,0c-12.8-0.1-49.9,0.3-72.7-22.2
		c-14.1-14-21.4-35.3-21.4-66.2V108.9z M1066,362h-44.6l-2.6-23c-11.4,14.9-30.5,28.5-63.6,28.5c-53.9,0-102.3-38.6-102.3-119.9
		c0-74.5,42.2-125.7,110.5-125.7c50.7,0,91.5,29.2,100,86.5h-65.7c-5-19.1-17.6-29.5-35.5-29.5c-27.3,0-40.2,27.2-40.2,68.4
		c0,33,9.4,63.2,44.3,63.2c14.1,0,31.9-10.7,35.5-26.9h-30.5v-50.5h94.7V362z M649.1,177.4c18.8,0,37.5,0,56.3,0
		c25,27.1,50,54.2,75,81.4c0-36.2,0-105.1,0-141.3c18.8,0,37.5,0,56.3,0v222.6c-18.8,0-37.5,0-56.3,0
		c-24.2-28.7-48.5-57.4-72.7-86.1H707v113.9h-58V177.4z"/>
	<g>
		<path class="st0" d="M367.9,367.9H158.6C71.4,367.9,0,296.6,0,209.3V0h367.9V367.9z"/>
		<g>
			<g>
				<path class="st1" d="M274.5,316.8C274.5,316.8,274.5,316.8,274.5,316.8c-29.5,0-53.5-24.1-53.5-53.7l0-116.6l-116.1,0
					c-29.5,0-53.5-24.1-53.5-53.7c0-29.6,24-53.7,53.5-53.7c0,0,0,0,0,0l169.6,0c0,0,0,0,0,0c14.3,0,27.7,5.6,37.8,15.7
					C322.4,65,328,78.5,328,92.8l0,170.3c0,14.3-5.6,27.8-15.7,38C302.2,311.2,288.8,316.8,274.5,316.8z M223.7,143.8l0,119.3
					c0,28.1,22.8,51,50.8,51c0,0,0,0,0,0c13.6,0,26.3-5.3,35.9-14.9c9.6-9.6,14.9-22.4,14.9-36.1l0-170.3c0-13.6-5.3-26.4-14.9-36.1
					c-9.6-9.6-22.3-14.9-35.9-14.9c0,0,0,0,0,0l-169.6,0c0,0,0,0,0,0c-28,0-50.8,22.9-50.8,51c0,28.1,22.8,51,50.8,51L223.7,143.8z"
					/>
			</g>
			<path class="st2" d="M310.1,109.4c0-28.9-23.3-52.3-52.1-52.3L88.4,57c-28.8,0-52.1,23.4-52.1,52.3c0,28.9,23.3,52.3,52.1,52.3
				l83.4,0c18.8,0,34.1,15.3,34.1,34.1l0,83.8c0,28.9,23.3,52.3,52.1,52.3c28.8,0,52.1-23.4,52.1-52.3L310.1,109.4z"/>
			<circle class="st2" cx="161.2" cy="206.4" r="35"/>
		</g>
	</g>
</g>
</svg>
