<svg version="1.1" id="Camada_1" xmlns="http://www.w3.org/2000/svg" x="0" y="0" viewBox="0 0 1077.2 368.5" style="enable-background:new 0 0 1077.2 368.5" xml:space="preserve"><style>.st2{fill:#a3bce3}</style><path d="M471.1.1h21.1l25.5 101.8h-22.4l-2.9-14.5h-22.3l-3.1 14.5h-21.7L471.1.1zm17 65.4-6.3-31.4h-.2l-6.8 31.4h13.3zm36.3-65h39.5c4.9 0 9.2.8 12.9 2.5 3.6 1.7 6.6 3.9 8.8 6.6 2.2 2.7 3.8 5.7 4.9 8.8 1 3.2 1.6 6.3 1.6 9.3 0 0 0 28.5-.1 29.6-.7 11.7-8.1 19-8.1 19-8.1 7.7-20.1 7.1-21.9 7.2h-16.4v18.8h-21.2V.5zm21.2 64.1h10.1c1.6 0 3-.1 4.3-.2 1.2-.1 2.3-.5 3.4-1.1 1-.6 1.8-1.4 2.4-2.6.7-1.4.8-2.9.9-3.8V28.6c0-1.1 0-2.6-.7-4.2-.5-1.1-1.2-1.9-2.1-2.3-.9-.5-1.9-.8-3-.9-1.1-.1-2.4-.2-3.9-.2h-11.4v43.6zM673.1 7.2h61.5V28h-38v45.6h30.5v20.3h-30.5v18.7h70.1v20.8h-93.6V7.2zm73.2 0h20.3c9 15.8 18 31.5 27 47.3V20.7c6.8 0 13.5.1 20.3.1V95h-20.3c-9-18-18-36.1-27-54.1v62.9h-20.3V7.2zM821.2.5h57c5.6 0 10.5 1.1 14.5 3.2 4.1 2.1 7.3 5.1 9.9 8.8 2.5 3.7 4.3 7.9 5.5 12.6 1.1 4.7 1.7 9.6 1.7 14.9v31.2c-.3 18.1-9 28-9 28-9.8 11.3-24.6 10.6-26.8 10.5h-52.7V.5zm21.6 89h30c3.2 0 5.8-.6 7.9-1.9 2.1-1.3 3.6-2.9 4.7-4.9 1.1-2 1.8-4.1 2.2-6.3.1-.4.4-2.3.5-4.9V39.8c0-.9-.1-3.1-.5-5.6-.4-2-1.1-4.1-2.3-6.1-1.1-2-2.9-3.7-5.2-5.1-3.1-1.9-6.3-2-7.9-2h-29.6v68.5zm100.7-14.7c20.3-13.5 40.6-27 60.8-40.6h-60.8V14h94.6v20.3c-18 13.5-36.1 27-54.1 40.6h81.1v20.3H943.4c.1-6.8.1-13.6.1-20.4zm-27 33.8h20.3V41h-20.3v67.6zm0-94.6v20.3h20.3V14h-20.3zM664.7 127.5c-.4-1.7-.6-2.9-.7-3.6-1.6-9.5-1.4-49.7-2.6-52.4-1-2.1-3-4.9-7.5-7.2 3.6-1.4 6.4-4.1 8.3-7.9.7-1.4 1.1-2.6 1.4-3.4.2-.7.7-2.2 1-4.2.1-.7.4-22.5.4-24.8 0-7.3-2.3-13-7-17.1-4.6-4.1-10.4-6.1-17.2-6.1h-42v101h21.3V73.6h12.2c2.1 0 3.9.4 5.2 1.3 1.3.9 2.3 2 3 3.5 1 2.1 1.3 4.2 1.4 4.6.2 1.5.4 40.7.4 40.9.2 1.8.5 4.8 1.2 9.4h22.9c-.5-1.3-1.1-3.3-1.7-5.8zm-22.6-79.4c0 1.7-.3 3.2-.9 4.3-.6 1.1-1.4 1.9-2.4 2.4s-2 .9-3.1 1.1c-1.1.2-2.3.3-3.6.3h-11.9v-36h10.7c4-.2 6.4.7 7.6 1.3.6.3.9.5 1.2.7 2.2 1.7 2.5 4.6 2.5 5.4-.1.2-.1 20.4-.1 20.5zm-196.8 60.8h64v177.4c0 18.9 3.8 35.1 30.1 35.1 1.6 0 2.9-.1 3.2-.1 7.6-.6 13.8-3.7 17-6.1 7.4-5.5 11.4-16.8 9.6-28.9V108.9h64v171c0 29.6-6.7 51.2-21 65.5-22.1 22.3-57.6 22.4-69.5 22.6h-3.3c-12.8-.1-49.9.3-72.7-22.2-14.1-14-21.4-35.3-21.4-66.2V108.9zM1066 362h-44.6l-2.6-23c-11.4 14.9-30.5 28.5-63.6 28.5-53.9 0-102.3-38.6-102.3-119.9 0-74.5 42.2-125.7 110.5-125.7 50.7 0 91.5 29.2 100 86.5h-65.7c-5-19.1-17.6-29.5-35.5-29.5-27.3 0-40.2 27.2-40.2 68.4 0 33 9.4 63.2 44.3 63.2 14.1 0 31.9-10.7 35.5-26.9h-30.5v-50.5h94.7V362zM649.1 177.4h56.3c25 27.1 50 54.2 75 81.4V117.5h56.3v222.6h-56.3c-24.2-28.7-48.5-57.4-72.7-86.1h-.7v113.9h-58V177.4z"/><path d="M367.9 367.9H158.6C71.4 367.9 0 296.6 0 209.3V0h367.9v367.9z" style="fill:#1c3b6a"/><path d="M274.5 316.8c-29.5 0-53.5-24.1-53.5-53.7V146.5H104.9c-29.5 0-53.5-24.1-53.5-53.7s24-53.7 53.5-53.7h169.6c14.3 0 27.7 5.6 37.8 15.7C322.4 65 328 78.5 328 92.8v170.3c0 14.3-5.6 27.8-15.7 38-10.1 10.1-23.5 15.7-37.8 15.7zm-50.8-173v119.3c0 28.1 22.8 51 50.8 51 13.6 0 26.3-5.3 35.9-14.9 9.6-9.6 14.9-22.4 14.9-36.1V92.8c0-13.6-5.3-26.4-14.9-36.1-9.6-9.6-22.3-14.9-35.9-14.9H104.9c-28 0-50.8 22.9-50.8 51s22.8 51 50.8 51h118.8z" style="fill:#fff"/><path class="st2" d="M310.1 109.4c0-28.9-23.3-52.3-52.1-52.3L88.4 57c-28.8 0-52.1 23.4-52.1 52.3s23.3 52.3 52.1 52.3h83.4c18.8 0 34.1 15.3 34.1 34.1v83.8c0 28.9 23.3 52.3 52.1 52.3s52.1-23.4 52.1-52.3V109.4z"/><circle class="st2" cx="161.2" cy="206.4" r="35"/></svg>